<svg width="461" height="300" viewBox="0 0 461 300" fill="none" xmlns="http://www.w3.org/2000/svg">
<g filter="url(#filter0_d_55_29792)">
<g clip-path="url(#clip0_55_29792)">
<rect x="16" y="16" width="429" height="268" rx="36.64" fill="white" fill-opacity="0.5" shape-rendering="crispEdges"/>
<path d="M497.271 348.353C504.922 341.34 521.18 325.783 525.005 319.663L467.624 258.457L408.331 194.382L382.509 166.648L357.644 141.783C355.413 139.232 350.185 133.749 347.124 132.219C344.064 130.689 338.836 131.582 336.605 132.219L325.129 142.739C323.853 143.695 320.538 147.329 317.478 154.215C314.417 161.101 321.303 172.386 325.129 177.167L335.648 188.644L445.628 309.143L477.188 343.571C479.738 346.122 485.412 351.605 487.708 353.135C490.003 354.665 495.04 350.585 497.271 348.353Z" fill="white"/>
<path d="M58.3077 281.673L58.3077 239.33L176.895 112.136C201.441 86.9521 255.124 31.6116 273.486 11.7196C291.848 -8.17239 296.438 3.43127 296.438 11.7196L296.438 76.7511L127.165 251.762L96.5616 285.234C76.6696 308.952 71.6966 312.331 71.6966 311.056C60.2204 311.821 57.9889 291.786 58.3077 281.673Z" fill="white"/>
<path d="M306.958 11.7196L306.958 76.7511L525.005 309.143C527.555 312.331 534.186 314.69 540.307 298.623C541.263 294.479 542.984 283.513 542.219 272.802L542.219 266.107C542.538 258.138 542.411 240.86 539.35 235.504C536.29 230.149 534.25 226.897 533.612 225.941L489.62 176.211L438.934 122.656L386.335 67.1876L335.648 17.4577L319.391 3.11247C315.246 -0.394117 306.958 -3.58192 306.958 11.7196Z" fill="white"/>
<path d="M110.907 351.222L78.391 320.619L222.799 168.56L259.141 134.132C260.843 134.55 264.566 135.517 265.835 136.044C270.426 137.575 276.036 143.058 278.268 145.608C280.499 148.158 284.388 155.171 282.093 162.822C279.798 170.473 263.285 190.237 255.315 199.163L110.907 351.222Z" fill="white"/>
<path d="M70.2987 181.713L70.2987 164.889L64.138 164.889C63.4895 164.889 62.8909 165.236 62.8909 166.13C62.8909 167.023 63.4895 167.37 64.138 167.37L67.8045 167.37L67.8045 181.713L64.138 181.713C63.4895 181.713 62.8909 182.061 62.8909 182.954C62.8909 183.847 63.4895 184.195 64.138 184.195L73.9651 184.195C74.6136 184.195 75.2122 183.847 75.2122 182.954L75.2122 176.701C75.2122 175.981 74.888 175.46 73.9651 175.46C73.0423 175.46 72.718 175.981 72.718 176.701L72.718 181.713L70.2987 181.713Z" fill="black"/>
<path d="M83.3364 175.783L90.37 175.783C91.1931 175.783 91.7668 175.658 92.3903 175.088C93.0887 174.443 93.1635 173.773 93.1635 172.879L93.1635 167.792C93.1635 166.899 93.0887 166.229 92.3903 165.584C91.7668 165.013 91.1931 164.889 90.37 164.889L82.0893 164.889C81.4409 164.889 80.8422 165.236 80.8422 166.13C80.8422 167.023 81.4409 167.37 82.0893 167.37L90.6693 167.37L90.6693 173.301L83.6607 173.301C81.79 173.301 80.8422 174.244 80.8422 176.105L80.8422 184.195L91.9164 184.195C92.5649 184.195 93.1635 183.847 93.1635 182.954C93.1635 182.061 92.5649 181.713 91.9164 181.713L83.3364 181.713L83.3364 175.783Z" fill="black"/>
<path d="M108.621 167.37L108.621 171.49C108.621 172.879 108.072 173.301 107.374 173.301L102.485 173.301C101.836 173.301 101.238 173.648 101.238 174.542C101.238 175.435 101.836 175.783 102.485 175.783L107.374 175.783C108.072 175.783 108.621 176.204 108.621 177.594L108.621 181.713L100.041 181.713C99.3922 181.713 98.7936 182.061 98.7936 182.954C98.7936 183.847 99.3922 184.195 100.041 184.195L108.621 184.195C110.042 184.195 111.115 183.128 111.115 181.713L111.115 176.949C111.115 175.956 110.915 175.237 110.142 174.542C110.915 173.847 111.115 173.127 111.115 172.135L111.115 167.37C111.115 165.956 110.042 164.889 108.621 164.889L100.041 164.889C99.3922 164.889 98.7936 165.236 98.7936 166.13C98.7936 167.023 99.3922 167.37 100.041 167.37L108.621 167.37Z" fill="black"/>
<path d="M120.486 175.41L120.486 166.13C120.486 165.509 120.187 164.889 119.239 164.889C118.291 164.889 117.992 165.509 117.992 166.13L117.992 177.892L125.325 177.892L125.325 182.954C125.325 183.748 125.674 184.195 126.572 184.195C127.47 184.195 127.819 183.748 127.819 182.954L127.819 177.892C128.468 177.892 129.066 177.544 129.066 176.651C129.066 175.758 128.468 175.41 127.819 175.41L127.819 168.239C127.819 167.618 127.52 166.998 126.572 166.998C125.624 166.998 125.325 167.618 125.325 168.239L125.325 175.41L120.486 175.41Z" fill="black"/>
<path d="M157.611 167.37L163.722 167.37C164.37 167.37 164.969 167.023 164.969 166.13C164.969 165.236 164.37 164.889 163.722 164.889L155.117 164.889L155.117 175.783L162.475 175.783L162.475 181.713L156.713 181.713C156.314 181.713 155.74 181.366 155.391 181.217L154.643 180.894C154.369 180.77 154.144 180.696 153.845 180.696C153.196 180.696 152.648 181.291 152.648 181.937C152.648 182.805 153.396 183.028 154.069 183.326L155.017 183.748C155.641 184.021 156.015 184.195 156.663 184.195L162.2 184.195C163.098 184.195 163.747 184.095 164.37 183.351C164.894 182.731 164.969 182.185 164.969 181.415L164.969 176.105C164.969 175.237 164.894 174.641 164.196 173.996C163.597 173.425 162.998 173.301 162.2 173.301L157.611 173.301L157.611 167.37Z" fill="black"/>
<path d="M173.093 167.37C173.816 167.37 174.34 166.874 174.34 166.13C174.34 165.484 173.816 164.889 173.168 164.889L171.671 164.889C170.798 164.889 170.599 165.559 170.599 166.13L170.599 182.631C170.599 183.773 171.048 184.195 172.22 184.195L181.299 184.195C182.421 184.195 182.92 183.798 182.92 182.631L182.92 177.073C182.92 175.931 182.671 175.41 181.424 175.41L173.093 175.41L173.093 167.37ZM180.426 177.892L180.426 181.713L173.093 181.713L173.093 177.892L180.426 177.892Z" fill="black"/>
<path d="M198.377 167.37L198.377 170.795C198.377 171.887 198.427 171.862 197.604 172.581L194.162 175.534C193.539 176.08 193.514 176.155 193.514 176.974L193.514 182.954C193.514 183.748 193.863 184.195 194.761 184.195C195.659 184.195 196.008 183.748 196.008 182.954L196.008 178.14C196.008 177.271 196.058 177.222 196.706 176.651L200.198 173.648C200.896 173.053 200.871 172.954 200.871 172.085L200.871 164.889L189.797 164.889C188.999 164.889 188.55 165.584 188.55 166.13L188.55 167.37C188.55 167.916 188.999 168.611 189.797 168.611C190.595 168.611 191.044 167.916 191.044 167.37L198.377 167.37Z" fill="black"/>
<path d="M211.49 173.301L211.49 167.37L213.834 167.37L213.834 173.301L211.49 173.301ZM210.243 164.889C209.395 164.889 208.996 165.484 208.996 166.13L208.996 173.301C208.222 173.301 207.624 173.574 207.175 173.996C206.726 174.418 206.501 175.038 206.501 175.807L206.501 181.713C206.501 183.227 207.449 184.195 208.996 184.195L216.329 184.195C217.875 184.195 218.823 183.227 218.823 181.713L218.823 175.807C218.823 175.038 218.598 174.418 218.149 173.996C217.7 173.574 217.102 173.301 216.329 173.301L216.329 166.13C216.329 165.484 215.93 164.889 215.081 164.889L210.243 164.889ZM208.996 181.713L208.996 175.783L216.329 175.783L216.329 181.713L208.996 181.713Z" fill="black"/>
<path d="M252.231 181.713C251.508 181.713 250.984 182.21 250.984 182.954C250.984 183.624 251.483 184.195 252.231 184.195L253.478 184.195C254.227 184.195 254.725 183.624 254.725 182.954L254.725 166.13C254.725 165.484 254.177 164.889 253.478 164.889L243.651 164.889C242.953 164.889 242.404 165.484 242.404 166.13L242.404 172.482C242.404 173.127 242.953 173.723 243.651 173.723L252.231 173.723L252.231 181.713ZM244.898 171.241L244.898 167.37L252.231 167.37L252.231 171.241L244.898 171.241Z" fill="black"/>
<path d="M262.85 164.889C261.478 164.889 260.355 166.005 260.355 167.37L260.355 181.713C260.355 183.103 261.428 184.195 262.85 184.195L270.183 184.195C271.604 184.195 272.677 183.103 272.677 181.713L272.677 167.37C272.677 166.005 271.554 164.889 270.183 164.889L262.85 164.889ZM262.85 181.713L262.85 167.37L270.183 167.37L270.183 181.713L262.85 181.713Z" fill="black"/>
<path d="M280.801 164.889C279.429 164.889 278.307 166.005 278.307 167.37L278.307 181.713C278.307 183.103 279.379 184.195 280.801 184.195L288.134 184.195C289.556 184.195 290.628 183.103 290.628 181.713L290.628 167.37C290.628 166.005 289.506 164.889 288.134 164.889L280.801 164.889ZM280.801 181.713L280.801 167.37L288.134 167.37L288.134 181.713L280.801 181.713Z" fill="black"/>
<path d="M298.752 164.889C297.38 164.889 296.258 166.005 296.258 167.37L296.258 181.713C296.258 183.103 297.331 184.195 298.752 184.195L306.085 184.195C307.507 184.195 308.579 183.103 308.579 181.713L308.579 167.37C308.579 166.005 307.457 164.889 306.085 164.889L298.752 164.889ZM298.752 181.713L298.752 167.37L306.085 167.37L306.085 181.713L298.752 181.713Z" fill="black"/>
<path d="M334.655 164.889C333.283 164.889 332.161 166.005 332.161 167.37L332.161 181.713C332.161 183.103 333.233 184.195 334.655 184.195L341.988 184.195C343.409 184.195 344.482 183.103 344.482 181.713L344.482 167.37C344.482 166.005 343.36 164.889 341.988 164.889L334.655 164.889ZM334.655 181.713L334.655 167.37L341.988 167.37L341.988 181.713L334.655 181.713Z" fill="black"/>
<path d="M352.606 164.889C351.234 164.889 350.112 166.005 350.112 167.37L350.112 181.713C350.112 183.103 351.185 184.195 352.606 184.195L359.939 184.195C361.361 184.195 362.433 183.103 362.433 181.713L362.433 167.37C362.433 166.005 361.311 164.889 359.939 164.889L352.606 164.889ZM352.606 181.713L352.606 167.37L359.939 167.37L359.939 181.713L352.606 181.713Z" fill="black"/>
<path d="M370.558 164.889C369.186 164.889 368.063 166.005 368.063 167.37L368.063 181.713C368.063 183.103 369.136 184.195 370.558 184.195L377.89 184.195C379.312 184.195 380.385 183.103 380.385 181.713L380.385 167.37C380.385 166.005 379.262 164.889 377.89 164.889L370.558 164.889ZM370.558 181.713L370.558 167.37L377.89 167.37L377.89 181.713L370.558 181.713Z" fill="black"/>
<path d="M388.509 164.889C387.137 164.889 386.015 166.005 386.015 167.37L386.015 181.713C386.015 183.103 387.087 184.195 388.509 184.195L395.842 184.195C397.263 184.195 398.336 183.103 398.336 181.713L398.336 167.37C398.336 166.005 397.214 164.889 395.842 164.889L388.509 164.889ZM388.509 181.713L388.509 167.37L395.842 167.37L395.842 181.713L388.509 181.713Z" fill="black"/>
<path d="M59.0142 217L59.0142 209.447L60.1687 209.447L63.4703 214.961L62.8661 214.961L66.1138 209.447L67.2682 209.447L67.279 217L65.9519 217L65.9411 211.53L66.2217 211.53L63.4595 216.137L62.8337 216.137L60.0284 211.53L60.3521 211.53L60.3521 217L59.0142 217ZM69.1896 217L69.1896 211.238L70.5383 211.238L70.5383 217L69.1896 217ZM69.8694 210.289C69.6176 210.289 69.409 210.21 69.2436 210.052C69.0853 209.893 69.0062 209.703 69.0062 209.48C69.0062 209.249 69.0853 209.059 69.2436 208.908C69.409 208.75 69.6176 208.67 69.8694 208.67C70.1211 208.67 70.3261 208.746 70.4844 208.897C70.6498 209.041 70.7325 209.224 70.7325 209.447C70.7325 209.685 70.6534 209.886 70.4952 210.052C70.3369 210.21 70.1283 210.289 69.8694 210.289ZM74.9519 217.076C74.3477 217.076 73.8082 216.95 73.3335 216.698C72.8659 216.439 72.4991 216.086 72.233 215.641C71.9668 215.195 71.8337 214.687 71.8337 214.119C71.8337 213.544 71.9668 213.037 72.233 212.598C72.4991 212.152 72.8659 211.803 73.3335 211.551C73.8082 211.3 74.3477 211.174 74.9519 211.174C75.513 211.174 76.0057 211.289 76.4301 211.519C76.8617 211.742 77.189 212.073 77.412 212.512L76.3762 213.116C76.2035 212.842 75.9913 212.641 75.7396 212.512C75.495 212.382 75.2289 212.317 74.9411 212.317C74.6103 212.317 74.3117 212.389 74.0456 212.533C73.7795 212.677 73.5709 212.886 73.4198 213.159C73.2688 213.425 73.1932 213.745 73.1932 214.119C73.1932 214.493 73.2688 214.817 73.4198 215.09C73.5709 215.356 73.7795 215.561 74.0456 215.705C74.3117 215.849 74.6103 215.921 74.9411 215.921C75.2289 215.921 75.495 215.856 75.7396 215.727C75.9913 215.597 76.2035 215.396 76.3762 215.123L77.412 215.727C77.189 216.158 76.8617 216.493 76.4301 216.73C76.0057 216.96 75.513 217.076 74.9519 217.076ZM79.6257 215.716L79.658 214.022L82.6683 211.238L84.2868 211.238L81.7296 213.806L81.0175 214.4L79.6257 215.716ZM78.5251 217L78.5251 208.994L79.8738 208.994L79.8738 217L78.5251 217ZM82.8733 217L80.7694 214.4L81.6217 213.321L84.5133 217L82.8733 217ZM92.0241 217.108C91.4342 217.108 90.8912 217.014 90.3948 216.827C89.9057 216.633 89.4777 216.363 89.1109 216.018C88.744 215.666 88.4599 215.252 88.2585 214.777C88.0571 214.303 87.9564 213.785 87.9564 213.224C87.9564 212.663 88.0571 212.145 88.2585 211.67C88.4599 211.195 88.744 210.785 89.1109 210.44C89.4849 210.087 89.9201 209.818 90.4164 209.631C90.9127 209.437 91.4558 209.339 92.0456 209.339C92.6858 209.339 93.2613 209.444 93.772 209.652C94.2899 209.861 94.7251 210.167 95.0775 210.569L94.1928 211.433C93.8979 211.138 93.5778 210.922 93.2325 210.785C92.8944 210.641 92.5204 210.569 92.1104 210.569C91.7148 210.569 91.3479 210.634 91.0098 210.764C90.6718 210.893 90.3805 211.077 90.1359 211.314C89.8913 211.551 89.7007 211.832 89.564 212.155C89.4346 212.479 89.3698 212.835 89.3698 213.224C89.3698 213.605 89.4346 213.957 89.564 214.281C89.7007 214.605 89.8913 214.889 90.1359 215.133C90.3805 215.371 90.6682 215.554 90.9991 215.684C91.3299 215.813 91.6968 215.878 92.0996 215.878C92.4736 215.878 92.8333 215.82 93.1785 215.705C93.531 215.583 93.8655 215.382 94.182 215.101L94.9804 216.148C94.5848 216.464 94.1244 216.705 93.5993 216.871C93.0814 217.029 92.5563 217.108 92.0241 217.108ZM93.6533 215.964L93.6533 213.137L94.9804 213.137L94.9804 216.148L93.6533 215.964ZM100.251 217L100.251 215.835L100.175 215.587L100.175 213.547C100.175 213.152 100.056 212.846 99.8191 212.63C99.5817 212.407 99.2221 212.296 98.7401 212.296C98.4165 212.296 98.0964 212.346 97.7799 212.447C97.4706 212.548 97.208 212.688 96.9922 212.868L96.4635 211.886C96.7728 211.648 97.1397 211.472 97.5641 211.357C97.9957 211.235 98.4416 211.174 98.902 211.174C99.7364 211.174 100.38 211.375 100.833 211.778C101.294 212.173 101.524 212.788 101.524 213.623L101.524 217L100.251 217ZM98.438 217.076C98.0065 217.076 97.6288 217.004 97.3051 216.86C96.9814 216.709 96.7297 216.504 96.5499 216.245C96.3772 215.979 96.2909 215.68 96.2909 215.349C96.2909 215.026 96.3664 214.734 96.5175 214.475C96.6757 214.216 96.9311 214.011 97.2836 213.86C97.636 213.709 98.1036 213.634 98.6862 213.634L100.359 213.634L100.359 214.529L98.7833 214.529C98.3229 214.529 98.0136 214.605 97.8554 214.756C97.6972 214.9 97.618 215.079 97.618 215.295C97.618 215.54 97.7151 215.734 97.9093 215.878C98.1036 216.022 98.3733 216.094 98.7186 216.094C99.0494 216.094 99.3444 216.018 99.6033 215.867C99.8695 215.716 100.06 215.493 100.175 215.198L100.402 216.007C100.272 216.345 100.038 216.608 99.7004 216.795C99.3695 216.982 98.9487 217.076 98.438 217.076ZM103.255 217L103.255 211.238L104.539 211.238L104.539 212.824L104.388 212.36C104.56 211.972 104.83 211.677 105.197 211.476C105.571 211.274 106.035 211.174 106.589 211.174L106.589 212.458C106.531 212.443 106.477 212.436 106.427 212.436C106.377 212.429 106.326 212.425 106.276 212.425C105.765 212.425 105.359 212.576 105.057 212.878C104.754 213.173 104.603 213.616 104.603 214.206L104.603 217L103.255 217ZM110.119 217.076C109.565 217.076 109.065 216.953 108.619 216.709C108.18 216.457 107.835 216.112 107.583 215.673C107.331 215.234 107.205 214.716 107.205 214.119C107.205 213.522 107.331 213.004 107.583 212.565C107.835 212.127 108.18 211.785 108.619 211.54C109.065 211.296 109.565 211.174 110.119 211.174C110.601 211.174 111.032 211.282 111.413 211.497C111.795 211.706 112.097 212.026 112.32 212.458C112.543 212.889 112.654 213.443 112.654 214.119C112.654 214.788 112.546 215.342 112.33 215.781C112.115 216.212 111.816 216.536 111.435 216.752C111.054 216.968 110.615 217.076 110.119 217.076ZM110.28 215.921C110.604 215.921 110.892 215.849 111.144 215.705C111.403 215.561 111.608 215.353 111.759 215.079C111.917 214.806 111.996 214.486 111.996 214.119C111.996 213.745 111.917 213.425 111.759 213.159C111.608 212.886 111.403 212.677 111.144 212.533C110.892 212.389 110.604 212.317 110.28 212.317C109.957 212.317 109.665 212.389 109.406 212.533C109.155 212.677 108.95 212.886 108.791 213.159C108.64 213.425 108.565 213.745 108.565 214.119C108.565 214.486 108.64 214.806 108.791 215.079C108.95 215.353 109.155 215.561 109.406 215.705C109.665 215.849 109.957 215.921 110.28 215.921ZM112.028 217L112.028 215.641L112.082 214.108L111.974 212.576L111.974 208.994L113.312 208.994L113.312 217L112.028 217ZM115.562 219.169C115.282 219.169 115.001 219.122 114.721 219.028C114.44 218.935 114.206 218.805 114.019 218.64L114.559 217.647C114.695 217.77 114.85 217.867 115.023 217.939C115.195 218.011 115.372 218.047 115.551 218.047C115.796 218.047 115.994 217.985 116.145 217.863C116.296 217.741 116.436 217.536 116.566 217.248L116.9 216.493L117.008 216.331L119.187 211.238L120.482 211.238L117.785 217.464C117.605 217.896 117.404 218.237 117.181 218.489C116.965 218.741 116.72 218.917 116.447 219.018C116.181 219.118 115.886 219.169 115.562 219.169ZM116.749 217.205L114.149 211.238L115.551 211.238L117.666 216.212L116.749 217.205Z" fill="black"/>
<path d="M140.155 217L140.155 209.987L140.77 210.623L138.558 210.623L138.558 209.447L141.558 209.447L141.558 217L140.155 217ZM142.959 217L142.959 216.061L145.959 213.213C146.21 212.975 146.397 212.767 146.52 212.587C146.642 212.407 146.721 212.242 146.757 212.091C146.8 211.932 146.822 211.785 146.822 211.648C146.822 211.303 146.703 211.037 146.466 210.85C146.228 210.656 145.879 210.559 145.419 210.559C145.052 210.559 144.718 210.623 144.416 210.753C144.121 210.882 143.865 211.08 143.65 211.346L142.668 210.591C142.963 210.195 143.358 209.89 143.855 209.674C144.358 209.451 144.919 209.339 145.538 209.339C146.084 209.339 146.559 209.429 146.962 209.609C147.372 209.782 147.685 210.03 147.901 210.354C148.124 210.677 148.235 211.062 148.235 211.508C148.235 211.753 148.203 211.997 148.138 212.242C148.073 212.479 147.951 212.731 147.771 212.997C147.591 213.263 147.329 213.562 146.984 213.893L144.405 216.342L144.114 215.813L148.527 215.813L148.527 217L142.959 217ZM148.643 218.079L152.204 207.915L153.412 207.915L149.851 218.079L148.643 218.079ZM153.348 217L153.348 216.061L156.348 213.213C156.6 212.975 156.787 212.767 156.909 212.587C157.031 212.407 157.11 212.242 157.146 212.091C157.189 211.932 157.211 211.785 157.211 211.648C157.211 211.303 157.092 211.037 156.855 210.85C156.618 210.656 156.269 210.559 155.808 210.559C155.441 210.559 155.107 210.623 154.805 210.753C154.51 210.882 154.255 211.08 154.039 211.346L153.057 210.591C153.352 210.195 153.747 209.89 154.244 209.674C154.747 209.451 155.308 209.339 155.927 209.339C156.474 209.339 156.948 209.429 157.351 209.609C157.761 209.782 158.074 210.03 158.29 210.354C158.513 210.677 158.624 211.062 158.624 211.508C158.624 211.753 158.592 211.997 158.527 212.242C158.463 212.479 158.34 212.731 158.16 212.997C157.981 213.263 157.718 213.562 157.373 213.893L154.794 216.342L154.503 215.813L158.916 215.813L158.916 217L153.348 217ZM159.459 215.284L159.459 214.313L163.182 209.447L164.681 209.447L161.013 214.313L160.312 214.098L166.3 214.098L166.3 215.284L159.459 215.284ZM163.603 217L163.603 215.284L163.646 214.098L163.646 212.576L164.962 212.576L164.962 217L163.603 217Z" fill="black"/>
<g filter="url(#filter1_b_55_29792)">
<path d="M65.884 115.756C65.884 111.37 69.4574 107.815 73.8654 107.815L113.772 107.815C118.18 107.815 121.754 111.37 121.754 115.756L121.754 139.578C121.754 143.963 118.18 147.519 113.772 147.519L73.8654 147.519C69.4574 147.519 65.884 143.963 65.884 139.578L65.884 115.756Z" fill="url(#paint0_angular_55_29792)"/>
<path d="M66.3336 115.756C66.3336 111.62 69.7035 108.264 73.8654 108.264L113.772 108.264C117.934 108.264 121.304 111.62 121.304 115.756L121.304 139.578C121.304 143.713 117.934 147.069 113.772 147.069L73.8654 147.069C69.7035 147.069 66.3336 143.713 66.3336 139.578L66.3336 115.756Z" stroke="#232323" stroke-opacity="0.3" stroke-width="0.899131"/>
</g>
<path d="M79.3525 108.808L80.3501 108.808L80.3501 146.526L79.3525 146.526L79.3525 134.615L66.8815 134.615L66.8815 133.622L79.3525 133.622L79.3525 121.711L66.8815 121.711L66.8815 120.719L79.3525 120.719L79.3525 108.808Z" fill="#232323" fill-opacity="0.3"/>
<path d="M107.786 133.622L120.756 133.622L120.756 134.615L107.786 134.615L107.786 146.526L106.789 146.526L106.789 126.674C106.789 123.385 109.469 120.719 112.775 120.719L120.756 120.719L120.756 121.711L112.775 121.711C110.02 121.711 107.786 123.933 107.786 126.674L107.786 133.622Z" fill="#232323" fill-opacity="0.3"/>
<path d="M107.786 108.808L106.789 108.808L106.789 116.748L107.786 116.748L107.786 108.808Z" fill="#232323" fill-opacity="0.3"/>
<path fill-rule="evenodd" clip-rule="evenodd" d="M100.802 127.667C100.802 131.504 97.6758 134.615 93.8187 134.615C89.9617 134.615 86.835 131.504 86.835 127.667C86.835 123.829 89.9617 120.719 93.8188 120.719C97.6758 120.719 100.802 123.829 100.802 127.667ZM99.8048 127.667C99.8048 130.956 97.1248 133.622 93.8187 133.622C90.5127 133.622 87.8327 130.956 87.8327 127.667C87.8327 124.378 90.5127 121.711 93.8188 121.711C97.1248 121.711 99.8048 124.378 99.8048 127.667Z" fill="#232323" fill-opacity="0.3"/>
<path d="M378.177 55.1248C378.576 55.6211 378.875 56.2167 379.075 56.8122C379.274 57.4078 379.374 58.1026 379.374 58.7974C379.374 59.4922 379.274 60.1871 379.075 60.7826C378.875 61.3782 378.576 61.9737 378.177 62.47C377.678 63.1648 377.778 64.1574 378.476 64.6537C379.174 65.15 380.172 65.0508 380.671 64.3559C381.27 63.5619 381.669 62.7678 382.068 61.7752C382.467 60.7826 382.567 59.79 382.567 58.7974C382.567 57.8048 382.367 56.8122 382.068 55.8197C381.768 54.9263 381.27 54.033 380.671 53.2389C380.172 52.5441 379.174 52.4448 378.476 52.9411C377.778 53.4374 377.678 54.43 378.177 55.1248Z" fill="black"/>
<path d="M383.664 52.2463C384.861 54.1322 385.56 56.4152 385.56 58.7974C385.56 61.1796 384.861 63.4626 383.664 65.3485C383.165 66.0433 383.464 67.0359 384.163 67.5322C384.961 68.0285 385.859 67.7308 386.358 67.0359C387.854 64.6537 388.752 61.8745 388.752 58.7974C388.752 55.8196 387.854 52.9411 386.358 50.5589C385.859 49.8641 384.861 49.5663 384.163 50.0626C383.464 50.5589 383.165 51.4522 383.664 52.2463Z" fill="black"/>
<path d="M389.45 49.2685C391.147 52.0478 392.044 55.3234 392.044 58.7974C392.044 62.2715 391.047 65.5471 389.45 68.3263C389.051 69.1204 389.251 70.0137 390.049 70.51C390.847 70.9071 391.745 70.7085 392.244 69.9145C394.239 66.6389 395.337 62.8671 395.337 58.7974C395.337 54.7278 394.239 50.9559 392.244 47.6804C391.845 46.8863 390.847 46.6878 390.049 47.0848C389.251 47.5811 389.051 48.4745 389.45 49.2685Z" fill="black"/>
<path d="M395.237 46.2908C397.332 49.9634 398.629 54.2315 398.629 58.7974C398.629 63.3634 397.432 67.6315 395.237 71.3041C394.838 72.0982 395.037 72.9915 395.836 73.4878C396.634 73.8848 397.532 73.6863 398.03 72.8922C400.425 68.7234 401.822 63.9589 401.822 58.7974C401.822 53.6359 400.425 48.8715 398.03 44.7026C397.631 43.9085 396.634 43.71 395.836 44.1071C395.037 44.5041 394.838 45.4967 395.237 46.2908Z" fill="black"/>
<g filter="url(#filter2_b_55_29792)">
<ellipse cx="336.648" cy="213.473" rx="16.7748" ry="16.7748" fill="white" fill-opacity="0.3"/>
</g>
<g filter="url(#filter3_b_55_29792)">
<path d="M374.224 213.473C374.224 222.737 366.713 230.248 357.449 230.248C348.184 230.248 340.674 222.737 340.674 213.473C340.674 204.208 348.184 196.698 357.449 196.698C366.713 196.698 374.224 204.208 374.224 213.473Z" fill="white" fill-opacity="0.7"/>
</g>
<g filter="url(#filter4_b_55_29792)">
<path d="M347.048 200.311C343.165 203.383 340.674 208.137 340.674 213.473C340.674 218.809 343.165 223.563 347.048 226.635C350.931 223.563 353.423 218.809 353.423 213.473C353.423 208.137 350.931 203.383 347.048 200.311Z" fill="#232323" fill-opacity="0.6"/>
</g>
<path d="M70.2138 40.6641L70.2138 53.6304L68.1245 53.6304L62.0149 44.7984L61.9072 44.7984L61.9072 53.6304L59.5584 53.6304L59.5584 40.6641L61.6603 40.6641L67.7636 49.5024L67.8776 49.5024L67.8776 40.6641L70.2138 40.6641ZM76.9771 53.8203C76.002 53.8203 75.16 53.6177 74.4509 53.2125C73.746 52.8031 73.2037 52.2248 72.8238 51.4778C72.4439 50.7265 72.254 49.8422 72.254 48.825C72.254 47.8247 72.4439 46.9468 72.8238 46.1912C73.2079 45.4315 73.7439 44.8406 74.4319 44.4185C75.1199 43.9922 75.9282 43.779 76.8568 43.779C77.4561 43.779 78.0217 43.8761 78.5535 44.0703C79.0896 44.2602 79.5623 44.5557 79.9717 44.9566C80.3853 45.3576 80.7103 45.8683 80.9467 46.4888C81.1831 47.105 81.3013 47.8394 81.3013 48.692L81.3013 49.3948L73.3303 49.3948L73.3303 47.85L79.1043 47.85C79.1001 47.411 79.0051 47.0206 78.8194 46.6787C78.6337 46.3326 78.3741 46.0604 78.0407 45.862C77.7115 45.6636 77.3274 45.5644 76.8884 45.5644C76.4199 45.5644 76.0084 45.6784 75.6538 45.9063C75.2993 46.13 75.0228 46.4255 74.8244 46.7927C74.6303 47.1557 74.5311 47.5545 74.5269 47.9893L74.5269 49.3378C74.5269 49.9034 74.6303 50.3888 74.8371 50.794C75.0439 51.195 75.3331 51.5031 75.7045 51.7184C76.0759 51.9294 76.5107 52.0349 77.0087 52.0349C77.3421 52.0349 77.6439 51.9885 77.9141 51.8956C78.1842 51.7986 78.4185 51.6572 78.6168 51.4714C78.8152 51.2857 78.965 51.0557 79.0663 50.7813L81.2063 51.0219C81.0712 51.5875 80.8137 52.0813 80.4339 52.5034C80.0582 52.9213 79.5771 53.2463 78.9904 53.4784C78.4037 53.7063 77.7326 53.8203 76.9771 53.8203ZM84.9053 43.9057L86.8679 47.4955L88.8623 43.9057L91.2871 43.9057L88.3558 48.768L91.3378 53.6304L88.9256 53.6304L86.8679 50.1292L84.8293 53.6304L82.3981 53.6304L85.3611 48.768L82.4741 43.9057L84.9053 43.9057ZM99.2581 49.5404L99.2581 43.9057L101.55 43.9057L101.55 53.6304L99.3277 53.6304L99.3277 51.902L99.2264 51.902C99.0069 52.4464 98.6461 52.8917 98.1438 53.2378C97.6457 53.5839 97.0316 53.757 96.3014 53.757C95.6641 53.757 95.1006 53.6156 94.611 53.3328C94.1256 53.0458 93.7457 52.63 93.4714 52.0856C93.197 51.5369 93.0598 50.8742 93.0598 50.0976L93.0598 43.9057L95.3517 43.9057L95.3517 49.743C95.3517 50.3593 95.5206 50.8489 95.8582 51.2119C96.1959 51.5748 96.6391 51.7563 97.1878 51.7563C97.5254 51.7563 97.8526 51.674 98.1691 51.5094C98.4857 51.3448 98.7452 51.1 98.9478 50.775C99.1547 50.4458 99.2581 50.0343 99.2581 49.5404ZM111.593 46.4761L109.504 46.7041C109.444 46.493 109.341 46.2946 109.193 46.1089C109.05 45.9232 108.856 45.7734 108.611 45.6594C108.366 45.5454 108.066 45.4885 107.712 45.4885C107.235 45.4885 106.834 45.5919 106.509 45.7987C106.188 46.0055 106.03 46.2735 106.034 46.6028C106.03 46.8855 106.133 47.1156 106.344 47.2929C106.56 47.4701 106.914 47.6157 107.408 47.7297L109.067 48.0843C109.987 48.2826 110.671 48.5971 111.118 49.0276C111.57 49.4581 111.798 50.0216 111.802 50.718C111.798 51.33 111.618 51.8703 111.264 52.3388C110.913 52.8031 110.426 53.1661 109.801 53.4278C109.176 53.6895 108.459 53.8203 107.648 53.8203C106.458 53.8203 105.5 53.5713 104.774 53.0732C104.048 52.571 103.616 51.8724 103.476 50.9776L105.711 50.7623C105.812 51.2013 106.028 51.5326 106.357 51.7563C106.686 51.98 107.115 52.0919 107.642 52.0919C108.187 52.0919 108.623 51.98 108.953 51.7563C109.286 51.5326 109.453 51.2562 109.453 50.927C109.453 50.6484 109.345 50.4184 109.13 50.2369C108.919 50.0554 108.59 49.9161 108.142 49.819L106.484 49.4708C105.551 49.2766 104.861 48.9495 104.413 48.4895C103.966 48.0252 103.744 47.4385 103.748 46.7294C103.744 46.13 103.907 45.6109 104.236 45.1719C104.569 44.7287 105.032 44.3868 105.623 44.1463C106.218 43.9015 106.904 43.779 107.68 43.779C108.82 43.779 109.717 44.0217 110.371 44.5071C111.029 44.9925 111.437 45.6489 111.593 46.4761Z" fill="black"/>
</g>
<rect x="16.3483" y="16.3483" width="428.303" height="267.303" rx="36.2917" stroke="white" stroke-width="0.696624" shape-rendering="crispEdges"/>
</g>
<defs>
<filter id="filter0_d_55_29792" x="0.714762" y="0.714777" width="459.57" height="298.57" filterUnits="userSpaceOnUse" color-interpolation-filters="sRGB">
<feFlood flood-opacity="0" result="BackgroundImageFix"/>
<feColorMatrix in="SourceAlpha" type="matrix" values="0 0 0 0 0 0 0 0 0 0 0 0 0 0 0 0 0 0 127 0" result="hardAlpha"/>
<feOffset/>
<feGaussianBlur stdDeviation="7.64261"/>
<feComposite in2="hardAlpha" operator="out"/>
<feColorMatrix type="matrix" values="0 0 0 0 0 0 0 0 0 0 0 0 0 0 0 0 0 0 0.15 0"/>
<feBlend mode="normal" in2="BackgroundImageFix" result="effect1_dropShadow_55_29792"/>
<feBlend mode="normal" in="SourceGraphic" in2="effect1_dropShadow_55_29792" result="shape"/>
</filter>
<filter id="filter1_b_55_29792" x="54.6449" y="96.5757" width="78.348" height="62.182" filterUnits="userSpaceOnUse" color-interpolation-filters="sRGB">
<feFlood flood-opacity="0" result="BackgroundImageFix"/>
<feGaussianBlur in="BackgroundImageFix" stdDeviation="5.61957"/>
<feComposite in2="SourceAlpha" operator="in" result="effect1_backgroundBlur_55_29792"/>
<feBlend mode="normal" in="SourceGraphic" in2="effect1_backgroundBlur_55_29792" result="shape"/>
</filter>
<filter id="filter2_b_55_29792" x="297.395" y="174.22" width="78.5063" height="78.5062" filterUnits="userSpaceOnUse" color-interpolation-filters="sRGB">
<feFlood flood-opacity="0" result="BackgroundImageFix"/>
<feGaussianBlur in="BackgroundImageFix" stdDeviation="11.2391"/>
<feComposite in2="SourceAlpha" operator="in" result="effect1_backgroundBlur_55_29792"/>
<feBlend mode="normal" in="SourceGraphic" in2="effect1_backgroundBlur_55_29792" result="shape"/>
</filter>
<filter id="filter3_b_55_29792" x="318.196" y="174.22" width="78.5062" height="78.5062" filterUnits="userSpaceOnUse" color-interpolation-filters="sRGB">
<feFlood flood-opacity="0" result="BackgroundImageFix"/>
<feGaussianBlur in="BackgroundImageFix" stdDeviation="11.2391"/>
<feComposite in2="SourceAlpha" operator="in" result="effect1_backgroundBlur_55_29792"/>
<feBlend mode="normal" in="SourceGraphic" in2="effect1_backgroundBlur_55_29792" result="shape"/>
</filter>
<filter id="filter4_b_55_29792" x="318.196" y="177.832" width="57.7054" height="71.2814" filterUnits="userSpaceOnUse" color-interpolation-filters="sRGB">
<feFlood flood-opacity="0" result="BackgroundImageFix"/>
<feGaussianBlur in="BackgroundImageFix" stdDeviation="11.2391"/>
<feComposite in2="SourceAlpha" operator="in" result="effect1_backgroundBlur_55_29792"/>
<feBlend mode="normal" in="SourceGraphic" in2="effect1_backgroundBlur_55_29792" result="shape"/>
</filter>
<radialGradient id="paint0_angular_55_29792" cx="0" cy="0" r="1" gradientUnits="userSpaceOnUse" gradientTransform="translate(93.8189 127.667) rotate(90) scale(19.8519 30.5624)">
<stop stop-color="#BF953F"/>
<stop offset="0.249328" stop-color="#FCF6BA"/>
<stop offset="0.497926" stop-color="#B38728"/>
<stop offset="0.747546" stop-color="#FBF5B7"/>
<stop offset="1" stop-color="#AA771C"/>
</radialGradient>
<clipPath id="clip0_55_29792">
<rect x="16" y="16" width="429" height="268" rx="36.64" fill="white"/>
</clipPath>
</defs>
</svg>
