<svg width="667" height="523" viewBox="0 0 667 523" fill="none" xmlns="http://www.w3.org/2000/svg">
<g filter="url(#filter0_d_36_14)">
<g clip-path="url(#clip0_36_14)">
<rect x="109.398" y="17" width="555" height="348.488" rx="25.814" transform="rotate(15.3753 109.398 17)" fill="black" fill-opacity="0.5" shape-rendering="crispEdges"/>
<path d="M649.037 660.192C662.296 653.397 690.72 638.053 698.344 631.037L642.218 524.481L584.537 413.226L559.353 365.011L534.4 321.131C532.282 316.752 527.133 307.173 523.48 303.89C519.826 300.607 512.25 299.853 508.919 299.886L489.031 310.079C486.902 310.917 480.93 314.685 474.073 323.051C467.217 331.417 472.452 349.657 475.927 357.732L486.12 377.62L592.482 586.265L623.06 645.93C625.619 650.43 631.386 660.179 633.98 663.171C636.575 666.162 645.099 662.431 649.037 660.192Z" fill="black"/>
<path d="M66.8398 400.826L82.9561 342.218L295.506 211.301C339.066 185.787 434.432 129.621 467.418 109.077C500.404 88.5325 502.342 106.341 499.187 117.813L474.435 207.824L173.53 385.633L118.432 420.315C81.8724 445.571 73.703 448.356 74.1883 446.591C58.0127 443.282 62.5495 414.702 66.8398 400.826Z" fill="black"/>
<path d="M513.748 121.816L488.996 211.828L702.348 616.476C704.665 621.859 712.945 627.648 727.531 607.74C730.432 602.368 736.989 587.844 740.007 572.728L742.555 563.462C746.029 552.553 752.429 528.589 750.231 520.012C748.034 511.434 746.447 506.157 745.929 504.591L703.967 419.015L654.194 325.596L602.503 228.802L551.275 140.678L534.232 114.635C529.83 108.204 519.571 100.637 513.748 121.816Z" fill="black"/>
<path d="M113.172 517.11L79.8143 462.376L337.567 306.871L400.972 273.05C403.169 274.276 407.953 277.032 409.509 278.245C415.281 282.11 420.96 291.835 423.078 296.214C425.196 300.593 427.909 311.781 421.821 321.497C415.732 331.213 385.353 352.284 370.925 361.605L113.172 517.11Z" fill="black"/>
<path d="M119.997 243.395L125.798 222.301L118.113 220.187C117.304 219.965 116.438 220.195 116.13 221.315C115.822 222.435 116.449 223.076 117.258 223.299L121.831 224.556L116.886 242.539L112.313 241.282C111.504 241.059 110.637 241.29 110.329 242.41C110.021 243.53 110.648 244.171 111.457 244.393L123.715 247.764C124.524 247.986 125.391 247.756 125.699 246.636L127.855 238.796C128.103 237.893 127.878 237.129 126.727 236.812C125.576 236.496 124.992 237.038 124.744 237.94L123.015 244.225L119.997 243.395Z" fill="url(#paint0_angular_36_14)"/>
<path d="M138.306 240.431L147.079 242.844C148.106 243.126 148.864 243.167 149.839 242.666C150.933 242.096 151.257 241.282 151.565 240.162L153.319 233.784C153.627 232.664 153.764 231.798 153.116 230.75C152.535 229.82 151.862 229.468 150.835 229.185L140.506 226.345C139.697 226.123 138.83 226.353 138.522 227.473C138.214 228.593 138.841 229.234 139.65 229.456L150.353 232.399L148.308 239.835L139.566 237.431C137.232 236.789 135.725 237.647 135.083 239.98L132.294 250.123L146.108 253.921C146.917 254.144 147.783 253.914 148.091 252.794C148.399 251.673 147.772 251.033 146.964 250.81L136.261 247.867L138.306 240.431Z" fill="url(#paint1_angular_36_14)"/>
<path d="M172.746 238.557L171.325 243.722C170.846 245.464 170.016 245.805 169.145 245.565L163.047 243.888C162.238 243.666 161.372 243.896 161.064 245.016C160.756 246.136 161.383 246.777 162.192 246.999L168.29 248.676C169.161 248.916 169.7 249.633 169.221 251.375L167.8 256.54L157.098 253.597C156.289 253.374 155.422 253.605 155.114 254.725C154.806 255.845 155.433 256.486 156.242 256.708L166.945 259.651C168.718 260.139 170.424 259.169 170.912 257.395L172.554 251.422C172.897 250.177 172.896 249.207 172.171 248.07C173.375 247.464 173.872 246.631 174.214 245.386L175.857 239.412C176.344 237.639 175.374 235.933 173.601 235.446L162.898 232.503C162.089 232.28 161.223 232.51 160.915 233.63C160.607 234.75 161.234 235.391 162.043 235.614L172.746 238.557Z" fill="url(#paint2_angular_36_14)"/>
<path d="M184.775 252.707L187.974 241.071C188.188 240.293 188.029 239.413 186.847 239.088C185.664 238.763 185.077 239.438 184.863 240.216L180.808 254.963L189.955 257.478L188.21 263.825C187.936 264.821 188.217 265.501 189.338 265.809C190.458 266.117 191.047 265.677 191.321 264.681L193.066 258.334C193.875 258.556 194.742 258.326 195.05 257.206C195.358 256.086 194.731 255.445 193.922 255.223L196.394 246.231C196.608 245.453 196.449 244.573 195.266 244.248C194.084 243.923 193.497 244.598 193.283 245.376L190.81 254.367L184.775 252.707Z" fill="url(#paint3_angular_36_14)"/>
<path d="M233.856 255.361L241.479 257.457C242.288 257.68 243.154 257.45 243.462 256.329C243.77 255.209 243.143 254.569 242.334 254.346L231.601 251.394L227.845 265.053L237.023 267.577L234.978 275.013L227.791 273.036C227.293 272.899 226.698 272.267 226.313 271.961L225.491 271.3C225.192 271.05 224.937 270.88 224.564 270.777C223.755 270.554 222.865 271.113 222.643 271.922C222.343 273.011 223.2 273.547 223.937 274.152L224.974 275.006C225.658 275.562 226.064 275.908 226.873 276.13L233.78 278.03C234.9 278.338 235.744 278.436 236.778 277.716C237.645 277.118 237.927 276.459 238.192 275.495L240.023 268.837C240.322 267.748 240.434 266.975 239.786 265.927C239.236 265.006 238.532 264.645 237.536 264.371L231.811 262.797L233.856 255.361Z" fill="url(#paint4_angular_36_14)"/>
<path d="M253.169 260.672C254.071 260.92 254.895 260.477 255.152 259.544C255.374 258.735 254.926 257.809 254.118 257.586L252.251 257.073C251.162 256.773 250.682 257.545 250.485 258.261L244.796 278.951C244.402 280.382 244.817 281.065 246.279 281.467L257.604 284.581C259.004 284.966 259.763 284.639 260.165 283.177L262.082 276.208C262.475 274.777 262.344 274.038 260.788 273.61L250.397 270.752L253.169 260.672ZM258.688 276.379L257.371 281.17L248.224 278.655L249.541 273.864L258.688 276.379Z" fill="url(#paint5_angular_36_14)"/>
<path d="M284.708 269.345L283.528 273.638C283.151 275.007 283.222 274.993 281.947 275.613L276.636 278.135C275.669 278.605 275.613 278.69 275.33 279.717L273.269 287.215C272.995 288.211 273.276 288.89 274.396 289.198C275.516 289.506 276.106 289.066 276.38 288.071L278.04 282.035C278.339 280.946 278.418 280.901 279.424 280.408L284.815 277.841C285.891 277.334 285.895 277.201 286.194 276.112L288.675 267.089L274.861 263.29C273.865 263.017 273.066 263.734 272.878 264.418L272.45 265.974C272.262 266.658 272.582 267.683 273.578 267.957C274.573 268.231 275.373 267.514 275.561 266.829L284.708 269.345Z" fill="url(#paint6_angular_36_14)"/>
<path d="M299.02 281.278L301.065 273.843L303.99 274.647L301.945 282.083L299.02 281.278ZM300.365 270.303C299.307 270.013 298.604 270.622 298.382 271.431L295.909 280.423C294.944 280.158 294.104 280.295 293.398 280.669C292.693 281.044 292.199 281.745 291.934 282.71L289.897 290.114C289.376 292.012 290.224 293.551 292.153 294.081L301.3 296.597C303.229 297.127 304.745 296.239 305.267 294.341L307.303 286.936C307.568 285.972 307.502 285.117 307.088 284.434C306.673 283.751 306.021 283.203 305.056 282.938L307.529 273.947C307.751 273.138 307.459 272.254 306.401 271.963L300.365 270.303ZM293.009 290.97L295.053 283.534L304.201 286.049L302.156 293.485L293.009 290.97Z" fill="url(#paint7_angular_36_14)"/>
<path d="M346.941 305.8C346.039 305.552 345.214 305.995 344.957 306.928C344.726 307.768 345.152 308.655 346.085 308.912L347.641 309.339C348.574 309.596 349.393 309.052 349.624 308.212L355.425 287.117C355.647 286.308 355.168 285.373 354.297 285.134L342.039 281.763C341.168 281.524 340.278 282.082 340.055 282.891L337.865 290.856C337.643 291.665 338.122 292.6 338.993 292.839L349.696 295.782L346.941 305.8ZM341.404 290.156L342.739 285.302L351.886 287.817L350.551 292.671L341.404 290.156Z" fill="url(#paint8_angular_36_14)"/>
<path d="M365.987 288.348C364.276 287.878 362.491 288.893 362.02 290.604L357.075 308.587C356.596 310.329 357.557 312.066 359.331 312.554L368.478 315.069C370.251 315.557 371.966 314.556 372.445 312.814L377.39 294.831C377.86 293.119 376.845 291.334 375.134 290.864L365.987 288.348ZM360.186 309.443L365.131 291.46L374.278 293.975L369.333 311.958L360.186 309.443Z" fill="url(#paint9_angular_36_14)"/>
<path d="M388.379 294.506C386.668 294.035 384.883 295.05 384.413 296.762L379.468 314.745C378.989 316.487 379.95 318.224 381.723 318.712L390.87 321.227C392.644 321.715 394.358 320.713 394.837 318.971L399.782 300.988C400.253 299.277 399.238 297.492 397.527 297.021L388.379 294.506ZM382.579 315.6L387.524 297.617L396.671 300.133L391.726 318.116L382.579 315.6Z" fill="url(#paint10_angular_36_14)"/>
<path d="M410.772 300.664C409.061 300.193 407.276 301.208 406.805 302.919L401.86 320.902C401.381 322.645 402.342 324.381 404.116 324.869L413.263 327.384C415.036 327.872 416.751 326.871 417.23 325.129L422.175 307.146C422.645 305.434 421.63 303.649 419.919 303.179L410.772 300.664ZM404.971 321.758L409.916 303.775L419.064 306.29L414.119 324.273L404.971 321.758Z" fill="url(#paint11_angular_36_14)"/>
<path d="M455.557 312.979C453.846 312.508 452.061 313.523 451.59 315.234L446.645 333.217C446.166 334.96 447.128 336.697 448.901 337.184L458.048 339.7C459.821 340.187 461.536 339.186 462.015 337.444L466.96 319.461C467.43 317.75 466.415 315.965 464.704 315.494L455.557 312.979ZM449.757 334.073L454.702 316.09L463.849 318.605L458.904 336.588L449.757 334.073Z" fill="url(#paint12_angular_36_14)"/>
<path d="M477.95 319.136C476.238 318.666 474.453 319.681 473.983 321.392L469.038 339.375C468.559 341.117 469.52 342.854 471.294 343.342L480.441 345.857C482.214 346.345 483.928 345.344 484.407 343.601L489.352 325.618C489.823 323.907 488.808 322.122 487.097 321.652L477.95 319.136ZM472.149 340.231L477.094 322.247L486.241 324.763L481.296 342.746L472.149 340.231Z" fill="url(#paint13_angular_36_14)"/>
<path d="M500.342 325.294C498.631 324.823 496.846 325.838 496.375 327.55L491.43 345.533C490.951 347.275 491.913 349.012 493.686 349.499L502.833 352.015C504.607 352.502 506.321 351.501 506.8 349.759L511.745 331.776C512.216 330.065 511.2 328.28 509.489 327.809L500.342 325.294ZM494.542 346.388L499.487 328.405L508.634 330.92L503.689 348.903L494.542 346.388Z" fill="url(#paint14_angular_36_14)"/>
<path d="M522.735 331.451C521.024 330.981 519.238 331.996 518.768 333.707L513.823 351.69C513.344 353.432 514.305 355.169 516.079 355.657L525.226 358.172C526.999 358.66 528.713 357.659 529.192 355.917L534.138 337.933C534.608 336.222 533.593 334.437 531.882 333.967L522.735 331.451ZM516.934 352.546L521.879 334.563L531.026 337.078L526.081 355.061L516.934 352.546Z" fill="url(#paint15_angular_36_14)"/>
<path d="M93.1723 288.387L96.0469 277.933L97.6449 278.373L100.116 287.261L99.2799 287.031L105.874 280.635L107.471 281.075L104.612 291.533L102.775 291.028L104.842 283.452L105.23 283.559L99.6536 288.884L98.7875 288.646L96.6581 281.201L97.1062 281.325L95.0241 288.896L93.1723 288.387ZM107.256 292.26L109.449 284.285L111.316 284.798L109.123 292.773L107.256 292.26ZM110.751 283.23C110.403 283.134 110.144 282.945 109.976 282.663C109.817 282.384 109.78 282.09 109.865 281.781C109.952 281.462 110.134 281.229 110.411 281.08C110.7 280.924 111.019 280.894 111.367 280.989C111.716 281.085 111.971 281.268 112.132 281.537C112.307 281.799 112.351 282.085 112.266 282.393C112.176 282.722 111.99 282.97 111.708 283.139C111.429 283.298 111.11 283.328 110.751 283.23ZM115.203 294.558C114.367 294.328 113.668 293.948 113.107 293.419C112.558 292.883 112.185 292.255 111.986 291.536C111.787 290.818 111.796 290.065 112.012 289.279C112.232 288.482 112.609 287.831 113.144 287.325C113.682 286.809 114.323 286.466 115.066 286.295C115.819 286.128 116.613 286.159 117.45 286.389C118.226 286.602 118.864 286.949 119.364 287.429C119.877 287.902 120.204 288.485 120.345 289.177L118.682 289.619C118.547 289.175 118.33 288.815 118.03 288.54C117.741 288.268 117.398 288.077 116.999 287.968C116.541 287.842 116.101 287.828 115.678 287.925C115.255 288.023 114.886 288.233 114.573 288.553C114.263 288.864 114.037 289.279 113.894 289.796C113.752 290.314 113.733 290.791 113.838 291.227C113.946 291.652 114.157 292.016 114.47 292.316C114.784 292.616 115.17 292.83 115.628 292.956C116.026 293.065 116.419 293.077 116.807 292.991C117.204 292.907 117.575 292.709 117.918 292.397L119.121 293.627C118.649 294.14 118.068 294.478 117.381 294.642C116.706 294.799 115.98 294.771 115.203 294.558ZM122.19 294.455L122.879 292.122L128.105 289.415L130.345 290.031L125.829 292.612L124.617 293.163L122.19 294.455ZM120.178 295.813L123.225 284.732L125.092 285.245L122.044 296.326L120.178 295.813ZM126.196 297.468L124.274 293.068L125.864 291.899L128.466 298.092L126.196 297.468ZM138.821 301.1C138.004 300.876 137.288 300.54 136.672 300.092C136.069 299.637 135.58 299.101 135.203 298.483C134.83 297.856 134.594 297.175 134.496 296.441C134.398 295.707 134.455 294.952 134.669 294.176C134.883 293.399 135.219 292.721 135.678 292.14C136.138 291.56 136.687 291.1 137.326 290.762C137.978 290.417 138.683 290.209 139.441 290.139C140.202 290.059 140.991 290.131 141.807 290.356C142.693 290.6 143.45 290.963 144.078 291.446C144.715 291.932 145.201 292.521 145.536 293.212L143.983 294.07C143.687 293.55 143.326 293.129 142.9 292.809C142.487 292.481 141.996 292.239 141.429 292.083C140.881 291.932 140.349 291.882 139.832 291.933C139.314 291.983 138.841 292.126 138.413 292.362C137.984 292.597 137.613 292.913 137.301 293.309C136.998 293.708 136.773 294.176 136.625 294.714C136.48 295.241 136.436 295.754 136.492 296.251C136.558 296.751 136.713 297.217 136.959 297.649C137.207 298.07 137.535 298.434 137.944 298.739C138.353 299.044 138.836 299.273 139.393 299.426C139.911 299.569 140.431 299.626 140.953 299.598C141.487 299.563 142.027 299.412 142.571 299.144L143.278 300.896C142.61 301.184 141.881 301.342 141.091 301.371C140.314 301.393 139.557 301.303 138.821 301.1ZM141.511 300.137L142.587 296.225L144.424 296.73L143.278 300.896L141.511 300.137ZM150.248 304.082L150.692 302.469L150.682 302.097L151.458 299.274C151.609 298.727 151.561 298.258 151.314 297.869C151.071 297.47 150.615 297.179 149.948 296.996C149.5 296.873 149.038 296.82 148.562 296.839C148.095 296.861 147.678 296.955 147.311 297.122L146.953 295.562C147.472 295.351 148.046 295.247 148.678 295.249C149.322 295.244 149.962 295.329 150.599 295.504C151.754 295.822 152.569 296.346 153.042 297.076C153.529 297.798 153.614 298.737 153.296 299.892L152.011 304.567L150.248 304.082ZM147.711 303.497C147.113 303.332 146.618 303.089 146.225 302.767C145.834 302.434 145.564 302.055 145.414 301.628C145.276 301.194 145.27 300.748 145.396 300.29C145.519 299.842 145.735 299.467 146.042 299.167C146.36 298.868 146.791 298.682 147.337 298.607C147.882 298.532 148.558 298.605 149.364 298.827L151.679 299.464L151.338 300.703L149.158 300.104C148.521 299.928 148.064 299.915 147.787 300.064C147.513 300.203 147.335 300.422 147.253 300.72C147.16 301.059 147.221 301.365 147.435 301.638C147.649 301.911 147.995 302.113 148.473 302.244C148.931 302.37 149.368 302.378 149.784 302.267C150.209 302.16 150.558 301.924 150.83 301.559L150.835 302.766C150.527 303.184 150.104 303.459 149.565 303.589C149.036 303.722 148.418 303.691 147.711 303.497ZM154.406 305.225L156.599 297.251L158.376 297.739L157.773 299.935L157.74 299.235C158.127 298.763 158.613 298.457 159.197 298.318C159.791 298.182 160.472 298.219 161.239 298.43L160.75 300.207C160.676 300.165 160.604 300.135 160.534 300.116C160.467 300.086 160.399 300.062 160.329 300.043C159.622 299.849 159.002 299.903 158.469 300.206C157.939 300.5 157.561 301.054 157.337 301.871L156.273 305.739L154.406 305.225ZM163.878 307.942C163.111 307.732 162.466 307.372 161.942 306.864C161.43 306.348 161.084 305.739 160.902 305.036C160.721 304.333 160.744 303.568 160.971 302.742C161.198 301.915 161.57 301.246 162.085 300.735C162.601 300.223 163.208 299.882 163.909 299.71C164.619 299.542 165.358 299.563 166.124 299.773C166.791 299.957 167.348 300.27 167.793 300.714C168.241 301.148 168.538 301.706 168.682 302.388C168.827 303.071 168.77 303.88 168.513 304.815C168.258 305.741 167.898 306.467 167.432 306.992C166.969 307.507 166.433 307.842 165.823 307.995C165.213 308.149 164.565 308.131 163.878 307.942ZM164.541 306.406C164.989 306.529 165.415 306.539 165.818 306.436C166.231 306.335 166.595 306.125 166.908 305.804C167.231 305.486 167.462 305.073 167.602 304.565C167.744 304.047 167.756 303.574 167.639 303.145C167.534 302.71 167.329 302.343 167.026 302.045C166.732 301.75 166.361 301.541 165.913 301.418C165.465 301.295 165.034 301.283 164.621 301.384C164.218 301.487 163.855 301.698 163.532 302.016C163.221 302.327 162.995 302.741 162.853 303.259C162.713 303.767 162.696 304.239 162.801 304.674C162.916 305.113 163.12 305.48 163.414 305.775C163.718 306.072 164.093 306.283 164.541 306.406ZM166.55 308.565L167.068 306.683L167.725 304.583L168.159 302.421L169.523 297.463L171.374 297.972L168.327 309.053L166.55 308.565ZM170.616 312.911C170.228 312.805 169.857 312.633 169.504 312.397C169.152 312.161 168.877 311.893 168.682 311.592L169.806 310.424C169.949 310.645 170.126 310.838 170.337 311.004C170.549 311.169 170.779 311.286 171.028 311.354C171.367 311.447 171.664 311.438 171.919 311.326C172.175 311.214 172.447 310.984 172.736 310.635L173.486 309.717L173.697 309.534L178.652 303.315L180.444 303.807L174.341 311.398C173.928 311.927 173.519 312.323 173.115 312.587C172.72 312.853 172.315 313.004 171.898 313.039C171.491 313.077 171.064 313.035 170.616 312.911ZM173.006 310.645L171.678 301.397L173.619 301.931L174.653 309.62L173.006 310.645Z" fill="url(#paint16_angular_36_14)"/>
<path d="M205.482 319.27L208.151 309.563L208.76 310.678L205.698 309.836L206.146 308.208L210.298 309.35L207.423 319.804L205.482 319.27ZM209.362 320.337L209.72 319.038L214.955 316.237C215.394 316.004 215.732 315.787 215.97 315.584C216.208 315.382 216.38 315.183 216.488 314.988C216.608 314.785 216.693 314.589 216.746 314.4C216.877 313.922 216.814 313.509 216.557 313.159C216.302 312.8 215.856 312.533 215.219 312.358C214.711 312.218 214.224 312.181 213.756 312.245C213.299 312.312 212.87 312.488 212.47 312.775L211.398 311.355C211.957 310.92 212.621 310.648 213.39 310.538C214.172 310.421 214.991 310.48 215.847 310.715C216.604 310.924 217.227 311.229 217.716 311.631C218.218 312.026 218.556 312.488 218.732 313.019C218.917 313.552 218.925 314.127 218.755 314.744C218.662 315.082 218.524 315.409 218.342 315.722C218.162 316.026 217.897 316.328 217.546 316.628C217.196 316.928 216.719 317.241 216.115 317.568L211.614 319.976L211.412 319.134L217.52 320.813L217.068 322.456L209.362 320.337ZM216.819 323.994L225.615 311.281L227.288 311.741L218.491 324.454L216.819 323.994ZM223.742 324.291L224.099 322.992L229.335 320.191C229.774 319.958 230.112 319.741 230.35 319.539C230.588 319.336 230.76 319.137 230.867 318.942C230.987 318.739 231.073 318.543 231.125 318.354C231.257 317.876 231.194 317.463 230.936 317.114C230.682 316.754 230.236 316.487 229.599 316.312C229.091 316.172 228.603 316.135 228.136 316.199C227.678 316.266 227.25 316.443 226.85 316.729L225.778 315.31C226.337 314.874 227.001 314.602 227.77 314.492C228.552 314.375 229.371 314.434 230.227 314.67C230.984 314.878 231.607 315.183 232.096 315.585C232.597 315.98 232.936 316.443 233.112 316.973C233.297 317.506 233.305 318.081 233.135 318.698C233.042 319.037 232.904 319.363 232.721 319.677C232.541 319.981 232.276 320.282 231.926 320.582C231.576 320.882 231.099 321.196 230.495 321.522L225.994 323.931L225.792 323.088L231.9 324.768L231.448 326.41L223.742 324.291ZM232.853 324.243L233.223 322.899L240.227 317.58L242.303 318.151L235.374 323.49L234.485 322.924L242.773 325.204L242.322 326.846L232.853 324.243ZM237.935 328.194L238.588 325.82L239.1 324.193L239.679 322.088L241.501 322.589L239.817 328.712L237.935 328.194Z" fill="url(#paint17_angular_36_14)"/>
<g filter="url(#filter1_b_36_14)">
<path d="M137.231 159.183C138.743 153.685 144.426 150.453 149.925 151.965L199.705 165.654C205.203 167.166 208.435 172.849 206.923 178.347L198.71 208.216C197.198 213.714 191.515 216.946 186.016 215.434L136.236 201.745C130.738 200.233 127.506 194.55 129.018 189.051L137.231 159.183Z" fill="url(#paint18_angular_36_14)"/>
<path d="M137.853 159.354C139.271 154.2 144.599 151.17 149.754 152.587L199.534 166.276C204.689 167.693 207.718 173.021 206.301 178.176L198.088 208.044C196.67 213.199 191.342 216.229 186.187 214.812L136.407 201.123C131.252 199.705 128.223 194.377 129.64 189.223L137.853 159.354Z" stroke="#232323" stroke-opacity="0.3" stroke-width="1.2907"/>
</g>
<path d="M156.427 155.092L157.672 155.434L144.668 202.725L143.423 202.383L147.53 187.449L131.973 183.171L132.316 181.927L147.872 186.204L151.979 171.27L136.422 166.993L136.764 165.748L152.321 170.026L156.427 155.092Z" fill="#232323" fill-opacity="0.3"/>
<path d="M183.34 195.958L199.519 200.406L199.177 201.651L182.998 197.202L178.891 212.136L177.647 211.794L184.491 186.904C185.625 182.78 189.888 180.356 194.012 181.49L203.968 184.228L203.625 185.472L193.669 182.735C190.233 181.79 186.681 183.809 185.736 187.246L183.34 195.958Z" fill="#232323" fill-opacity="0.3"/>
<path d="M191.896 164.845L190.651 164.503L187.913 174.459L189.158 174.801L191.896 164.845Z" fill="#232323" fill-opacity="0.3"/>
<path fill-rule="evenodd" clip-rule="evenodd" d="M176.682 186.095C175.359 190.906 170.386 193.734 165.575 192.411C160.764 191.088 157.936 186.115 159.259 181.304C160.582 176.493 165.555 173.665 170.366 174.988C175.177 176.311 178.005 181.284 176.682 186.095ZM175.438 185.753C174.304 189.877 170.041 192.301 165.917 191.167C161.793 190.033 159.37 185.77 160.504 181.646C161.638 177.522 165.9 175.098 170.024 176.232C174.148 177.366 176.572 181.629 175.438 185.753Z" fill="#232323" fill-opacity="0.3"/>
<g clip-path="url(#clip1_36_14)">
<path d="M547.69 190.287C548.017 191.046 548.185 191.895 548.228 192.71C548.272 193.525 548.157 194.431 547.917 195.302C547.677 196.173 547.313 197.01 546.859 197.688C546.405 198.366 545.826 199.01 545.157 199.496C544.296 200.196 544.078 201.475 544.778 202.336C545.478 203.198 546.757 203.416 547.618 202.716C548.639 201.926 549.411 201.067 550.251 199.959C551.091 198.852 551.557 197.641 551.899 196.397C552.242 195.152 552.335 193.839 552.304 192.492C552.238 191.27 551.924 189.978 551.451 188.778C551.069 187.735 549.858 187.269 548.816 187.651C547.774 188.034 547.307 189.244 547.69 190.287Z" fill="url(#paint19_angular_36_14)"/>
<path d="M555.527 188.56C556.37 191.335 556.454 194.437 555.633 197.424C554.812 200.41 553.153 203.033 551.01 204.987C550.148 205.687 550.179 207.034 550.879 207.896C551.704 208.792 552.926 208.727 553.788 208.027C556.476 205.553 558.554 202.377 559.615 198.519C560.642 194.785 560.514 190.868 559.469 187.368C559.086 186.326 557.944 185.61 556.902 185.993C555.86 186.376 555.179 187.393 555.527 188.56Z" fill="url(#paint20_angular_36_14)"/>
<path d="M563.772 186.811C564.929 190.877 564.92 195.292 563.722 199.648C562.524 204.004 560.151 207.768 557.201 210.705C556.43 211.564 556.371 212.753 557.195 213.649C558.054 214.42 559.242 214.479 560.138 213.655C563.757 210.232 566.426 205.88 567.829 200.777C569.232 195.675 569.164 190.569 567.804 185.778C567.58 184.646 566.404 184.054 565.271 184.278C564.105 184.627 563.548 185.679 563.772 186.811Z" fill="url(#paint21_angular_36_14)"/>
<path d="M572.016 185.062C573.364 190.386 573.51 196.182 571.936 201.907C570.362 207.631 567.397 212.572 563.393 216.424C562.621 217.283 562.562 218.471 563.386 219.367C564.245 220.139 565.434 220.198 566.33 219.373C570.754 214.968 574.139 209.473 575.918 203.002C577.698 196.53 577.598 190.078 576.049 184.029C575.825 182.897 574.649 182.306 573.516 182.53C572.384 182.754 571.792 183.93 572.016 185.062Z" fill="url(#paint22_angular_36_14)"/>
</g>
<g clip-path="url(#clip2_36_14)">
<g filter="url(#filter2_b_36_14)">
<ellipse cx="478.052" cy="412.368" rx="24.0802" ry="24.0802" transform="rotate(15.3753 478.052 412.368)" fill="white" fill-opacity="0.3"/>
</g>
<g filter="url(#filter3_b_36_14)">
<path d="M530.062 426.669C526.536 439.492 513.282 447.029 500.459 443.503C487.636 439.977 480.099 426.723 483.625 413.9C487.151 401.077 500.405 393.54 513.228 397.066C526.051 400.592 533.588 413.846 530.062 426.669Z" fill="white" fill-opacity="0.7"/>
</g>
<g filter="url(#filter4_b_36_14)">
<path d="M497.458 398.108C490.914 400.882 485.656 406.514 483.625 413.9C481.594 421.286 483.233 428.814 487.438 434.545C493.982 431.77 499.24 426.138 501.271 418.752C503.302 411.367 501.663 403.838 497.458 398.108Z" fill="#232323" fill-opacity="0.6"/>
</g>
</g>
<path d="M174.891 72.3473L169.956 90.2941L167.064 89.4989L161.969 74.949L161.82 74.9081L158.459 87.1326L155.208 86.2386L160.143 68.2918L163.052 69.0918L168.136 83.648L168.293 83.6914L171.657 71.4581L174.891 72.3473ZM179.245 93.1312C177.895 92.7601 176.807 92.1592 175.98 91.3285C175.16 90.4935 174.629 89.4867 174.388 88.3081C174.148 87.1236 174.222 85.8274 174.609 84.4195C174.989 83.0349 175.586 81.892 176.4 80.9909C177.221 80.0855 178.187 79.4716 179.3 79.1493C180.415 78.8211 181.615 78.8337 182.9 79.1871C183.73 79.4152 184.475 79.7649 185.138 80.236C185.807 80.7029 186.349 81.2918 186.763 82.0026C187.183 82.7151 187.439 83.5457 187.53 84.4944C187.622 85.4373 187.506 86.4988 187.182 87.6789L186.914 88.6516L175.882 85.6178L176.47 83.4796L184.461 85.6772C184.623 85.0681 184.64 84.4915 184.513 83.9476C184.388 83.3979 184.132 82.9223 183.746 82.5208C183.366 82.1209 182.872 81.8374 182.264 81.6704C181.616 81.4921 181.003 81.4932 180.425 81.6737C179.85 81.8484 179.354 82.1521 178.94 82.5848C178.533 83.0134 178.244 83.5277 178.073 84.1278L177.559 85.9944C177.344 86.7772 177.303 87.4884 177.435 88.128C177.568 88.7617 177.851 89.2982 178.283 89.7375C178.717 90.171 179.279 90.4825 179.968 90.672C180.43 90.799 180.865 90.8496 181.274 90.8238C181.685 90.7923 182.063 90.6857 182.408 90.5042C182.754 90.3226 183.049 90.0613 183.293 89.7201L186.164 90.8676C185.761 91.599 185.217 92.1845 184.531 92.6242C183.852 93.0596 183.062 93.3263 182.162 93.4243C181.263 93.5164 180.29 93.4188 179.245 93.1312ZM193.992 82.4257L195.342 88.1414L199.469 83.9318L202.825 84.8547L196.917 90.4691L199.194 98.3341L195.855 97.416L194.34 91.7869L190.185 95.8569L186.82 94.9316L192.772 89.3293L190.627 81.5004L193.992 82.4257ZM211.713 95.6877L213.858 87.8885L217.03 88.7608L213.329 102.221L210.253 101.375L210.911 98.9828L210.771 98.9443C210.26 99.6144 209.591 100.093 208.764 100.381C207.943 100.671 207.027 100.677 206.016 100.399C205.134 100.156 204.408 99.7458 203.838 99.1681C203.275 98.5861 202.908 97.866 202.735 97.008C202.564 96.1441 202.627 95.1747 202.922 94.0997L205.279 85.5294L208.451 86.4017L206.229 94.4813C205.995 95.3343 206.042 96.0762 206.371 96.7071C206.701 97.3381 207.245 97.758 208.004 97.9668C208.472 98.0953 208.956 98.1059 209.457 97.9985C209.957 97.8912 210.41 97.6511 210.814 97.2784C211.226 96.9015 211.525 96.3712 211.713 95.6877ZM229.952 96.141L226.974 95.6613C226.972 95.3467 226.905 95.0328 226.771 94.7195C226.643 94.4078 226.431 94.1265 226.136 93.8756C225.84 93.6247 225.447 93.4318 224.956 93.2969C224.296 93.1153 223.702 93.1058 223.173 93.2684C222.651 93.4326 222.33 93.7433 222.21 94.2006C222.097 94.5904 222.152 94.9482 222.377 95.2738C222.607 95.6011 223.043 95.9376 223.683 96.2833L225.844 97.4054C227.042 98.0302 227.869 98.7257 228.324 99.4918C228.785 100.26 228.886 101.126 228.627 102.092C228.388 102.937 227.934 103.617 227.265 104.13C226.604 104.64 225.791 104.957 224.826 105.081C223.862 105.205 222.819 105.113 221.698 104.805C220.05 104.352 218.819 103.643 218.004 102.677C217.19 101.705 216.857 100.574 217.005 99.2824L220.18 99.8351C220.153 100.481 220.325 101.022 220.696 101.457C221.066 101.892 221.616 102.209 222.347 102.41C223.1 102.618 223.748 102.629 224.288 102.445C224.835 102.262 225.171 101.943 225.296 101.487C225.402 101.101 225.341 100.742 225.112 100.409C224.889 100.077 224.486 99.7593 223.904 99.4547L221.741 98.3414C220.523 97.7176 219.693 97.0022 219.249 96.1951C218.806 95.3822 218.723 94.4858 218.998 93.5059C219.221 92.6748 219.643 92.018 220.266 91.5358C220.896 91.0493 221.666 90.752 222.575 90.6439C223.492 90.5315 224.488 90.6232 225.563 90.9188C227.141 91.3525 228.29 92.0298 229.01 92.9506C229.737 93.8731 230.051 94.9366 229.952 96.141Z" fill="url(#paint23_angular_36_14)"/>
</g>
<rect x="109.748" y="17.6147" width="554" height="347.488" rx="25.314" transform="rotate(15.3753 109.748 17.6147)" stroke="black" shape-rendering="crispEdges"/>
</g>
<defs>
<filter id="filter0_d_36_14" x="-4.94186" y="-4.94186" width="671.418" height="527.053" filterUnits="userSpaceOnUse" color-interpolation-filters="sRGB">
<feFlood flood-opacity="0" result="BackgroundImageFix"/>
<feColorMatrix in="SourceAlpha" type="matrix" values="0 0 0 0 0 0 0 0 0 0 0 0 0 0 0 0 0 0 127 0" result="hardAlpha"/>
<feOffset/>
<feGaussianBlur stdDeviation="10.9709"/>
<feComposite in2="hardAlpha" operator="out"/>
<feColorMatrix type="matrix" values="0 0 0 0 0 0 0 0 0 0 0 0 0 0 0 0 0 0 0.15 0"/>
<feBlend mode="normal" in2="BackgroundImageFix" result="effect1_dropShadow_36_14"/>
<feBlend mode="normal" in="SourceGraphic" in2="effect1_dropShadow_36_14" result="shape"/>
</filter>
<filter id="filter1_b_36_14" x="112.512" y="135.459" width="110.917" height="96.4806" filterUnits="userSpaceOnUse" color-interpolation-filters="sRGB">
<feFlood flood-opacity="0" result="BackgroundImageFix"/>
<feGaussianBlur in="BackgroundImageFix" stdDeviation="8.06686"/>
<feComposite in2="SourceAlpha" operator="in" result="effect1_backgroundBlur_36_14"/>
<feBlend mode="normal" in="SourceGraphic" in2="effect1_backgroundBlur_36_14" result="shape"/>
</filter>
<filter id="filter2_b_36_14" x="421.699" y="356.014" width="112.707" height="112.707" filterUnits="userSpaceOnUse" color-interpolation-filters="sRGB">
<feFlood flood-opacity="0" result="BackgroundImageFix"/>
<feGaussianBlur in="BackgroundImageFix" stdDeviation="16.1337"/>
<feComposite in2="SourceAlpha" operator="in" result="effect1_backgroundBlur_36_14"/>
<feBlend mode="normal" in="SourceGraphic" in2="effect1_backgroundBlur_36_14" result="shape"/>
</filter>
<filter id="filter3_b_36_14" x="450.49" y="363.931" width="112.707" height="112.707" filterUnits="userSpaceOnUse" color-interpolation-filters="sRGB">
<feFlood flood-opacity="0" result="BackgroundImageFix"/>
<feGaussianBlur in="BackgroundImageFix" stdDeviation="16.1337"/>
<feComposite in2="SourceAlpha" operator="in" result="effect1_backgroundBlur_36_14"/>
<feBlend mode="normal" in="SourceGraphic" in2="effect1_backgroundBlur_36_14" result="shape"/>
</filter>
<filter id="filter4_b_36_14" x="450.49" y="365.84" width="83.9162" height="100.972" filterUnits="userSpaceOnUse" color-interpolation-filters="sRGB">
<feFlood flood-opacity="0" result="BackgroundImageFix"/>
<feGaussianBlur in="BackgroundImageFix" stdDeviation="16.1337"/>
<feComposite in2="SourceAlpha" operator="in" result="effect1_backgroundBlur_36_14"/>
<feBlend mode="normal" in="SourceGraphic" in2="effect1_backgroundBlur_36_14" result="shape"/>
</filter>
<radialGradient id="paint0_angular_36_14" cx="0" cy="0" r="1" gradientUnits="userSpaceOnUse" gradientTransform="translate(322.447 289.394) rotate(105.375) scale(12.552 237.393)">
<stop stop-color="#BF953F"/>
<stop offset="0.249328" stop-color="#FCF6BA"/>
<stop offset="0.497926" stop-color="#B38728"/>
<stop offset="0.747546" stop-color="#FBF5B7"/>
<stop offset="1" stop-color="#AA771C"/>
</radialGradient>
<radialGradient id="paint1_angular_36_14" cx="0" cy="0" r="1" gradientUnits="userSpaceOnUse" gradientTransform="translate(322.447 289.394) rotate(105.375) scale(12.552 237.393)">
<stop stop-color="#BF953F"/>
<stop offset="0.249328" stop-color="#FCF6BA"/>
<stop offset="0.497926" stop-color="#B38728"/>
<stop offset="0.747546" stop-color="#FBF5B7"/>
<stop offset="1" stop-color="#AA771C"/>
</radialGradient>
<radialGradient id="paint2_angular_36_14" cx="0" cy="0" r="1" gradientUnits="userSpaceOnUse" gradientTransform="translate(322.447 289.394) rotate(105.375) scale(12.552 237.393)">
<stop stop-color="#BF953F"/>
<stop offset="0.249328" stop-color="#FCF6BA"/>
<stop offset="0.497926" stop-color="#B38728"/>
<stop offset="0.747546" stop-color="#FBF5B7"/>
<stop offset="1" stop-color="#AA771C"/>
</radialGradient>
<radialGradient id="paint3_angular_36_14" cx="0" cy="0" r="1" gradientUnits="userSpaceOnUse" gradientTransform="translate(322.447 289.394) rotate(105.375) scale(12.552 237.393)">
<stop stop-color="#BF953F"/>
<stop offset="0.249328" stop-color="#FCF6BA"/>
<stop offset="0.497926" stop-color="#B38728"/>
<stop offset="0.747546" stop-color="#FBF5B7"/>
<stop offset="1" stop-color="#AA771C"/>
</radialGradient>
<radialGradient id="paint4_angular_36_14" cx="0" cy="0" r="1" gradientUnits="userSpaceOnUse" gradientTransform="translate(322.447 289.394) rotate(105.375) scale(12.552 237.393)">
<stop stop-color="#BF953F"/>
<stop offset="0.249328" stop-color="#FCF6BA"/>
<stop offset="0.497926" stop-color="#B38728"/>
<stop offset="0.747546" stop-color="#FBF5B7"/>
<stop offset="1" stop-color="#AA771C"/>
</radialGradient>
<radialGradient id="paint5_angular_36_14" cx="0" cy="0" r="1" gradientUnits="userSpaceOnUse" gradientTransform="translate(322.447 289.394) rotate(105.375) scale(12.552 237.393)">
<stop stop-color="#BF953F"/>
<stop offset="0.249328" stop-color="#FCF6BA"/>
<stop offset="0.497926" stop-color="#B38728"/>
<stop offset="0.747546" stop-color="#FBF5B7"/>
<stop offset="1" stop-color="#AA771C"/>
</radialGradient>
<radialGradient id="paint6_angular_36_14" cx="0" cy="0" r="1" gradientUnits="userSpaceOnUse" gradientTransform="translate(322.447 289.394) rotate(105.375) scale(12.552 237.393)">
<stop stop-color="#BF953F"/>
<stop offset="0.249328" stop-color="#FCF6BA"/>
<stop offset="0.497926" stop-color="#B38728"/>
<stop offset="0.747546" stop-color="#FBF5B7"/>
<stop offset="1" stop-color="#AA771C"/>
</radialGradient>
<radialGradient id="paint7_angular_36_14" cx="0" cy="0" r="1" gradientUnits="userSpaceOnUse" gradientTransform="translate(322.447 289.394) rotate(105.375) scale(12.552 237.393)">
<stop stop-color="#BF953F"/>
<stop offset="0.249328" stop-color="#FCF6BA"/>
<stop offset="0.497926" stop-color="#B38728"/>
<stop offset="0.747546" stop-color="#FBF5B7"/>
<stop offset="1" stop-color="#AA771C"/>
</radialGradient>
<radialGradient id="paint8_angular_36_14" cx="0" cy="0" r="1" gradientUnits="userSpaceOnUse" gradientTransform="translate(322.447 289.394) rotate(105.375) scale(12.552 237.393)">
<stop stop-color="#BF953F"/>
<stop offset="0.249328" stop-color="#FCF6BA"/>
<stop offset="0.497926" stop-color="#B38728"/>
<stop offset="0.747546" stop-color="#FBF5B7"/>
<stop offset="1" stop-color="#AA771C"/>
</radialGradient>
<radialGradient id="paint9_angular_36_14" cx="0" cy="0" r="1" gradientUnits="userSpaceOnUse" gradientTransform="translate(322.447 289.394) rotate(105.375) scale(12.552 237.393)">
<stop stop-color="#BF953F"/>
<stop offset="0.249328" stop-color="#FCF6BA"/>
<stop offset="0.497926" stop-color="#B38728"/>
<stop offset="0.747546" stop-color="#FBF5B7"/>
<stop offset="1" stop-color="#AA771C"/>
</radialGradient>
<radialGradient id="paint10_angular_36_14" cx="0" cy="0" r="1" gradientUnits="userSpaceOnUse" gradientTransform="translate(322.447 289.394) rotate(105.375) scale(12.552 237.393)">
<stop stop-color="#BF953F"/>
<stop offset="0.249328" stop-color="#FCF6BA"/>
<stop offset="0.497926" stop-color="#B38728"/>
<stop offset="0.747546" stop-color="#FBF5B7"/>
<stop offset="1" stop-color="#AA771C"/>
</radialGradient>
<radialGradient id="paint11_angular_36_14" cx="0" cy="0" r="1" gradientUnits="userSpaceOnUse" gradientTransform="translate(322.447 289.394) rotate(105.375) scale(12.552 237.393)">
<stop stop-color="#BF953F"/>
<stop offset="0.249328" stop-color="#FCF6BA"/>
<stop offset="0.497926" stop-color="#B38728"/>
<stop offset="0.747546" stop-color="#FBF5B7"/>
<stop offset="1" stop-color="#AA771C"/>
</radialGradient>
<radialGradient id="paint12_angular_36_14" cx="0" cy="0" r="1" gradientUnits="userSpaceOnUse" gradientTransform="translate(322.447 289.394) rotate(105.375) scale(12.552 237.393)">
<stop stop-color="#BF953F"/>
<stop offset="0.249328" stop-color="#FCF6BA"/>
<stop offset="0.497926" stop-color="#B38728"/>
<stop offset="0.747546" stop-color="#FBF5B7"/>
<stop offset="1" stop-color="#AA771C"/>
</radialGradient>
<radialGradient id="paint13_angular_36_14" cx="0" cy="0" r="1" gradientUnits="userSpaceOnUse" gradientTransform="translate(322.447 289.394) rotate(105.375) scale(12.552 237.393)">
<stop stop-color="#BF953F"/>
<stop offset="0.249328" stop-color="#FCF6BA"/>
<stop offset="0.497926" stop-color="#B38728"/>
<stop offset="0.747546" stop-color="#FBF5B7"/>
<stop offset="1" stop-color="#AA771C"/>
</radialGradient>
<radialGradient id="paint14_angular_36_14" cx="0" cy="0" r="1" gradientUnits="userSpaceOnUse" gradientTransform="translate(322.447 289.394) rotate(105.375) scale(12.552 237.393)">
<stop stop-color="#BF953F"/>
<stop offset="0.249328" stop-color="#FCF6BA"/>
<stop offset="0.497926" stop-color="#B38728"/>
<stop offset="0.747546" stop-color="#FBF5B7"/>
<stop offset="1" stop-color="#AA771C"/>
</radialGradient>
<radialGradient id="paint15_angular_36_14" cx="0" cy="0" r="1" gradientUnits="userSpaceOnUse" gradientTransform="translate(322.447 289.394) rotate(105.375) scale(12.552 237.393)">
<stop stop-color="#BF953F"/>
<stop offset="0.249328" stop-color="#FCF6BA"/>
<stop offset="0.497926" stop-color="#B38728"/>
<stop offset="0.747546" stop-color="#FBF5B7"/>
<stop offset="1" stop-color="#AA771C"/>
</radialGradient>
<radialGradient id="paint16_angular_36_14" cx="0" cy="0" r="1" gradientUnits="userSpaceOnUse" gradientTransform="translate(136.616 294.629) rotate(105.375) scale(9.5 49.2326)">
<stop stop-color="#BF953F"/>
<stop offset="0.249328" stop-color="#FCF6BA"/>
<stop offset="0.497926" stop-color="#B38728"/>
<stop offset="0.747546" stop-color="#FBF5B7"/>
<stop offset="1" stop-color="#AA771C"/>
</radialGradient>
<radialGradient id="paint17_angular_36_14" cx="0" cy="0" r="1" gradientUnits="userSpaceOnUse" gradientTransform="translate(224.376 318.762) rotate(105.375) scale(9.5 22.4282)">
<stop stop-color="#BF953F"/>
<stop offset="0.249328" stop-color="#FCF6BA"/>
<stop offset="0.497926" stop-color="#B38728"/>
<stop offset="0.747546" stop-color="#FBF5B7"/>
<stop offset="1" stop-color="#AA771C"/>
</radialGradient>
<radialGradient id="paint18_angular_36_14" cx="0" cy="0" r="1" gradientUnits="userSpaceOnUse" gradientTransform="translate(167.97 183.699) rotate(105.375) scale(25.814 39.5387)">
<stop stop-color="#BF953F"/>
<stop offset="0.249328" stop-color="#FCF6BA"/>
<stop offset="0.497926" stop-color="#B38728"/>
<stop offset="0.747546" stop-color="#FBF5B7"/>
<stop offset="1" stop-color="#AA771C"/>
</radialGradient>
<radialGradient id="paint19_angular_36_14" cx="0" cy="0" r="1" gradientUnits="userSpaceOnUse" gradientTransform="translate(560.977 198.893) rotate(105.375) scale(19.3605 16.954)">
<stop stop-color="#BF953F"/>
<stop offset="0.249328" stop-color="#FCF6BA"/>
<stop offset="0.497926" stop-color="#B38728"/>
<stop offset="0.747546" stop-color="#FBF5B7"/>
<stop offset="1" stop-color="#AA771C"/>
</radialGradient>
<radialGradient id="paint20_angular_36_14" cx="0" cy="0" r="1" gradientUnits="userSpaceOnUse" gradientTransform="translate(560.977 198.893) rotate(105.375) scale(19.3605 16.954)">
<stop stop-color="#BF953F"/>
<stop offset="0.249328" stop-color="#FCF6BA"/>
<stop offset="0.497926" stop-color="#B38728"/>
<stop offset="0.747546" stop-color="#FBF5B7"/>
<stop offset="1" stop-color="#AA771C"/>
</radialGradient>
<radialGradient id="paint21_angular_36_14" cx="0" cy="0" r="1" gradientUnits="userSpaceOnUse" gradientTransform="translate(560.977 198.893) rotate(105.375) scale(19.3605 16.954)">
<stop stop-color="#BF953F"/>
<stop offset="0.249328" stop-color="#FCF6BA"/>
<stop offset="0.497926" stop-color="#B38728"/>
<stop offset="0.747546" stop-color="#FBF5B7"/>
<stop offset="1" stop-color="#AA771C"/>
</radialGradient>
<radialGradient id="paint22_angular_36_14" cx="0" cy="0" r="1" gradientUnits="userSpaceOnUse" gradientTransform="translate(560.977 198.893) rotate(105.375) scale(19.3605 16.954)">
<stop stop-color="#BF953F"/>
<stop offset="0.249328" stop-color="#FCF6BA"/>
<stop offset="0.497926" stop-color="#B38728"/>
<stop offset="0.747546" stop-color="#FBF5B7"/>
<stop offset="1" stop-color="#AA771C"/>
</radialGradient>
<radialGradient id="paint23_angular_36_14" cx="0" cy="0" r="1" gradientUnits="userSpaceOnUse" gradientTransform="translate(193.56 86.9324) rotate(105.375) scale(15.5 42.6682)">
<stop stop-color="#BF953F"/>
<stop offset="0.249328" stop-color="#FCF6BA"/>
<stop offset="0.497926" stop-color="#B38728"/>
<stop offset="0.747546" stop-color="#FBF5B7"/>
<stop offset="1" stop-color="#AA771C"/>
</radialGradient>
<clipPath id="clip0_36_14">
<rect x="109.398" y="17" width="555" height="348.488" rx="25.814" transform="rotate(15.3753 109.398 17)" fill="white"/>
</clipPath>
<clipPath id="clip1_36_14">
<rect width="41.3023" height="41.3023" fill="white" transform="translate(546.547 173.508) rotate(15.3753)"/>
</clipPath>
<clipPath id="clip2_36_14">
<rect x="453.975" y="372.781" width="96.3207" height="64.5349" rx="5.16279" transform="rotate(15.3753 453.975 372.781)" fill="white"/>
</clipPath>
</defs>
</svg>
