<svg width="509" height="399" viewBox="0 0 509 399" fill="none" xmlns="http://www.w3.org/2000/svg">
<g filter="url(#filter0_d_36_14)">
<g clip-path="url(#clip0_36_14)">
<rect x="83.4414" y="13" width="423.724" height="266.059" rx="19.7081" transform="rotate(15.3753 83.4414 13)" fill="black" fill-opacity="0.5" shape-rendering="crispEdges"/>
<path d="M495.438 504.056C505.561 498.868 527.261 487.153 533.082 481.797L490.232 400.445L446.194 315.505L426.967 278.695L407.916 245.194C406.299 241.85 402.368 234.537 399.579 232.031C396.79 229.525 391.006 228.949 388.462 228.974L373.278 236.756C371.653 237.396 367.093 240.273 361.859 246.66C356.624 253.047 360.621 266.973 363.274 273.137L371.056 288.321L452.259 447.615L475.605 493.167C477.559 496.603 481.962 504.046 483.943 506.33C485.923 508.614 492.432 505.765 495.438 504.056Z" fill="black"/>
<path d="M50.9496 306.038L63.2538 261.293L225.528 161.343C258.785 141.863 331.594 98.9824 356.778 83.2976C381.962 67.6128 383.441 81.2086 381.032 89.9671L362.135 158.688L132.404 294.439L90.3387 320.918C62.4264 340.2 56.1894 342.326 56.5599 340.978C44.2104 338.452 47.6741 316.632 50.9496 306.038Z" fill="black"/>
<path d="M392.149 93.024L373.252 161.745L536.139 470.68C537.908 474.79 544.229 479.21 555.366 464.01C557.58 459.909 562.586 448.821 564.89 437.28L566.835 430.206C569.488 421.877 574.374 403.581 572.696 397.033C571.018 390.484 569.807 386.455 569.412 385.259L537.375 319.925L499.375 248.603L459.91 174.704L420.799 107.424L407.788 87.5412C404.427 82.6315 396.595 76.8544 392.149 93.024Z" fill="black"/>
<path d="M86.3228 394.817L60.8552 353.03L257.641 234.307L306.048 208.486C307.726 209.422 311.378 211.526 312.566 212.452C316.973 215.403 321.308 222.827 322.925 226.171C324.542 229.514 326.614 238.055 321.966 245.473C317.317 252.891 294.124 268.978 283.109 276.095L86.3228 394.817Z" fill="black"/>
<path d="M91.5334 185.845L95.962 169.74L90.0949 168.127C89.4773 167.957 88.8158 168.133 88.5806 168.988C88.3455 169.843 88.8241 170.332 89.4417 170.502L92.9335 171.462L89.1581 185.192L85.6664 184.232C85.0488 184.062 84.3872 184.238 84.1521 185.093C83.9169 185.948 84.3956 186.437 85.0132 186.607L94.372 189.181C94.9896 189.35 95.6511 189.175 95.8863 188.319L97.5323 182.334C97.7217 181.645 97.5501 181.061 96.6712 180.819C95.7923 180.578 95.3464 180.992 95.1569 181.68L93.8375 186.479L91.5334 185.845Z" fill="url(#paint0_angular_36_14)"/>
<path d="M105.511 183.582L112.21 185.424C112.993 185.64 113.572 185.671 114.316 185.288C115.151 184.854 115.399 184.232 115.634 183.377L116.973 178.507C117.208 177.652 117.313 176.991 116.818 176.191C116.375 175.481 115.861 175.212 115.077 174.997L107.191 172.828C106.573 172.658 105.912 172.834 105.677 173.689C105.441 174.544 105.92 175.033 106.538 175.203L114.709 177.45L113.148 183.127L106.473 181.292C104.692 180.802 103.541 181.456 103.051 183.238L100.921 190.982L111.468 193.882C112.086 194.051 112.747 193.876 112.982 193.021C113.217 192.165 112.739 191.676 112.121 191.506L103.95 189.259L105.511 183.582Z" fill="url(#paint1_angular_36_14)"/>
<path d="M131.805 182.151L130.721 186.094C130.355 187.425 129.721 187.685 129.056 187.502L124.4 186.222C123.783 186.052 123.121 186.228 122.886 187.083C122.651 187.938 123.13 188.427 123.747 188.597L128.403 189.877C129.068 190.06 129.48 190.608 129.114 191.938L128.029 195.881L119.858 193.634C119.241 193.464 118.579 193.64 118.344 194.495C118.109 195.35 118.588 195.839 119.205 196.009L127.376 198.256C128.73 198.628 130.032 197.888 130.405 196.534L131.659 191.973C131.92 191.023 131.92 190.282 131.366 189.415C132.285 188.952 132.665 188.315 132.926 187.365L134.18 182.805C134.552 181.451 133.812 180.148 132.458 179.776L124.287 177.529C123.669 177.359 123.008 177.535 122.773 178.39C122.537 179.245 123.016 179.735 123.634 179.904L131.805 182.151Z" fill="url(#paint2_angular_36_14)"/>
<path d="M140.989 192.955L143.432 184.071C143.595 183.477 143.473 182.805 142.57 182.557C141.668 182.309 141.219 182.824 141.056 183.418L137.96 194.677L144.944 196.597L143.611 201.443C143.402 202.203 143.617 202.722 144.472 202.957C145.327 203.192 145.777 202.856 145.987 202.096L147.319 197.25C147.937 197.42 148.598 197.245 148.833 196.389C149.068 195.534 148.59 195.045 147.972 194.875L149.86 188.01C150.023 187.417 149.901 186.744 148.999 186.496C148.096 186.248 147.648 186.763 147.485 187.357L145.597 194.222L140.989 192.955Z" fill="url(#paint3_angular_36_14)"/>
<path d="M178.461 194.981L184.28 196.581C184.898 196.751 185.56 196.575 185.795 195.72C186.03 194.865 185.551 194.376 184.934 194.206L176.739 191.952L173.871 202.38L180.878 204.307L179.317 209.984L173.83 208.475C173.45 208.371 172.995 207.888 172.702 207.654L172.074 207.149C171.846 206.959 171.652 206.829 171.366 206.75C170.749 206.58 170.07 207.007 169.9 207.624C169.671 208.456 170.325 208.865 170.888 209.327L171.679 209.979C172.201 210.403 172.512 210.668 173.13 210.838L178.403 212.288C179.258 212.523 179.902 212.598 180.692 212.048C181.354 211.592 181.569 211.089 181.771 210.352L183.169 205.269C183.398 204.438 183.483 203.848 182.988 203.047C182.568 202.344 182.03 202.069 181.27 201.86L176.9 200.658L178.461 194.981Z" fill="url(#paint4_angular_36_14)"/>
<path d="M193.205 199.035C193.894 199.225 194.523 198.887 194.719 198.174C194.889 197.557 194.547 196.849 193.93 196.68L192.504 196.288C191.673 196.059 191.307 196.648 191.156 197.195L186.813 212.991C186.512 214.083 186.829 214.605 187.945 214.912L196.592 217.289C197.66 217.583 198.24 217.334 198.547 216.217L200.01 210.897C200.311 209.804 200.21 209.24 199.023 208.913L191.089 206.731L193.205 199.035ZM197.419 211.027L196.413 214.685L189.43 212.765L190.436 209.107L197.419 211.027Z" fill="url(#paint5_angular_36_14)"/>
<path d="M217.285 205.657L216.383 208.935C216.096 209.98 216.15 209.969 215.177 210.443L211.121 212.368C210.384 212.727 210.34 212.792 210.125 213.576L208.551 219.3C208.342 220.06 208.557 220.579 209.412 220.815C210.267 221.05 210.717 220.714 210.926 219.953L212.193 215.345C212.422 214.514 212.482 214.479 213.25 214.103L217.366 212.143C218.188 211.756 218.19 211.655 218.419 210.823L220.313 203.935L209.767 201.035C209.007 200.826 208.396 201.373 208.252 201.896L207.926 203.083C207.782 203.606 208.027 204.389 208.787 204.598C209.547 204.807 210.157 204.259 210.301 203.736L217.285 205.657Z" fill="url(#paint6_angular_36_14)"/>
<path d="M228.211 214.768L229.772 209.091L232.005 209.705L230.444 215.382L228.211 214.768ZM229.238 206.389C228.43 206.167 227.894 206.632 227.724 207.25L225.836 214.115C225.1 213.912 224.458 214.017 223.919 214.303C223.381 214.589 223.003 215.124 222.801 215.861L221.246 221.514C220.848 222.963 221.496 224.137 222.969 224.542L229.952 226.463C231.425 226.868 232.582 226.19 232.981 224.741L234.535 219.087C234.738 218.351 234.687 217.698 234.371 217.177C234.054 216.656 233.556 216.237 232.82 216.035L234.707 209.17C234.877 208.553 234.654 207.878 233.846 207.656L229.238 206.389ZM223.622 222.167L225.183 216.49L232.166 218.41L230.605 224.087L223.622 222.167Z" fill="url(#paint7_angular_36_14)"/>
<path d="M264.797 233.49C264.108 233.3 263.479 233.638 263.283 234.351C263.107 234.992 263.431 235.669 264.144 235.865L265.332 236.192C266.044 236.387 266.67 235.972 266.846 235.33L271.274 219.226C271.444 218.608 271.079 217.894 270.413 217.711L261.055 215.138C260.389 214.955 259.71 215.381 259.54 215.999L257.868 222.08C257.698 222.697 258.064 223.411 258.729 223.594L266.9 225.841L264.797 233.49ZM260.57 221.545L261.589 217.84L268.573 219.76L267.554 223.466L260.57 221.545Z" fill="url(#paint8_angular_36_14)"/>
<path d="M279.338 220.166C278.032 219.806 276.669 220.581 276.31 221.888L272.534 235.617C272.169 236.947 272.903 238.273 274.256 238.646L281.24 240.566C282.594 240.938 283.903 240.174 284.268 238.844L288.044 225.114C288.403 223.808 287.628 222.445 286.322 222.086L279.338 220.166ZM274.91 236.27L278.685 222.541L285.669 224.461L281.893 238.191L274.91 236.27Z" fill="url(#paint9_angular_36_14)"/>
<path d="M296.434 224.867C295.128 224.507 293.765 225.282 293.406 226.589L289.63 240.318C289.264 241.648 289.998 242.974 291.352 243.347L298.336 245.267C299.69 245.639 300.999 244.875 301.364 243.545L305.14 229.815C305.499 228.509 304.724 227.146 303.418 226.787L296.434 224.867ZM292.006 240.971L295.781 227.242L302.764 229.162L298.989 242.892L292.006 240.971Z" fill="url(#paint10_angular_36_14)"/>
<path d="M313.53 229.568C312.224 229.208 310.861 229.983 310.502 231.29L306.726 245.019C306.36 246.35 307.094 247.676 308.448 248.048L315.432 249.968C316.786 250.341 318.095 249.576 318.46 248.246L322.236 234.517C322.595 233.21 321.82 231.847 320.514 231.488L313.53 229.568ZM309.102 245.673L312.877 231.943L319.86 233.863L316.085 247.593L309.102 245.673Z" fill="url(#paint11_angular_36_14)"/>
<path d="M347.722 238.97C346.416 238.611 345.053 239.386 344.694 240.692L340.918 254.422C340.552 255.752 341.286 257.078 342.64 257.45L349.624 259.37C350.978 259.743 352.287 258.978 352.652 257.648L356.428 243.919C356.787 242.612 356.012 241.249 354.706 240.89L347.722 238.97ZM343.293 255.075L347.069 241.345L354.052 243.266L350.277 256.995L343.293 255.075Z" fill="url(#paint12_angular_36_14)"/>
<path d="M364.818 243.671C363.512 243.312 362.149 244.087 361.79 245.393L358.014 259.123C357.648 260.453 358.382 261.779 359.736 262.151L366.72 264.072C368.074 264.444 369.383 263.68 369.748 262.349L373.524 248.62C373.883 247.313 373.108 245.951 371.802 245.591L364.818 243.671ZM360.389 259.776L364.165 246.046L371.148 247.967L367.373 261.696L360.389 259.776Z" fill="url(#paint13_angular_36_14)"/>
<path d="M381.914 248.372C380.608 248.013 379.245 248.788 378.885 250.094L375.11 263.824C374.744 265.154 375.478 266.48 376.832 266.852L383.816 268.773C385.17 269.145 386.478 268.381 386.844 267.05L390.62 253.321C390.979 252.015 390.204 250.652 388.897 250.292L381.914 248.372ZM377.485 264.477L381.261 250.747L388.244 252.668L384.469 266.397L377.485 264.477Z" fill="url(#paint14_angular_36_14)"/>
<path d="M399.01 253.073C397.704 252.714 396.341 253.489 395.981 254.795L392.206 268.525C391.84 269.855 392.574 271.181 393.928 271.553L400.912 273.474C402.266 273.846 403.574 273.082 403.94 271.752L407.716 258.022C408.075 256.716 407.3 255.353 405.993 254.994L399.01 253.073ZM394.581 269.178L398.357 255.449L405.34 257.369L401.565 271.098L394.581 269.178Z" fill="url(#paint15_angular_36_14)"/>
<path d="M71.1733 219.759L73.3679 211.778L74.5879 212.113L76.4747 218.899L75.8362 218.724L80.8702 213.841L82.0902 214.176L79.9069 222.161L78.5045 221.775L80.0827 215.991L80.3791 216.073L76.1216 220.139L75.4603 219.957L73.8346 214.273L74.1766 214.367L72.5871 220.148L71.1733 219.759ZM81.9259 222.716L83.6001 216.627L85.0253 217.019L83.3511 223.108L81.9259 222.716ZM84.5943 215.822C84.3283 215.749 84.1309 215.604 84.002 215.389C83.8808 215.176 83.8526 214.951 83.9174 214.716C83.9842 214.472 84.1232 214.294 84.3344 214.18C84.5552 214.061 84.7986 214.038 85.0646 214.111C85.3307 214.185 85.5253 214.324 85.6487 214.53C85.7817 214.73 85.8158 214.948 85.751 215.183C85.682 215.434 85.5399 215.624 85.3246 215.753C85.1114 215.874 84.868 215.897 84.5943 215.822ZM87.9931 224.47C87.3547 224.295 86.8212 224.005 86.3926 223.601C85.9738 223.191 85.6886 222.712 85.5369 222.164C85.3853 221.615 85.392 221.041 85.5571 220.44C85.7243 219.832 86.0123 219.335 86.4211 218.948C86.8319 218.555 87.3209 218.292 87.8882 218.162C88.463 218.034 89.0696 218.058 89.7081 218.234C90.301 218.397 90.7882 218.661 91.1698 219.028C91.5611 219.389 91.8108 219.834 91.9189 220.362L90.6488 220.7C90.5458 220.361 90.3801 220.086 90.1517 219.876C89.9309 219.668 89.6684 219.523 89.3644 219.439C89.0147 219.343 88.6784 219.332 88.3554 219.407C88.0323 219.481 87.7513 219.641 87.5122 219.886C87.2753 220.124 87.1024 220.44 86.9937 220.835C86.8851 221.23 86.8708 221.594 86.951 221.927C87.0333 222.252 87.1942 222.529 87.4336 222.759C87.673 222.988 87.9676 223.151 88.3172 223.247C88.6213 223.331 88.9213 223.34 89.2174 223.274C89.521 223.21 89.8038 223.059 90.0656 222.82L90.9846 223.76C90.6236 224.151 90.1805 224.409 89.6555 224.535C89.1402 224.655 88.586 224.633 87.9931 224.47ZM93.3271 224.392L93.8535 222.611L97.8435 220.544L99.5537 221.014L96.1053 222.985L95.1804 223.405L93.3271 224.392ZM91.791 225.429L94.1174 216.969L95.5426 217.361L93.2162 225.821L91.791 225.429ZM96.3859 226.692L94.9181 223.333L96.1324 222.441L98.1189 227.169L96.3859 226.692ZM106.024 229.465C105.401 229.294 104.854 229.037 104.384 228.695C103.924 228.348 103.55 227.939 103.263 227.467C102.977 226.988 102.797 226.468 102.722 225.908C102.648 225.348 102.692 224.772 102.855 224.179C103.018 223.586 103.275 223.068 103.625 222.625C103.976 222.181 104.396 221.831 104.883 221.573C105.381 221.309 105.919 221.15 106.498 221.097C107.079 221.036 107.681 221.091 108.305 221.262C108.981 221.448 109.559 221.726 110.038 222.095C110.525 222.466 110.896 222.915 111.151 223.443L109.965 224.098C109.739 223.701 109.464 223.38 109.139 223.135C108.823 222.885 108.449 222.7 108.016 222.581C107.597 222.466 107.191 222.428 106.796 222.466C106.401 222.505 106.04 222.614 105.713 222.794C105.385 222.974 105.102 223.215 104.864 223.517C104.633 223.821 104.461 224.179 104.348 224.589C104.237 224.992 104.203 225.384 104.246 225.763C104.297 226.145 104.415 226.501 104.603 226.83C104.792 227.152 105.043 227.429 105.355 227.662C105.667 227.895 106.036 228.07 106.462 228.187C106.857 228.296 107.254 228.34 107.652 228.319C108.06 228.292 108.472 228.176 108.888 227.972L109.427 229.31C108.917 229.529 108.361 229.65 107.758 229.672C107.165 229.689 106.587 229.62 106.024 229.465ZM108.078 228.73L108.9 225.743L110.302 226.129L109.427 229.31L108.078 228.73ZM114.749 231.742L115.088 230.51L115.08 230.226L115.672 228.071C115.787 227.653 115.751 227.296 115.563 226.999C115.377 226.694 115.029 226.472 114.52 226.332C114.178 226.238 113.825 226.198 113.461 226.212C113.105 226.229 112.787 226.301 112.507 226.428L112.233 225.237C112.629 225.076 113.068 224.996 113.55 224.998C114.041 224.994 114.53 225.059 115.017 225.193C115.899 225.435 116.52 225.835 116.882 226.393C117.254 226.944 117.318 227.661 117.076 228.543L116.094 232.112L114.749 231.742ZM112.812 231.295C112.356 231.169 111.977 230.984 111.677 230.738C111.379 230.484 111.172 230.194 111.058 229.868C110.953 229.537 110.948 229.196 111.044 228.847C111.138 228.505 111.303 228.219 111.538 227.989C111.78 227.761 112.11 227.619 112.526 227.562C112.942 227.504 113.458 227.561 114.074 227.73L115.841 228.216L115.581 229.162L113.916 228.704C113.43 228.571 113.081 228.561 112.87 228.674C112.661 228.78 112.525 228.947 112.462 229.175C112.391 229.434 112.437 229.667 112.601 229.876C112.764 230.084 113.028 230.238 113.393 230.339C113.743 230.435 114.077 230.441 114.394 230.356C114.719 230.274 114.985 230.094 115.193 229.816L115.197 230.737C114.962 231.056 114.639 231.266 114.227 231.365C113.823 231.467 113.351 231.443 112.812 231.295ZM117.923 232.615L119.598 226.526L120.954 226.899L120.494 228.575L120.469 228.041C120.764 227.681 121.135 227.448 121.581 227.341C122.035 227.237 122.554 227.266 123.14 227.427L122.767 228.783C122.71 228.751 122.655 228.728 122.602 228.714C122.551 228.691 122.498 228.673 122.445 228.658C121.906 228.51 121.432 228.551 121.025 228.783C120.62 229.007 120.332 229.43 120.161 230.054L119.349 233.007L117.923 232.615ZM125.155 234.689C124.569 234.528 124.077 234.254 123.677 233.866C123.286 233.472 123.021 233.007 122.883 232.47C122.744 231.933 122.762 231.349 122.935 230.718C123.109 230.088 123.392 229.577 123.786 229.186C124.179 228.796 124.644 228.535 125.178 228.404C125.721 228.275 126.284 228.291 126.87 228.452C127.379 228.592 127.804 228.832 128.144 229.171C128.486 229.502 128.712 229.928 128.823 230.449C128.933 230.97 128.89 231.587 128.693 232.302C128.499 233.009 128.224 233.563 127.868 233.964C127.515 234.357 127.105 234.612 126.64 234.729C126.174 234.847 125.679 234.833 125.155 234.689ZM125.661 233.516C126.003 233.61 126.328 233.618 126.636 233.539C126.952 233.462 127.229 233.301 127.468 233.056C127.714 232.813 127.891 232.498 127.998 232.11C128.106 231.715 128.116 231.354 128.026 231.027C127.946 230.694 127.79 230.414 127.558 230.187C127.334 229.962 127.05 229.802 126.708 229.708C126.366 229.614 126.038 229.605 125.722 229.682C125.414 229.761 125.137 229.922 124.89 230.165C124.653 230.402 124.481 230.718 124.372 231.113C124.265 231.501 124.252 231.861 124.332 232.194C124.42 232.529 124.576 232.809 124.8 233.034C125.032 233.261 125.319 233.422 125.661 233.516ZM127.195 235.164L127.59 233.728L128.092 232.124L128.423 230.474L129.464 226.688L130.878 227.077L128.552 235.537L127.195 235.164ZM130.299 238.483C130.002 238.401 129.72 238.27 129.45 238.09C129.181 237.91 128.972 237.705 128.822 237.476L129.681 236.584C129.79 236.752 129.925 236.9 130.086 237.026C130.248 237.152 130.424 237.242 130.614 237.294C130.872 237.365 131.099 237.358 131.294 237.272C131.489 237.187 131.697 237.011 131.917 236.745L132.49 236.044L132.651 235.904L136.434 231.156L137.802 231.532L133.143 237.327C132.828 237.731 132.515 238.033 132.207 238.235C131.905 238.438 131.596 238.553 131.278 238.58C130.967 238.609 130.641 238.577 130.299 238.483ZM132.124 236.753L131.11 229.692L132.592 230.099L133.381 235.97L132.124 236.753Z" fill="url(#paint16_angular_36_14)"/>
<path d="M156.917 243.337L158.955 235.926L159.42 236.778L157.083 236.135L157.425 234.892L160.594 235.764L158.399 243.745L156.917 243.337ZM159.88 244.152L160.153 243.16L164.15 241.022C164.485 240.844 164.743 240.678 164.925 240.523C165.106 240.369 165.238 240.217 165.32 240.068C165.412 239.913 165.477 239.764 165.517 239.619C165.617 239.254 165.569 238.939 165.373 238.672C165.178 238.398 164.838 238.194 164.351 238.06C163.964 237.954 163.592 237.925 163.235 237.974C162.885 238.025 162.558 238.16 162.253 238.378L161.435 237.295C161.861 236.962 162.368 236.754 162.955 236.671C163.552 236.581 164.177 236.626 164.831 236.806C165.409 236.965 165.884 237.198 166.258 237.505C166.641 237.807 166.899 238.16 167.033 238.565C167.175 238.971 167.181 239.411 167.051 239.882C166.98 240.14 166.875 240.389 166.736 240.629C166.598 240.861 166.396 241.091 166.128 241.32C165.861 241.549 165.497 241.789 165.036 242.038L161.599 243.877L161.445 243.233L166.108 244.516L165.763 245.77L159.88 244.152ZM165.573 246.944L172.289 237.238L173.566 237.589L166.85 247.295L165.573 246.944ZM170.859 247.171L171.131 246.179L175.129 244.041C175.464 243.863 175.722 243.697 175.903 243.542C176.085 243.388 176.217 243.236 176.299 243.087C176.39 242.932 176.456 242.783 176.496 242.638C176.596 242.273 176.548 241.958 176.351 241.691C176.157 241.417 175.816 241.213 175.33 241.079C174.942 240.972 174.57 240.944 174.213 240.993C173.864 241.044 173.537 241.179 173.231 241.397L172.413 240.314C172.84 239.981 173.347 239.773 173.934 239.689C174.531 239.6 175.156 239.645 175.81 239.825C176.387 239.984 176.863 240.217 177.236 240.524C177.619 240.826 177.878 241.179 178.012 241.584C178.153 241.99 178.159 242.429 178.03 242.901C177.959 243.159 177.854 243.408 177.714 243.648C177.577 243.88 177.374 244.11 177.107 244.339C176.84 244.568 176.475 244.807 176.014 245.057L172.578 246.896L172.423 246.252L177.087 247.535L176.742 248.789L170.859 247.171ZM177.815 247.134L178.097 246.108L183.445 242.047L185.029 242.483L179.739 246.559L179.06 246.127L185.388 247.867L185.043 249.122L177.815 247.134ZM181.695 250.151L182.193 248.338L182.584 247.096L183.026 245.489L184.417 245.871L183.131 250.546L181.695 250.151Z" fill="url(#paint17_angular_36_14)"/>
<g filter="url(#filter1_b_36_14)">
<path d="M104.691 121.552C105.845 117.354 110.184 114.887 114.382 116.041L152.387 126.492C156.585 127.647 159.053 131.985 157.898 136.183L151.628 158.987C150.473 163.185 146.134 165.652 141.936 164.498L103.931 154.047C99.733 152.892 97.2657 148.554 98.4201 144.356L104.691 121.552Z" fill="url(#paint18_angular_36_14)"/>
<path d="M114.251 116.516L152.257 126.967C156.192 128.049 158.505 132.117 157.423 136.053L151.153 158.856C150.07 162.792 146.003 165.105 142.067 164.023L104.062 153.572C100.126 152.49 97.8129 148.422 98.8951 144.486L105.166 121.683C106.248 117.747 110.316 115.434 114.251 116.516Z" stroke="#232323" stroke-opacity="0.3" stroke-width="0.985405"/>
</g>
<path d="M119.346 118.428L120.297 118.69L110.368 154.795L109.418 154.534L112.553 143.132L100.677 139.866L100.938 138.916L112.815 142.182L115.95 130.78L104.073 127.514L104.334 126.564L116.211 129.83L119.346 118.428Z" fill="#232323" fill-opacity="0.3"/>
<path d="M139.894 149.628L152.245 153.025L151.984 153.975L139.632 150.578L136.497 161.98L135.547 161.719L140.772 142.716C141.638 139.567 144.892 137.717 148.041 138.583L155.642 140.673L155.381 141.623L147.779 139.533C145.156 138.811 142.444 140.353 141.722 142.977L139.894 149.628Z" fill="#232323" fill-opacity="0.3"/>
<path d="M146.425 125.875L145.475 125.613L143.385 133.215L144.335 133.476L146.425 125.875Z" fill="#232323" fill-opacity="0.3"/>
<path fill-rule="evenodd" clip-rule="evenodd" d="M134.81 142.098C133.8 145.772 130.004 147.931 126.33 146.92C122.657 145.91 120.498 142.114 121.508 138.441C122.518 134.767 126.315 132.608 129.988 133.619C133.661 134.629 135.82 138.425 134.81 142.098ZM133.86 141.837C132.994 144.986 129.74 146.836 126.592 145.97C123.443 145.105 121.593 141.85 122.458 138.702C123.324 135.553 126.578 133.703 129.727 134.569C132.875 135.434 134.726 138.689 133.86 141.837Z" fill="#232323" fill-opacity="0.3"/>
<g clip-path="url(#clip1_36_14)">
<path d="M418.062 145.299C418.312 145.878 418.44 146.527 418.473 147.149C418.507 147.771 418.419 148.462 418.236 149.128C418.053 149.793 417.775 150.432 417.428 150.949C417.081 151.467 416.64 151.959 416.129 152.33C415.471 152.864 415.305 153.84 415.839 154.498C416.374 155.156 417.35 155.322 418.008 154.788C418.787 154.185 419.376 153.529 420.017 152.683C420.659 151.838 421.015 150.914 421.276 149.964C421.537 149.014 421.609 148.011 421.585 146.983C421.535 146.049 421.295 145.063 420.934 144.146C420.642 143.351 419.718 142.994 418.922 143.287C418.126 143.579 417.77 144.503 418.062 145.299Z" fill="url(#paint19_angular_36_14)"/>
<path d="M424.046 143.98C424.69 146.099 424.754 148.467 424.127 150.747C423.5 153.028 422.234 155.03 420.597 156.522C419.939 157.056 419.963 158.085 420.497 158.743C421.127 159.427 422.06 159.377 422.718 158.843C424.77 156.954 426.357 154.529 427.167 151.584C427.951 148.733 427.853 145.743 427.055 143.07C426.763 142.275 425.891 141.728 425.096 142.02C424.3 142.313 423.78 143.089 424.046 143.98Z" fill="url(#paint20_angular_36_14)"/>
<path d="M430.34 142.645C431.224 145.75 431.217 149.12 430.303 152.446C429.388 155.771 427.576 158.645 425.324 160.888C424.735 161.543 424.69 162.451 425.319 163.135C425.975 163.724 426.882 163.769 427.566 163.139C430.329 160.527 432.367 157.203 433.438 153.308C434.509 149.412 434.457 145.514 433.419 141.856C433.248 140.992 432.35 140.541 431.485 140.712C430.594 140.978 430.169 141.78 430.34 142.645Z" fill="url(#paint21_angular_36_14)"/>
<path d="M436.635 141.31C437.664 145.374 437.775 149.799 436.573 154.17C435.372 158.541 433.108 162.313 430.051 165.253C429.462 165.909 429.417 166.816 430.046 167.501C430.702 168.09 431.609 168.135 432.293 167.505C435.671 164.142 438.255 159.947 439.614 155.006C440.972 150.065 440.896 145.139 439.713 140.521C439.542 139.657 438.644 139.205 437.78 139.377C436.915 139.548 436.464 140.445 436.635 141.31Z" fill="url(#paint22_angular_36_14)"/>
</g>
<g clip-path="url(#clip2_36_14)">
<g filter="url(#filter2_b_36_14)">
<circle cx="364.896" cy="314.85" r="18.3844" transform="rotate(15.3753 364.896 314.85)" fill="white" fill-opacity="0.3"/>
</g>
<g filter="url(#filter3_b_36_14)">
<path d="M404.604 325.769C401.912 335.559 391.793 341.313 382.003 338.621C372.213 335.929 366.459 325.81 369.151 316.02C371.843 306.23 381.962 300.476 391.752 303.168C401.542 305.86 407.296 315.979 404.604 325.769Z" fill="white" fill-opacity="0.7"/>
</g>
<g filter="url(#filter4_b_36_14)">
<path d="M379.712 303.963C374.716 306.081 370.701 310.381 369.151 316.02C367.6 321.659 368.852 327.406 372.062 331.781C377.058 329.663 381.072 325.363 382.623 319.725C384.173 314.086 382.922 308.338 379.712 303.963Z" fill="#232323" fill-opacity="0.6"/>
</g>
</g>
<path d="M133.466 55.1724L129.698 68.8742L127.49 68.2671L123.601 57.1587L123.487 57.1274L120.92 66.4605L118.438 65.7779L122.206 52.0761L124.427 52.6869L128.308 63.8001L128.429 63.8332L130.997 54.4935L133.466 55.1724ZM136.79 71.0402C135.76 70.7569 134.929 70.2981 134.297 69.6638C133.671 69.0264 133.266 68.2577 133.082 67.3579C132.899 66.4536 132.955 65.464 133.25 64.3891C133.541 63.332 133.997 62.4594 134.618 61.7715C135.245 61.0802 135.983 60.6116 136.832 60.3654C137.683 60.1149 138.599 60.1245 139.581 60.3943C140.214 60.5685 140.783 60.8354 141.289 61.1951C141.8 61.5516 142.214 62.0012 142.53 62.5439C142.851 63.0878 143.046 63.7219 143.115 64.4463C143.186 65.1661 143.097 65.9766 142.85 66.8775L142.645 67.6202L134.222 65.3039L134.671 63.6715L140.773 65.3493C140.896 64.8842 140.909 64.4441 140.812 64.0288C140.716 63.6091 140.521 63.246 140.226 62.9395C139.936 62.6342 139.559 62.4178 139.095 62.2902C138.6 62.1541 138.132 62.1549 137.691 62.2927C137.252 62.4261 136.874 62.658 136.557 62.9884C136.247 63.3156 136.026 63.7082 135.895 64.1664L135.503 65.5914C135.339 66.1891 135.307 66.7321 135.408 67.2204C135.51 67.7042 135.726 68.1138 136.056 68.4492C136.387 68.7801 136.816 69.018 137.342 69.1627C137.694 69.2596 138.027 69.2982 138.339 69.2786C138.653 69.2545 138.942 69.1732 139.205 69.0345C139.469 68.8959 139.694 68.6964 139.881 68.4359L142.072 69.312C141.765 69.8704 141.35 70.3174 140.825 70.6531C140.307 70.9855 139.704 71.1891 139.017 71.2639C138.331 71.3343 137.588 71.2597 136.79 71.0402ZM148.049 62.8669L149.08 67.2306L152.23 64.0167L154.793 64.7213L150.282 69.0077L152.02 75.0124L149.471 74.3115L148.314 70.0138L145.143 73.1212L142.574 72.4147L147.118 68.1375L145.48 62.1604L148.049 62.8669ZM161.579 72.992L163.216 67.0376L165.638 67.7035L162.812 77.9799L160.464 77.3342L160.966 75.5077L160.859 75.4783C160.469 75.9899 159.958 76.3555 159.327 76.5753C158.7 76.7963 158 76.8008 157.229 76.5886C156.555 76.4034 156.001 76.0902 155.566 75.6491C155.136 75.2048 154.856 74.6551 154.724 74C154.594 73.3404 154.641 72.6003 154.867 71.7796L156.666 65.2365L159.088 65.9025L157.392 72.0709C157.213 72.7221 157.249 73.2886 157.5 73.7703C157.751 74.252 158.167 74.5726 158.747 74.732C159.104 74.8301 159.473 74.8382 159.856 74.7562C160.238 74.6743 160.583 74.491 160.892 74.2064C161.206 73.9186 161.435 73.5138 161.579 72.992ZM175.503 73.3381L173.229 72.9718C173.228 72.7317 173.177 72.492 173.074 72.2528C172.977 72.0148 172.815 71.8001 172.59 71.6085C172.364 71.417 172.064 71.2697 171.689 71.1666C171.185 71.0281 170.731 71.0208 170.328 71.1449C169.929 71.2703 169.684 71.5075 169.592 71.8566C169.506 72.1542 169.548 72.4274 169.72 72.676C169.896 72.9259 170.228 73.1828 170.717 73.4467L172.367 74.3034C173.281 74.7804 173.913 75.3114 174.26 75.8963C174.612 76.4825 174.689 77.1442 174.492 77.8813C174.309 78.5268 173.963 79.0456 173.452 79.4377C172.947 79.8265 172.326 80.0684 171.59 80.1634C170.854 80.2585 170.058 80.1882 169.201 79.9527C167.943 79.6069 167.003 79.0653 166.381 78.328C165.76 77.5863 165.506 76.7224 165.618 75.7364L168.043 76.1583C168.022 76.6516 168.153 77.0643 168.436 77.3964C168.719 77.7284 169.139 77.9711 169.697 78.1244C170.272 78.2827 170.766 78.2914 171.179 78.1507C171.597 78.0112 171.853 77.7675 171.949 77.4196C172.03 77.1252 171.983 76.8508 171.808 76.5965C171.638 76.3434 171.33 76.1005 170.886 75.8679L169.234 75.018C168.305 74.5417 167.671 73.9955 167.332 73.3794C166.994 72.7587 166.93 72.0744 167.14 71.3263C167.31 70.6917 167.633 70.1903 168.108 69.8221C168.589 69.4507 169.177 69.2237 169.871 69.1412C170.571 69.0554 171.332 69.1254 172.152 69.3511C173.357 69.6822 174.234 70.1993 174.784 70.9023C175.339 71.6066 175.579 72.4185 175.503 73.3381Z" fill="url(#paint23_angular_36_14)"/>
</g>
<rect x="83.7083" y="13.4693" width="422.961" height="265.296" rx="19.3264" transform="rotate(15.3753 83.7083 13.4693)" stroke="black" stroke-width="0.763467" shape-rendering="crispEdges"/>
</g>
<defs>
<filter id="filter0_d_36_14" x="-3.85393" y="-3.75188" width="512.606" height="402.387" filterUnits="userSpaceOnUse" color-interpolation-filters="sRGB">
<feFlood flood-opacity="0" result="BackgroundImageFix"/>
<feColorMatrix in="SourceAlpha" type="matrix" values="0 0 0 0 0 0 0 0 0 0 0 0 0 0 0 0 0 0 127 0" result="hardAlpha"/>
<feOffset/>
<feGaussianBlur stdDeviation="8.37594"/>
<feComposite in2="hardAlpha" operator="out"/>
<feColorMatrix type="matrix" values="0 0 0 0 0 0 0 0 0 0 0 0 0 0 0 0 0 0 0.15 0"/>
<feBlend mode="normal" in2="BackgroundImageFix" result="effect1_dropShadow_36_14"/>
<feBlend mode="normal" in="SourceGraphic" in2="effect1_dropShadow_36_14" result="shape"/>
</filter>
<filter id="filter1_b_36_14" x="85.8182" y="103.44" width="84.682" height="73.6597" filterUnits="userSpaceOnUse" color-interpolation-filters="sRGB">
<feFlood flood-opacity="0" result="BackgroundImageFix"/>
<feGaussianBlur in="BackgroundImageFix" stdDeviation="6.15878"/>
<feComposite in2="SourceAlpha" operator="in" result="effect1_backgroundBlur_36_14"/>
<feBlend mode="normal" in="SourceGraphic" in2="effect1_backgroundBlur_36_14" result="shape"/>
</filter>
<filter id="filter2_b_36_14" x="321.872" y="271.826" width="86.0486" height="86.0484" filterUnits="userSpaceOnUse" color-interpolation-filters="sRGB">
<feFlood flood-opacity="0" result="BackgroundImageFix"/>
<feGaussianBlur in="BackgroundImageFix" stdDeviation="12.3176"/>
<feComposite in2="SourceAlpha" operator="in" result="effect1_backgroundBlur_36_14"/>
<feBlend mode="normal" in="SourceGraphic" in2="effect1_backgroundBlur_36_14" result="shape"/>
</filter>
<filter id="filter3_b_36_14" x="343.853" y="277.87" width="86.0486" height="86.0484" filterUnits="userSpaceOnUse" color-interpolation-filters="sRGB">
<feFlood flood-opacity="0" result="BackgroundImageFix"/>
<feGaussianBlur in="BackgroundImageFix" stdDeviation="12.3176"/>
<feComposite in2="SourceAlpha" operator="in" result="effect1_backgroundBlur_36_14"/>
<feBlend mode="normal" in="SourceGraphic" in2="effect1_backgroundBlur_36_14" result="shape"/>
</filter>
<filter id="filter4_b_36_14" x="343.853" y="279.328" width="64.0676" height="77.0885" filterUnits="userSpaceOnUse" color-interpolation-filters="sRGB">
<feFlood flood-opacity="0" result="BackgroundImageFix"/>
<feGaussianBlur in="BackgroundImageFix" stdDeviation="12.3176"/>
<feComposite in2="SourceAlpha" operator="in" result="effect1_backgroundBlur_36_14"/>
<feBlend mode="normal" in="SourceGraphic" in2="effect1_backgroundBlur_36_14" result="shape"/>
</filter>
<radialGradient id="paint0_angular_36_14" cx="0" cy="0" r="1" gradientUnits="userSpaceOnUse" gradientTransform="translate(246.097 220.964) rotate(105.375) scale(9.58306 181.241)">
<stop stop-color="#BF953F"/>
<stop offset="0.249328" stop-color="#FCF6BA"/>
<stop offset="0.497926" stop-color="#B38728"/>
<stop offset="0.747546" stop-color="#FBF5B7"/>
<stop offset="1" stop-color="#AA771C"/>
</radialGradient>
<radialGradient id="paint1_angular_36_14" cx="0" cy="0" r="1" gradientUnits="userSpaceOnUse" gradientTransform="translate(246.097 220.964) rotate(105.375) scale(9.58306 181.241)">
<stop stop-color="#BF953F"/>
<stop offset="0.249328" stop-color="#FCF6BA"/>
<stop offset="0.497926" stop-color="#B38728"/>
<stop offset="0.747546" stop-color="#FBF5B7"/>
<stop offset="1" stop-color="#AA771C"/>
</radialGradient>
<radialGradient id="paint2_angular_36_14" cx="0" cy="0" r="1" gradientUnits="userSpaceOnUse" gradientTransform="translate(246.097 220.964) rotate(105.375) scale(9.58306 181.241)">
<stop stop-color="#BF953F"/>
<stop offset="0.249328" stop-color="#FCF6BA"/>
<stop offset="0.497926" stop-color="#B38728"/>
<stop offset="0.747546" stop-color="#FBF5B7"/>
<stop offset="1" stop-color="#AA771C"/>
</radialGradient>
<radialGradient id="paint3_angular_36_14" cx="0" cy="0" r="1" gradientUnits="userSpaceOnUse" gradientTransform="translate(246.097 220.964) rotate(105.375) scale(9.58306 181.241)">
<stop stop-color="#BF953F"/>
<stop offset="0.249328" stop-color="#FCF6BA"/>
<stop offset="0.497926" stop-color="#B38728"/>
<stop offset="0.747546" stop-color="#FBF5B7"/>
<stop offset="1" stop-color="#AA771C"/>
</radialGradient>
<radialGradient id="paint4_angular_36_14" cx="0" cy="0" r="1" gradientUnits="userSpaceOnUse" gradientTransform="translate(246.097 220.964) rotate(105.375) scale(9.58306 181.241)">
<stop stop-color="#BF953F"/>
<stop offset="0.249328" stop-color="#FCF6BA"/>
<stop offset="0.497926" stop-color="#B38728"/>
<stop offset="0.747546" stop-color="#FBF5B7"/>
<stop offset="1" stop-color="#AA771C"/>
</radialGradient>
<radialGradient id="paint5_angular_36_14" cx="0" cy="0" r="1" gradientUnits="userSpaceOnUse" gradientTransform="translate(246.097 220.964) rotate(105.375) scale(9.58306 181.241)">
<stop stop-color="#BF953F"/>
<stop offset="0.249328" stop-color="#FCF6BA"/>
<stop offset="0.497926" stop-color="#B38728"/>
<stop offset="0.747546" stop-color="#FBF5B7"/>
<stop offset="1" stop-color="#AA771C"/>
</radialGradient>
<radialGradient id="paint6_angular_36_14" cx="0" cy="0" r="1" gradientUnits="userSpaceOnUse" gradientTransform="translate(246.097 220.964) rotate(105.375) scale(9.58306 181.241)">
<stop stop-color="#BF953F"/>
<stop offset="0.249328" stop-color="#FCF6BA"/>
<stop offset="0.497926" stop-color="#B38728"/>
<stop offset="0.747546" stop-color="#FBF5B7"/>
<stop offset="1" stop-color="#AA771C"/>
</radialGradient>
<radialGradient id="paint7_angular_36_14" cx="0" cy="0" r="1" gradientUnits="userSpaceOnUse" gradientTransform="translate(246.097 220.964) rotate(105.375) scale(9.58306 181.241)">
<stop stop-color="#BF953F"/>
<stop offset="0.249328" stop-color="#FCF6BA"/>
<stop offset="0.497926" stop-color="#B38728"/>
<stop offset="0.747546" stop-color="#FBF5B7"/>
<stop offset="1" stop-color="#AA771C"/>
</radialGradient>
<radialGradient id="paint8_angular_36_14" cx="0" cy="0" r="1" gradientUnits="userSpaceOnUse" gradientTransform="translate(246.097 220.964) rotate(105.375) scale(9.58306 181.241)">
<stop stop-color="#BF953F"/>
<stop offset="0.249328" stop-color="#FCF6BA"/>
<stop offset="0.497926" stop-color="#B38728"/>
<stop offset="0.747546" stop-color="#FBF5B7"/>
<stop offset="1" stop-color="#AA771C"/>
</radialGradient>
<radialGradient id="paint9_angular_36_14" cx="0" cy="0" r="1" gradientUnits="userSpaceOnUse" gradientTransform="translate(246.097 220.964) rotate(105.375) scale(9.58306 181.241)">
<stop stop-color="#BF953F"/>
<stop offset="0.249328" stop-color="#FCF6BA"/>
<stop offset="0.497926" stop-color="#B38728"/>
<stop offset="0.747546" stop-color="#FBF5B7"/>
<stop offset="1" stop-color="#AA771C"/>
</radialGradient>
<radialGradient id="paint10_angular_36_14" cx="0" cy="0" r="1" gradientUnits="userSpaceOnUse" gradientTransform="translate(246.097 220.964) rotate(105.375) scale(9.58306 181.241)">
<stop stop-color="#BF953F"/>
<stop offset="0.249328" stop-color="#FCF6BA"/>
<stop offset="0.497926" stop-color="#B38728"/>
<stop offset="0.747546" stop-color="#FBF5B7"/>
<stop offset="1" stop-color="#AA771C"/>
</radialGradient>
<radialGradient id="paint11_angular_36_14" cx="0" cy="0" r="1" gradientUnits="userSpaceOnUse" gradientTransform="translate(246.097 220.964) rotate(105.375) scale(9.58306 181.241)">
<stop stop-color="#BF953F"/>
<stop offset="0.249328" stop-color="#FCF6BA"/>
<stop offset="0.497926" stop-color="#B38728"/>
<stop offset="0.747546" stop-color="#FBF5B7"/>
<stop offset="1" stop-color="#AA771C"/>
</radialGradient>
<radialGradient id="paint12_angular_36_14" cx="0" cy="0" r="1" gradientUnits="userSpaceOnUse" gradientTransform="translate(246.097 220.964) rotate(105.375) scale(9.58306 181.241)">
<stop stop-color="#BF953F"/>
<stop offset="0.249328" stop-color="#FCF6BA"/>
<stop offset="0.497926" stop-color="#B38728"/>
<stop offset="0.747546" stop-color="#FBF5B7"/>
<stop offset="1" stop-color="#AA771C"/>
</radialGradient>
<radialGradient id="paint13_angular_36_14" cx="0" cy="0" r="1" gradientUnits="userSpaceOnUse" gradientTransform="translate(246.097 220.964) rotate(105.375) scale(9.58306 181.241)">
<stop stop-color="#BF953F"/>
<stop offset="0.249328" stop-color="#FCF6BA"/>
<stop offset="0.497926" stop-color="#B38728"/>
<stop offset="0.747546" stop-color="#FBF5B7"/>
<stop offset="1" stop-color="#AA771C"/>
</radialGradient>
<radialGradient id="paint14_angular_36_14" cx="0" cy="0" r="1" gradientUnits="userSpaceOnUse" gradientTransform="translate(246.097 220.964) rotate(105.375) scale(9.58306 181.241)">
<stop stop-color="#BF953F"/>
<stop offset="0.249328" stop-color="#FCF6BA"/>
<stop offset="0.497926" stop-color="#B38728"/>
<stop offset="0.747546" stop-color="#FBF5B7"/>
<stop offset="1" stop-color="#AA771C"/>
</radialGradient>
<radialGradient id="paint15_angular_36_14" cx="0" cy="0" r="1" gradientUnits="userSpaceOnUse" gradientTransform="translate(246.097 220.964) rotate(105.375) scale(9.58306 181.241)">
<stop stop-color="#BF953F"/>
<stop offset="0.249328" stop-color="#FCF6BA"/>
<stop offset="0.497926" stop-color="#B38728"/>
<stop offset="0.747546" stop-color="#FBF5B7"/>
<stop offset="1" stop-color="#AA771C"/>
</radialGradient>
<radialGradient id="paint16_angular_36_14" cx="0" cy="0" r="1" gradientUnits="userSpaceOnUse" gradientTransform="translate(104.427 224.755) rotate(105.375) scale(7 37.745)">
<stop stop-color="#BF953F"/>
<stop offset="0.249328" stop-color="#FCF6BA"/>
<stop offset="0.497926" stop-color="#B38728"/>
<stop offset="0.747546" stop-color="#FBF5B7"/>
<stop offset="1" stop-color="#AA771C"/>
</radialGradient>
<radialGradient id="paint17_angular_36_14" cx="0" cy="0" r="1" gradientUnits="userSpaceOnUse" gradientTransform="translate(171.144 243.101) rotate(105.375) scale(7 16.9579)">
<stop stop-color="#BF953F"/>
<stop offset="0.249328" stop-color="#FCF6BA"/>
<stop offset="0.497926" stop-color="#B38728"/>
<stop offset="0.747546" stop-color="#FBF5B7"/>
<stop offset="1" stop-color="#AA771C"/>
</radialGradient>
<radialGradient id="paint18_angular_36_14" cx="0" cy="0" r="1" gradientUnits="userSpaceOnUse" gradientTransform="translate(128.159 140.27) rotate(105.375) scale(19.7081 30.1865)">
<stop stop-color="#BF953F"/>
<stop offset="0.249328" stop-color="#FCF6BA"/>
<stop offset="0.497926" stop-color="#B38728"/>
<stop offset="0.747546" stop-color="#FBF5B7"/>
<stop offset="1" stop-color="#AA771C"/>
</radialGradient>
<radialGradient id="paint19_angular_36_14" cx="0" cy="0" r="1" gradientUnits="userSpaceOnUse" gradientTransform="translate(428.206 151.869) rotate(105.375) scale(14.7811 12.9438)">
<stop stop-color="#BF953F"/>
<stop offset="0.249328" stop-color="#FCF6BA"/>
<stop offset="0.497926" stop-color="#B38728"/>
<stop offset="0.747546" stop-color="#FBF5B7"/>
<stop offset="1" stop-color="#AA771C"/>
</radialGradient>
<radialGradient id="paint20_angular_36_14" cx="0" cy="0" r="1" gradientUnits="userSpaceOnUse" gradientTransform="translate(428.206 151.869) rotate(105.375) scale(14.7811 12.9438)">
<stop stop-color="#BF953F"/>
<stop offset="0.249328" stop-color="#FCF6BA"/>
<stop offset="0.497926" stop-color="#B38728"/>
<stop offset="0.747546" stop-color="#FBF5B7"/>
<stop offset="1" stop-color="#AA771C"/>
</radialGradient>
<radialGradient id="paint21_angular_36_14" cx="0" cy="0" r="1" gradientUnits="userSpaceOnUse" gradientTransform="translate(428.206 151.869) rotate(105.375) scale(14.7811 12.9438)">
<stop stop-color="#BF953F"/>
<stop offset="0.249328" stop-color="#FCF6BA"/>
<stop offset="0.497926" stop-color="#B38728"/>
<stop offset="0.747546" stop-color="#FBF5B7"/>
<stop offset="1" stop-color="#AA771C"/>
</radialGradient>
<radialGradient id="paint22_angular_36_14" cx="0" cy="0" r="1" gradientUnits="userSpaceOnUse" gradientTransform="translate(428.206 151.869) rotate(105.375) scale(14.7811 12.9438)">
<stop stop-color="#BF953F"/>
<stop offset="0.249328" stop-color="#FCF6BA"/>
<stop offset="0.497926" stop-color="#B38728"/>
<stop offset="0.747546" stop-color="#FBF5B7"/>
<stop offset="1" stop-color="#AA771C"/>
</radialGradient>
<radialGradient id="paint23_angular_36_14" cx="0" cy="0" r="1" gradientUnits="userSpaceOnUse" gradientTransform="translate(148.002 66.1289) rotate(105.375) scale(11.5 32.8217)">
<stop stop-color="#BF953F"/>
<stop offset="0.249328" stop-color="#FCF6BA"/>
<stop offset="0.497926" stop-color="#B38728"/>
<stop offset="0.747546" stop-color="#FBF5B7"/>
<stop offset="1" stop-color="#AA771C"/>
</radialGradient>
<clipPath id="clip0_36_14">
<rect x="83.4414" y="13" width="423.724" height="266.059" rx="19.7081" transform="rotate(15.3753 83.4414 13)" fill="white"/>
</clipPath>
<clipPath id="clip1_36_14">
<rect width="31.533" height="31.533" fill="white" transform="translate(417.19 132.488) rotate(15.3753)"/>
</clipPath>
<clipPath id="clip2_36_14">
<rect x="346.514" y="284.627" width="73.5377" height="49.2702" rx="3.94162" transform="rotate(15.3753 346.514 284.627)" fill="white"/>
</clipPath>
</defs>
</svg>
