<svg width="461" height="300" viewBox="0 0 461 300" fill="none" xmlns="http://www.w3.org/2000/svg">
<g filter="url(#filter0_d_164_345)">
<g clip-path="url(#clip0_164_345)">
<rect x="16" y="16" width="429" height="268" rx="36.64" fill="black"/>
<g opacity="0.8">
<path d="M497.271 348.353C504.922 341.34 521.18 325.783 525.005 319.663L467.624 258.457L408.331 194.382L382.509 166.648L357.644 141.783C355.413 139.232 350.185 133.749 347.125 132.219C344.064 130.689 338.836 131.582 336.605 132.219L325.129 142.739C323.853 143.695 320.538 147.329 317.478 154.215C314.418 161.101 321.303 172.386 325.129 177.167L335.648 188.644L445.628 309.143L477.188 343.571C479.738 346.122 485.412 351.605 487.708 353.135C490.003 354.665 495.04 350.585 497.271 348.353Z" stroke="url(#paint0_linear_164_345)"/>
<path d="M58.3077 281.673L58.3077 239.33L176.895 112.136C201.441 86.9521 255.124 31.6116 273.486 11.7196C291.848 -8.17239 296.438 3.43127 296.438 11.7196L296.438 76.7511L127.165 251.762L96.5617 285.234C76.6696 308.952 71.6966 312.331 71.6966 311.056C60.2204 311.821 57.9889 291.786 58.3077 281.673Z" stroke="url(#paint1_linear_164_345)"/>
<path d="M306.958 11.7196L306.958 76.7511L525.005 309.143C527.555 312.331 534.186 314.69 540.307 298.623C541.263 294.479 542.984 283.513 542.219 272.802L542.219 266.107C542.538 258.138 542.411 240.86 539.35 235.504C536.29 230.149 534.25 226.897 533.612 225.941L489.62 176.211L438.934 122.656L386.335 67.1876L335.648 17.4577L319.391 3.11247C315.246 -0.394117 306.958 -3.58192 306.958 11.7196Z" stroke="url(#paint2_linear_164_345)"/>
<path d="M110.907 351.222L78.3911 320.619L222.799 168.56L259.141 134.132C260.843 134.55 264.566 135.517 265.835 136.044C270.426 137.575 276.036 143.058 278.268 145.608C280.499 148.158 284.388 155.171 282.093 162.822C279.798 170.473 263.285 190.237 255.315 199.163L110.907 351.222Z" stroke="url(#paint3_linear_164_345)"/>
</g>
<path d="M69.2986 195.083L69.2986 178.258L63.138 178.258C62.4895 178.258 61.8909 178.606 61.8909 179.499C61.8909 180.393 62.4895 180.74 63.138 180.74L66.8044 180.74L66.8044 195.083L63.138 195.083C62.4895 195.083 61.8909 195.43 61.8909 196.324C61.8909 197.217 62.4895 197.564 63.138 197.564L72.9651 197.564C73.6135 197.564 74.2121 197.217 74.2121 196.324L74.2121 190.07C74.2121 189.351 73.8879 188.83 72.9651 188.83C72.0422 188.83 71.718 189.351 71.718 190.07L71.718 195.083L69.2986 195.083Z" fill="url(#paint4_linear_164_345)"/>
<path d="M82.3364 189.152L89.37 189.152C90.1931 189.152 90.7667 189.028 91.3903 188.457C92.0886 187.812 92.1635 187.142 92.1635 186.249L92.1635 181.162C92.1635 180.268 92.0886 179.598 91.3903 178.953C90.7667 178.383 90.1931 178.258 89.37 178.258L81.0893 178.258C80.4408 178.258 79.8422 178.606 79.8422 179.499C79.8422 180.393 80.4408 180.74 81.0893 180.74L89.6693 180.74L89.6693 186.671L82.6606 186.671C80.79 186.671 79.8422 187.614 79.8422 189.475L79.8422 197.564L90.9164 197.564C91.5649 197.564 92.1635 197.217 92.1635 196.324C92.1635 195.43 91.5649 195.083 90.9164 195.083L82.3364 195.083L82.3364 189.152Z" fill="url(#paint5_linear_164_345)"/>
<path d="M107.621 180.74L107.621 184.859C107.621 186.249 107.072 186.671 106.374 186.671L101.485 186.671C100.836 186.671 100.238 187.018 100.238 187.911C100.238 188.805 100.836 189.152 101.485 189.152L106.374 189.152C107.072 189.152 107.621 189.574 107.621 190.964L107.621 195.083L99.0406 195.083C98.3921 195.083 97.7935 195.43 97.7935 196.324C97.7935 197.217 98.3921 197.564 99.0406 197.564L107.621 197.564C109.042 197.564 110.115 196.497 110.115 195.083L110.115 190.318C110.115 189.326 109.915 188.606 109.142 187.911C109.915 187.217 110.115 186.497 110.115 185.504L110.115 180.74C110.115 179.325 109.042 178.258 107.621 178.258L99.0406 178.258C98.3921 178.258 97.7935 178.606 97.7935 179.499C97.7935 180.393 98.3921 180.74 99.0406 180.74L107.621 180.74Z" fill="url(#paint6_linear_164_345)"/>
<path d="M119.486 188.78L119.486 179.499C119.486 178.879 119.187 178.258 118.239 178.258C117.291 178.258 116.992 178.879 116.992 179.499L116.992 191.261L124.325 191.261L124.325 196.324C124.325 197.118 124.674 197.564 125.572 197.564C126.47 197.564 126.819 197.118 126.819 196.324L126.819 191.261C127.467 191.261 128.066 190.914 128.066 190.021C128.066 189.127 127.467 188.78 126.819 188.78L126.819 181.608C126.819 180.988 126.52 180.368 125.572 180.368C124.624 180.368 124.325 180.988 124.325 181.608L124.325 188.78L119.486 188.78Z" fill="url(#paint7_linear_164_345)"/>
<path d="M156.611 180.74L162.722 180.74C163.37 180.74 163.969 180.393 163.969 179.499C163.969 178.606 163.37 178.258 162.722 178.258L154.117 178.258L154.117 189.152L161.475 189.152L161.475 195.083L155.713 195.083C155.314 195.083 154.74 194.735 154.391 194.587L153.643 194.264C153.368 194.14 153.144 194.065 152.845 194.065C152.196 194.065 151.647 194.661 151.647 195.306C151.647 196.175 152.396 196.398 153.069 196.696L154.017 197.118C154.64 197.391 155.015 197.564 155.663 197.564L161.2 197.564C162.098 197.564 162.747 197.465 163.37 196.721C163.894 196.1 163.969 195.554 163.969 194.785L163.969 189.475C163.969 188.606 163.894 188.011 163.196 187.365C162.597 186.795 161.998 186.671 161.2 186.671L156.611 186.671L156.611 180.74Z" fill="url(#paint8_linear_164_345)"/>
<path d="M172.093 180.74C172.816 180.74 173.34 180.244 173.34 179.499C173.34 178.854 172.816 178.258 172.168 178.258L170.671 178.258C169.798 178.258 169.599 178.928 169.599 179.499L169.599 196.001C169.599 197.143 170.048 197.564 171.22 197.564L180.299 197.564C181.421 197.564 181.92 197.167 181.92 196.001L181.92 190.443C181.92 189.301 181.671 188.78 180.424 188.78L172.093 188.78L172.093 180.74ZM179.426 191.261L179.426 195.083L172.093 195.083L172.093 191.261L179.426 191.261Z" fill="url(#paint9_linear_164_345)"/>
<path d="M197.377 180.74L197.377 184.164C197.377 185.256 197.427 185.231 196.604 185.951L193.162 188.904C192.538 189.45 192.514 189.524 192.514 190.343L192.514 196.324C192.514 197.118 192.863 197.564 193.761 197.564C194.659 197.564 195.008 197.118 195.008 196.324L195.008 191.51C195.008 190.641 195.058 190.591 195.706 190.021L199.198 187.018C199.896 186.423 199.871 186.323 199.871 185.455L199.871 178.258L188.797 178.258C187.999 178.258 187.55 178.953 187.55 179.499L187.55 180.74C187.55 181.286 187.999 181.981 188.797 181.981C189.595 181.981 190.044 181.286 190.044 180.74L197.377 180.74Z" fill="url(#paint10_linear_164_345)"/>
<path d="M210.49 186.671L210.49 180.74L212.834 180.74L212.834 186.671L210.49 186.671ZM209.243 178.258C208.395 178.258 207.996 178.854 207.996 179.499L207.996 186.671C207.222 186.671 206.624 186.944 206.175 187.365C205.726 187.787 205.501 188.408 205.501 189.177L205.501 195.083C205.501 196.597 206.449 197.564 207.996 197.564L215.329 197.564C216.875 197.564 217.823 196.597 217.823 195.083L217.823 189.177C217.823 188.408 217.598 187.787 217.149 187.365C216.7 186.944 216.102 186.671 215.329 186.671L215.329 179.499C215.329 178.854 214.929 178.258 214.081 178.258L209.243 178.258ZM207.996 195.083L207.996 189.152L215.329 189.152L215.329 195.083L207.996 195.083Z" fill="url(#paint11_linear_164_345)"/>
<path d="M251.231 195.083C250.508 195.083 249.984 195.579 249.984 196.324C249.984 196.994 250.483 197.564 251.231 197.564L252.478 197.564C253.226 197.564 253.725 196.994 253.725 196.324L253.725 179.499C253.725 178.854 253.177 178.258 252.478 178.258L242.651 178.258C241.953 178.258 241.404 178.854 241.404 179.499L241.404 185.852C241.404 186.497 241.953 187.093 242.651 187.093L251.231 187.093L251.231 195.083ZM243.898 184.611L243.898 180.74L251.231 180.74L251.231 184.611L243.898 184.611Z" fill="url(#paint12_linear_164_345)"/>
<path d="M261.85 178.258C260.478 178.258 259.355 179.375 259.355 180.74L259.355 195.083C259.355 196.473 260.428 197.564 261.85 197.564L269.182 197.564C270.604 197.564 271.677 196.473 271.677 195.083L271.677 180.74C271.677 179.375 270.554 178.258 269.182 178.258L261.85 178.258ZM261.85 195.083L261.85 180.74L269.182 180.74L269.182 195.083L261.85 195.083Z" fill="url(#paint13_linear_164_345)"/>
<path d="M279.801 178.258C278.429 178.258 277.307 179.375 277.307 180.74L277.307 195.083C277.307 196.473 278.379 197.564 279.801 197.564L287.134 197.564C288.555 197.564 289.628 196.473 289.628 195.083L289.628 180.74C289.628 179.375 288.506 178.258 287.134 178.258L279.801 178.258ZM279.801 195.083L279.801 180.74L287.134 180.74L287.134 195.083L279.801 195.083Z" fill="url(#paint14_linear_164_345)"/>
<path d="M297.752 178.258C296.38 178.258 295.258 179.375 295.258 180.74L295.258 195.083C295.258 196.473 296.331 197.564 297.752 197.564L305.085 197.564C306.507 197.564 307.579 196.473 307.579 195.083L307.579 180.74C307.579 179.375 306.457 178.258 305.085 178.258L297.752 178.258ZM297.752 195.083L297.752 180.74L305.085 180.74L305.085 195.083L297.752 195.083Z" fill="url(#paint15_linear_164_345)"/>
<path d="M333.655 178.258C332.283 178.258 331.161 179.375 331.161 180.74L331.161 195.083C331.161 196.473 332.233 197.564 333.655 197.564L340.988 197.564C342.409 197.564 343.482 196.473 343.482 195.083L343.482 180.74C343.482 179.375 342.36 178.258 340.988 178.258L333.655 178.258ZM333.655 195.083L333.655 180.74L340.988 180.74L340.988 195.083L333.655 195.083Z" fill="url(#paint16_linear_164_345)"/>
<path d="M351.606 178.258C350.234 178.258 349.112 179.375 349.112 180.74L349.112 195.083C349.112 196.473 350.184 197.564 351.606 197.564L358.939 197.564C360.361 197.564 361.433 196.473 361.433 195.083L361.433 180.74C361.433 179.375 360.311 178.258 358.939 178.258L351.606 178.258ZM351.606 195.083L351.606 180.74L358.939 180.74L358.939 195.083L351.606 195.083Z" fill="url(#paint17_linear_164_345)"/>
<path d="M369.557 178.258C368.186 178.258 367.063 179.375 367.063 180.74L367.063 195.083C367.063 196.473 368.136 197.564 369.557 197.564L376.89 197.564C378.312 197.564 379.385 196.473 379.385 195.083L379.385 180.74C379.385 179.375 378.262 178.258 376.89 178.258L369.557 178.258ZM369.557 195.083L369.557 180.74L376.89 180.74L376.89 195.083L369.557 195.083Z" fill="url(#paint18_linear_164_345)"/>
<path d="M387.509 178.258C386.137 178.258 385.015 179.375 385.015 180.74L385.015 195.083C385.015 196.473 386.087 197.564 387.509 197.564L394.842 197.564C396.263 197.564 397.336 196.473 397.336 195.083L397.336 180.74C397.336 179.375 396.213 178.258 394.842 178.258L387.509 178.258ZM387.509 195.083L387.509 180.74L394.842 180.74L394.842 195.083L387.509 195.083Z" fill="url(#paint19_linear_164_345)"/>
<path d="M58.0142 230.37L58.0142 222.817L59.1687 222.817L62.4703 228.33L61.8661 228.33L65.1138 222.817L66.2682 222.817L66.279 230.37L64.9519 230.37L64.9411 224.899L65.2217 224.899L62.4595 229.506L61.8337 229.506L59.0284 224.899L59.3521 224.899L59.3521 230.37L58.0142 230.37ZM68.1896 230.37L68.1896 224.608L69.5383 224.608L69.5383 230.37L68.1896 230.37ZM68.8694 223.659C68.6176 223.659 68.409 223.579 68.2436 223.421C68.0853 223.263 68.0062 223.072 68.0062 222.849C68.0062 222.619 68.0853 222.429 68.2436 222.277C68.409 222.119 68.6176 222.04 68.8694 222.04C69.1211 222.04 69.3261 222.116 69.4844 222.267C69.6498 222.411 69.7325 222.594 69.7325 222.817C69.7325 223.054 69.6534 223.256 69.4952 223.421C69.3369 223.579 69.1283 223.659 68.8694 223.659ZM73.9519 230.445C73.3477 230.445 72.8082 230.319 72.3335 230.068C71.8659 229.809 71.4991 229.456 71.233 229.01C70.9668 228.564 70.8337 228.057 70.8337 227.489C70.8337 226.913 70.9668 226.406 71.233 225.967C71.4991 225.522 71.8659 225.173 72.3335 224.921C72.8082 224.669 73.3477 224.543 73.9519 224.543C74.513 224.543 75.0057 224.658 75.4301 224.889C75.8617 225.112 76.189 225.442 76.412 225.881L75.3762 226.485C75.2035 226.212 74.9913 226.011 74.7396 225.881C74.495 225.752 74.2289 225.687 73.9411 225.687C73.6103 225.687 73.3117 225.759 73.0456 225.903C72.7795 226.047 72.5709 226.255 72.4198 226.529C72.2688 226.795 72.1932 227.115 72.1932 227.489C72.1932 227.863 72.2688 228.187 72.4198 228.46C72.5709 228.726 72.7795 228.931 73.0456 229.075C73.3117 229.219 73.6103 229.291 73.9411 229.291C74.2289 229.291 74.495 229.226 74.7396 229.096C74.9913 228.967 75.2035 228.766 75.3762 228.492L76.412 229.096C76.189 229.528 75.8617 229.863 75.4301 230.1C75.0057 230.33 74.513 230.445 73.9519 230.445ZM78.6257 229.086L78.658 227.392L81.6683 224.608L83.2868 224.608L80.7296 227.176L80.0175 227.769L78.6257 229.086ZM77.5251 230.37L77.5251 222.364L78.8738 222.364L78.8738 230.37L77.5251 230.37ZM81.8733 230.37L79.7694 227.769L80.6217 226.69L83.5133 230.37L81.8733 230.37ZM91.0241 230.478C90.4342 230.478 89.8912 230.384 89.3948 230.197C88.9057 230.003 88.4777 229.733 88.1109 229.388C87.744 229.035 87.4599 228.622 87.2585 228.147C87.0571 227.672 86.9564 227.154 86.9564 226.593C86.9564 226.032 87.0571 225.514 87.2585 225.04C87.4599 224.565 87.744 224.155 88.1109 223.81C88.4849 223.457 88.9201 223.187 89.4164 223C89.9127 222.806 90.4558 222.709 91.0456 222.709C91.6858 222.709 92.2613 222.813 92.772 223.022C93.2899 223.231 93.7251 223.536 94.0775 223.939L93.1928 224.802C92.8979 224.507 92.5778 224.292 92.2325 224.155C91.8944 224.011 91.5204 223.939 91.1104 223.939C90.7148 223.939 90.3479 224.004 90.0098 224.133C89.6718 224.263 89.3805 224.446 89.1359 224.684C88.8913 224.921 88.7007 225.201 88.564 225.525C88.4346 225.849 88.3698 226.205 88.3698 226.593C88.3698 226.975 88.4346 227.327 88.564 227.651C88.7007 227.974 88.8913 228.258 89.1359 228.503C89.3805 228.74 89.6682 228.924 89.9991 229.053C90.3299 229.183 90.6968 229.248 91.0996 229.248C91.4736 229.248 91.8333 229.19 92.1785 229.075C92.531 228.953 92.8655 228.751 93.182 228.471L93.9804 229.517C93.5848 229.834 93.1244 230.075 92.5993 230.24C92.0814 230.398 91.5563 230.478 91.0241 230.478ZM92.6533 229.334L92.6533 226.507L93.9804 226.507L93.9804 229.517L92.6533 229.334ZM99.2507 230.37L99.2507 229.204L99.1752 228.956L99.1752 226.917C99.1752 226.521 99.0565 226.216 98.8191 226C98.5817 225.777 98.2221 225.665 97.7401 225.665C97.4165 225.665 97.0964 225.716 96.7799 225.816C96.4706 225.917 96.208 226.057 95.9922 226.237L95.4635 225.255C95.7728 225.018 96.1397 224.842 96.5641 224.727C96.9957 224.604 97.4416 224.543 97.902 224.543C98.7364 224.543 99.3802 224.745 99.8333 225.147C100.294 225.543 100.524 226.158 100.524 226.992L100.524 230.37L99.2507 230.37ZM97.438 230.445C97.0065 230.445 96.6288 230.373 96.3051 230.229C95.9814 230.078 95.7297 229.873 95.5499 229.614C95.3772 229.348 95.2909 229.05 95.2909 228.719C95.2909 228.395 95.3664 228.104 95.5175 227.845C95.6757 227.586 95.9311 227.381 96.2836 227.23C96.636 227.079 97.1036 227.003 97.6862 227.003L99.3586 227.003L99.3586 227.899L97.7833 227.899C97.3229 227.899 97.0136 227.974 96.8554 228.125C96.6972 228.269 96.618 228.449 96.618 228.665C96.618 228.909 96.7151 229.104 96.9093 229.248C97.1036 229.391 97.3733 229.463 97.7186 229.463C98.0494 229.463 98.3444 229.388 98.6033 229.237C98.8695 229.086 99.0601 228.863 99.1752 228.568L99.4017 229.377C99.2723 229.715 99.0385 229.978 98.7004 230.165C98.3695 230.352 97.9487 230.445 97.438 230.445ZM102.255 230.37L102.255 224.608L103.539 224.608L103.539 226.194L103.388 225.73C103.56 225.342 103.83 225.047 104.197 224.845C104.571 224.644 105.035 224.543 105.589 224.543L105.589 225.827C105.531 225.813 105.477 225.806 105.427 225.806C105.377 225.798 105.326 225.795 105.276 225.795C104.765 225.795 104.359 225.946 104.057 226.248C103.754 226.543 103.603 226.985 103.603 227.575L103.603 230.37L102.255 230.37ZM109.119 230.445C108.565 230.445 108.065 230.323 107.619 230.078C107.18 229.827 106.835 229.481 106.583 229.043C106.331 228.604 106.205 228.086 106.205 227.489C106.205 226.892 106.331 226.374 106.583 225.935C106.835 225.496 107.18 225.155 107.619 224.91C108.065 224.666 108.565 224.543 109.119 224.543C109.601 224.543 110.032 224.651 110.413 224.867C110.795 225.076 111.097 225.396 111.32 225.827C111.543 226.259 111.654 226.813 111.654 227.489C111.654 228.158 111.546 228.712 111.33 229.15C111.115 229.582 110.816 229.906 110.435 230.121C110.054 230.337 109.615 230.445 109.119 230.445ZM109.28 229.291C109.604 229.291 109.892 229.219 110.144 229.075C110.403 228.931 110.608 228.722 110.759 228.449C110.917 228.176 110.996 227.856 110.996 227.489C110.996 227.115 110.917 226.795 110.759 226.529C110.608 226.255 110.403 226.047 110.144 225.903C109.892 225.759 109.604 225.687 109.28 225.687C108.957 225.687 108.665 225.759 108.406 225.903C108.155 226.047 107.95 226.255 107.791 226.529C107.64 226.795 107.565 227.115 107.565 227.489C107.565 227.856 107.64 228.176 107.791 228.449C107.95 228.722 108.155 228.931 108.406 229.075C108.665 229.219 108.957 229.291 109.28 229.291ZM111.028 230.37L111.028 229.01L111.082 227.478L110.974 225.946L110.974 222.364L112.312 222.364L112.312 230.37L111.028 230.37ZM114.562 232.538C114.282 232.538 114.001 232.492 113.721 232.398C113.44 232.305 113.206 232.175 113.019 232.01L113.559 231.017C113.695 231.139 113.85 231.236 114.023 231.308C114.195 231.38 114.372 231.416 114.551 231.416C114.796 231.416 114.994 231.355 115.145 231.233C115.296 231.111 115.436 230.906 115.566 230.618L115.9 229.863L116.008 229.701L118.187 224.608L119.482 224.608L116.785 230.834C116.605 231.265 116.404 231.607 116.181 231.859C115.965 232.11 115.72 232.287 115.447 232.387C115.181 232.488 114.886 232.538 114.562 232.538ZM115.749 230.575L113.149 224.608L114.551 224.608L116.666 229.582L115.749 230.575Z" fill="url(#paint20_linear_164_345)"/>
<path d="M139.155 230.37L139.155 223.356L139.77 223.993L137.558 223.993L137.558 222.817L140.558 222.817L140.558 230.37L139.155 230.37ZM141.959 230.37L141.959 229.431L144.959 226.582C145.21 226.345 145.397 226.137 145.52 225.957C145.642 225.777 145.721 225.611 145.757 225.46C145.8 225.302 145.822 225.155 145.822 225.018C145.822 224.673 145.703 224.407 145.466 224.22C145.228 224.025 144.879 223.928 144.419 223.928C144.052 223.928 143.718 223.993 143.416 224.122C143.121 224.252 142.865 224.45 142.65 224.716L141.668 223.961C141.963 223.565 142.358 223.259 142.855 223.044C143.358 222.821 143.919 222.709 144.538 222.709C145.084 222.709 145.559 222.799 145.962 222.979C146.372 223.151 146.685 223.4 146.901 223.723C147.124 224.047 147.235 224.432 147.235 224.878C147.235 225.122 147.203 225.367 147.138 225.611C147.073 225.849 146.951 226.101 146.771 226.367C146.591 226.633 146.329 226.931 145.984 227.262L143.405 229.711L143.114 229.183L147.527 229.183L147.527 230.37L141.959 230.37ZM147.643 231.449L151.204 221.285L152.412 221.285L148.851 231.449L147.643 231.449ZM152.348 230.37L152.348 229.431L155.348 226.582C155.6 226.345 155.787 226.137 155.909 225.957C156.031 225.777 156.11 225.611 156.146 225.46C156.189 225.302 156.211 225.155 156.211 225.018C156.211 224.673 156.092 224.407 155.855 224.22C155.618 224.025 155.269 223.928 154.808 223.928C154.441 223.928 154.107 223.993 153.805 224.122C153.51 224.252 153.255 224.45 153.039 224.716L152.057 223.961C152.352 223.565 152.747 223.259 153.244 223.044C153.747 222.821 154.308 222.709 154.927 222.709C155.474 222.709 155.948 222.799 156.351 222.979C156.761 223.151 157.074 223.4 157.29 223.723C157.513 224.047 157.624 224.432 157.624 224.878C157.624 225.122 157.592 225.367 157.527 225.611C157.463 225.849 157.34 226.101 157.16 226.367C156.981 226.633 156.718 226.931 156.373 227.262L153.794 229.711L153.503 229.183L157.916 229.183L157.916 230.37L152.348 230.37ZM158.459 228.654L158.459 227.683L162.182 222.817L163.681 222.817L160.013 227.683L159.312 227.467L165.3 227.467L165.3 228.654L158.459 228.654ZM162.603 230.37L162.603 228.654L162.646 227.467L162.646 225.946L163.962 225.946L163.962 230.37L162.603 230.37Z" fill="url(#paint21_linear_164_345)"/>
<g filter="url(#filter1_b_164_345)">
<path d="M64.8839 129.125C64.8839 124.74 68.4573 121.184 72.8653 121.184L112.772 121.184C117.18 121.184 120.754 124.74 120.754 129.125L120.754 152.947C120.754 157.333 117.18 160.888 112.772 160.888L72.8653 160.888C68.4573 160.888 64.8839 157.333 64.8839 152.947L64.8839 129.125Z" fill="url(#paint22_linear_164_345)"/>
<path d="M72.8653 121.634L112.772 121.634C116.934 121.634 120.304 124.99 120.304 129.125L120.304 152.947C120.304 157.083 116.934 160.439 112.772 160.439L72.8653 160.439C68.7034 160.439 65.3335 157.083 65.3335 152.947L65.3335 129.125C65.3335 124.99 68.7034 121.634 72.8653 121.634Z" stroke="#232323" stroke-opacity="0.3" stroke-width="0.899131"/>
</g>
<path d="M78.3524 122.177L79.3501 122.177L79.3501 159.896L78.3524 159.896L78.3524 147.985L65.8815 147.985L65.8815 146.992L78.3524 146.992L78.3524 135.081L65.8815 135.081L65.8815 134.088L78.3524 134.088L78.3524 122.177Z" fill="#232323" fill-opacity="0.3"/>
<path d="M106.786 146.992L119.756 146.992L119.756 147.985L106.786 147.985L106.786 159.896L105.788 159.896L105.788 140.044C105.788 136.755 108.468 134.088 111.774 134.088L119.756 134.088L119.756 135.081L111.774 135.081C109.019 135.081 106.786 137.303 106.786 140.044L106.786 146.992Z" fill="#232323" fill-opacity="0.3"/>
<path d="M106.786 122.177L105.788 122.177L105.788 130.118L106.786 130.118L106.786 122.177Z" fill="#232323" fill-opacity="0.3"/>
<path fill-rule="evenodd" clip-rule="evenodd" d="M99.8024 141.036C99.8024 144.874 96.6757 147.985 92.8187 147.985C88.9617 147.985 85.835 144.874 85.835 141.036C85.835 137.199 88.9617 134.088 92.8187 134.088C96.6757 134.088 99.8024 137.199 99.8024 141.036ZM98.8047 141.036C98.8047 144.326 96.1247 146.992 92.8187 146.992C89.5127 146.992 86.8326 144.326 86.8326 141.036C86.8326 137.747 89.5127 135.081 92.8187 135.081C96.1247 135.081 98.8047 137.747 98.8047 141.036Z" fill="#232323" fill-opacity="0.3"/>
<path d="M377.177 68.4945C377.576 68.9908 377.875 69.5863 378.075 70.1819C378.274 70.7774 378.374 71.4722 378.374 72.1671C378.374 72.8619 378.274 73.5567 378.075 74.1522C377.875 74.7478 377.576 75.3434 377.177 75.8397C376.678 76.5345 376.778 77.5271 377.476 78.0234C378.174 78.5196 379.172 78.4204 379.671 77.7256C380.269 76.9315 380.669 76.1374 381.068 75.1448C381.467 74.1522 381.566 73.1597 381.566 72.1671C381.566 71.1745 381.367 70.1819 381.068 69.1893C380.768 68.2959 380.269 67.4026 379.671 66.6085C379.172 65.9137 378.174 65.8145 377.476 66.3108C376.778 66.8071 376.678 67.7997 377.177 68.4945Z" fill="url(#paint23_linear_164_345)"/>
<path d="M382.664 65.6159C383.861 67.5019 384.559 69.7848 384.559 72.1671C384.559 74.5493 383.861 76.8322 382.664 78.7182C382.165 79.413 382.464 80.4056 383.163 80.9019C383.961 81.3982 384.859 81.1004 385.358 80.4056C386.854 78.0233 387.752 75.2441 387.752 72.1671C387.752 69.1893 386.854 66.3108 385.358 63.9285C384.859 63.2337 383.861 62.9359 383.163 63.4322C382.464 63.9285 382.165 64.8219 382.664 65.6159Z" fill="url(#paint24_linear_164_345)"/>
<path d="M388.45 62.6382C390.146 65.4174 391.044 68.693 391.044 72.1671C391.044 75.6411 390.047 78.9167 388.45 81.6959C388.051 82.49 388.251 83.3834 389.049 83.8796C389.847 84.2767 390.745 84.0782 391.244 83.2841C393.239 80.0085 394.337 76.2367 394.337 72.1671C394.337 68.0974 393.239 64.3256 391.244 61.05C390.845 60.2559 389.847 60.0574 389.049 60.4545C388.251 60.9508 388.051 61.8441 388.45 62.6382Z" fill="url(#paint25_linear_164_345)"/>
<path d="M394.237 59.6604C396.332 63.333 397.629 67.6011 397.629 72.1671C397.629 76.733 396.432 81.0011 394.237 84.6737C393.838 85.4678 394.037 86.3611 394.835 86.8574C395.634 87.2545 396.531 87.0559 397.03 86.2619C399.425 82.093 400.821 77.3285 400.821 72.1671C400.821 67.0056 399.425 62.2411 397.03 58.0722C396.631 57.2782 395.634 57.0796 394.835 57.4767C394.037 57.8737 393.838 58.8663 394.237 59.6604Z" fill="url(#paint26_linear_164_345)"/>
<g filter="url(#filter2_b_164_345)">
<ellipse cx="357.485" cy="227.512" rx="16.7748" ry="16.7748" fill="#DBB22F" fill-opacity="0.3"/>
</g>
<g filter="url(#filter3_b_164_345)">
<path d="M395.061 227.512C395.061 236.777 387.55 244.287 378.286 244.287C369.021 244.287 361.511 236.777 361.511 227.512C361.511 218.248 369.021 210.738 378.286 210.738C387.55 210.738 395.061 218.248 395.061 227.512Z" fill="#DBB22F" fill-opacity="0.7"/>
</g>
<g filter="url(#filter4_b_164_345)">
<path d="M367.885 214.35C364.002 217.422 361.511 222.177 361.511 227.513C361.511 232.848 364.002 237.603 367.885 240.675C371.768 237.603 374.26 232.848 374.26 227.513C374.26 222.177 371.768 217.422 367.885 214.35Z" fill="#232323" fill-opacity="0.6"/>
</g>
<path d="M69.2137 54.0337L69.2137 67L67.1244 67L61.0148 58.168L60.9072 58.168L60.9072 67L58.5583 67L58.5583 54.0337L60.6603 54.0337L66.7635 62.8721L66.8775 62.8721L66.8775 54.0337L69.2137 54.0337ZM75.977 67.1899C75.002 67.1899 74.1599 66.9873 73.4508 66.5821C72.746 66.1727 72.2036 65.5945 71.8237 64.8474C71.4439 64.0961 71.2539 63.2118 71.2539 62.1946C71.2539 61.1943 71.4439 60.3164 71.8237 59.5609C72.2078 58.8011 72.7439 58.2102 73.4319 57.7881C74.1198 57.3618 74.9281 57.1487 75.8567 57.1487C76.4561 57.1487 77.0216 57.2458 77.5535 57.4399C78.0895 57.6298 78.5622 57.9253 78.9716 58.3263C79.3853 58.7273 79.7103 59.238 79.9466 59.8584C80.183 60.4747 80.3012 61.2091 80.3012 62.0617L80.3012 62.7644L72.3302 62.7644L72.3302 61.2196L78.1043 61.2196C78.1 60.7807 78.0051 60.3902 77.8194 60.0484C77.6337 59.7023 77.3741 59.43 77.0406 59.2316C76.7114 59.0333 76.3273 58.9341 75.8884 58.9341C75.4198 58.9341 75.0083 59.048 74.6538 59.276C74.2992 59.4997 74.0228 59.7951 73.8244 60.1623C73.6302 60.5253 73.531 60.9242 73.5268 61.3589L73.5268 62.7075C73.5268 63.273 73.6302 63.7584 73.837 64.1636C74.0439 64.5646 74.333 64.8727 74.7044 65.088C75.0759 65.299 75.5106 65.4045 76.0086 65.4045C76.3421 65.4045 76.6439 65.3581 76.914 65.2653C77.1841 65.1682 77.4184 65.0268 77.6168 64.8411C77.8151 64.6554 77.965 64.4253 78.0663 64.151L80.2062 64.3916C80.0712 64.9571 79.8137 65.451 79.4338 65.8731C79.0582 66.2909 78.577 66.6159 77.9903 66.8481C77.4036 67.076 76.7325 67.1899 75.977 67.1899ZM83.9052 57.2753L85.8679 60.8651L87.8622 57.2753L90.2871 57.2753L87.3557 62.1377L90.3377 67L87.9255 67L85.8679 63.4989L83.8292 67L81.3981 67L84.3611 62.1377L81.474 57.2753L83.9052 57.2753ZM98.258 62.9101L98.258 57.2753L100.55 57.2753L100.55 67L98.3277 67L98.3277 65.2716L98.2264 65.2716C98.0069 65.8161 97.646 66.2614 97.1437 66.6075C96.6457 66.9536 96.0315 67.1266 95.3013 67.1266C94.664 67.1266 94.1005 66.9852 93.6109 66.7024C93.1255 66.4154 92.7457 65.9997 92.4713 65.4552C92.197 64.9065 92.0598 64.2438 92.0598 63.4672L92.0598 57.2753L94.3517 57.2753L94.3517 63.1127C94.3517 63.7289 94.5205 64.2185 94.8582 64.5815C95.1958 64.9445 95.639 65.126 96.1877 65.126C96.5254 65.126 96.8525 65.0437 97.169 64.8791C97.4856 64.7144 97.7452 64.4696 97.9478 64.1446C98.1546 63.8154 98.258 63.4039 98.258 62.9101ZM110.593 59.8458L108.503 60.0737C108.444 59.8626 108.341 59.6643 108.193 59.4786C108.05 59.2928 107.856 59.143 107.611 59.029C107.366 58.9151 107.066 58.8581 106.712 58.8581C106.235 58.8581 105.834 58.9615 105.509 59.1683C105.188 59.3751 105.03 59.6432 105.034 59.9724C105.03 60.2552 105.133 60.4852 105.344 60.6625C105.559 60.8398 105.914 60.9854 106.408 61.0993L108.067 61.4539C108.987 61.6523 109.671 61.9667 110.118 62.3972C110.57 62.8278 110.797 63.3912 110.802 64.0877C110.797 64.6997 110.618 65.2399 110.264 65.7084C109.913 66.1727 109.426 66.5357 108.801 66.7974C108.176 67.0591 107.459 67.1899 106.648 67.1899C105.458 67.1899 104.5 66.9409 103.774 66.4429C103.048 65.9406 102.615 65.242 102.476 64.3472L104.711 64.132C104.812 64.5709 105.028 64.9023 105.357 65.126C105.686 65.3497 106.114 65.4615 106.642 65.4615C107.187 65.4615 107.623 65.3497 107.953 65.126C108.286 64.9023 108.453 64.6258 108.453 64.2966C108.453 64.018 108.345 63.788 108.13 63.6065C107.919 63.425 107.59 63.2857 107.142 63.1886L105.483 62.8404C104.551 62.6463 103.861 62.3191 103.413 61.8591C102.966 61.3948 102.744 60.8081 102.748 60.099C102.744 59.4997 102.907 58.9805 103.236 58.5415C103.569 58.0984 104.032 57.7565 104.622 57.5159C105.218 57.2711 105.903 57.1487 106.68 57.1487C107.82 57.1487 108.717 57.3914 109.371 57.8768C110.029 58.3622 110.437 59.0185 110.593 59.8458Z" fill="url(#paint27_linear_164_345)"/>
</g>
<rect x="16.3483" y="16.3483" width="428.303" height="267.303" rx="36.2917" stroke="black" stroke-width="0.696624"/>
</g>
<defs>
<filter id="filter0_d_164_345" x="0.714777" y="0.714777" width="459.57" height="298.57" filterUnits="userSpaceOnUse" color-interpolation-filters="sRGB">
<feFlood flood-opacity="0" result="BackgroundImageFix"/>
<feColorMatrix in="SourceAlpha" type="matrix" values="0 0 0 0 0 0 0 0 0 0 0 0 0 0 0 0 0 0 127 0" result="hardAlpha"/>
<feOffset/>
<feGaussianBlur stdDeviation="7.64261"/>
<feComposite in2="hardAlpha" operator="out"/>
<feColorMatrix type="matrix" values="0 0 0 0 0 0 0 0 0 0 0 0 0 0 0 0 0 0 0.15 0"/>
<feBlend mode="normal" in2="BackgroundImageFix" result="effect1_dropShadow_164_345"/>
<feBlend mode="normal" in="SourceGraphic" in2="effect1_dropShadow_164_345" result="shape"/>
</filter>
<filter id="filter1_b_164_345" x="53.6448" y="109.945" width="78.348" height="62.182" filterUnits="userSpaceOnUse" color-interpolation-filters="sRGB">
<feFlood flood-opacity="0" result="BackgroundImageFix"/>
<feGaussianBlur in="BackgroundImageFix" stdDeviation="5.61957"/>
<feComposite in2="SourceAlpha" operator="in" result="effect1_backgroundBlur_164_345"/>
<feBlend mode="normal" in="SourceGraphic" in2="effect1_backgroundBlur_164_345" result="shape"/>
</filter>
<filter id="filter2_b_164_345" x="318.231" y="188.259" width="78.5062" height="78.5062" filterUnits="userSpaceOnUse" color-interpolation-filters="sRGB">
<feFlood flood-opacity="0" result="BackgroundImageFix"/>
<feGaussianBlur in="BackgroundImageFix" stdDeviation="11.2391"/>
<feComposite in2="SourceAlpha" operator="in" result="effect1_backgroundBlur_164_345"/>
<feBlend mode="normal" in="SourceGraphic" in2="effect1_backgroundBlur_164_345" result="shape"/>
</filter>
<filter id="filter3_b_164_345" x="339.033" y="188.259" width="78.5062" height="78.5062" filterUnits="userSpaceOnUse" color-interpolation-filters="sRGB">
<feFlood flood-opacity="0" result="BackgroundImageFix"/>
<feGaussianBlur in="BackgroundImageFix" stdDeviation="11.2391"/>
<feComposite in2="SourceAlpha" operator="in" result="effect1_backgroundBlur_164_345"/>
<feBlend mode="normal" in="SourceGraphic" in2="effect1_backgroundBlur_164_345" result="shape"/>
</filter>
<filter id="filter4_b_164_345" x="339.032" y="191.872" width="57.7054" height="71.2814" filterUnits="userSpaceOnUse" color-interpolation-filters="sRGB">
<feFlood flood-opacity="0" result="BackgroundImageFix"/>
<feGaussianBlur in="BackgroundImageFix" stdDeviation="11.2391"/>
<feComposite in2="SourceAlpha" operator="in" result="effect1_backgroundBlur_164_345"/>
<feBlend mode="normal" in="SourceGraphic" in2="effect1_backgroundBlur_164_345" result="shape"/>
</filter>
<linearGradient id="paint0_linear_164_345" x1="300.345" y1="0.208984" x2="300.345" y2="353.47" gradientUnits="userSpaceOnUse">
<stop stop-color="#BF953F"/>
<stop offset="0.249328" stop-color="#FCF6BA"/>
<stop offset="0.497926" stop-color="#B38728"/>
<stop offset="0.747546" stop-color="#FBF5B7"/>
<stop offset="1" stop-color="#AA771C"/>
</linearGradient>
<linearGradient id="paint1_linear_164_345" x1="300.345" y1="0.208984" x2="300.345" y2="353.47" gradientUnits="userSpaceOnUse">
<stop stop-color="#BF953F"/>
<stop offset="0.249328" stop-color="#FCF6BA"/>
<stop offset="0.497926" stop-color="#B38728"/>
<stop offset="0.747546" stop-color="#FBF5B7"/>
<stop offset="1" stop-color="#AA771C"/>
</linearGradient>
<linearGradient id="paint2_linear_164_345" x1="300.345" y1="0.208984" x2="300.345" y2="353.47" gradientUnits="userSpaceOnUse">
<stop stop-color="#BF953F"/>
<stop offset="0.249328" stop-color="#FCF6BA"/>
<stop offset="0.497926" stop-color="#B38728"/>
<stop offset="0.747546" stop-color="#FBF5B7"/>
<stop offset="1" stop-color="#AA771C"/>
</linearGradient>
<linearGradient id="paint3_linear_164_345" x1="300.345" y1="0.208984" x2="300.345" y2="353.47" gradientUnits="userSpaceOnUse">
<stop stop-color="#BF953F"/>
<stop offset="0.249328" stop-color="#FCF6BA"/>
<stop offset="0.497926" stop-color="#B38728"/>
<stop offset="0.747546" stop-color="#FBF5B7"/>
<stop offset="1" stop-color="#AA771C"/>
</linearGradient>
<linearGradient id="paint4_linear_164_345" x1="229.613" y1="178.258" x2="229.613" y2="197.564" gradientUnits="userSpaceOnUse">
<stop stop-color="#BF953F"/>
<stop offset="0.249328" stop-color="#FCF6BA"/>
<stop offset="0.497926" stop-color="#B38728"/>
<stop offset="0.747546" stop-color="#FBF5B7"/>
<stop offset="1" stop-color="#AA771C"/>
</linearGradient>
<linearGradient id="paint5_linear_164_345" x1="229.613" y1="178.258" x2="229.613" y2="197.564" gradientUnits="userSpaceOnUse">
<stop stop-color="#BF953F"/>
<stop offset="0.249328" stop-color="#FCF6BA"/>
<stop offset="0.497926" stop-color="#B38728"/>
<stop offset="0.747546" stop-color="#FBF5B7"/>
<stop offset="1" stop-color="#AA771C"/>
</linearGradient>
<linearGradient id="paint6_linear_164_345" x1="229.613" y1="178.258" x2="229.613" y2="197.564" gradientUnits="userSpaceOnUse">
<stop stop-color="#BF953F"/>
<stop offset="0.249328" stop-color="#FCF6BA"/>
<stop offset="0.497926" stop-color="#B38728"/>
<stop offset="0.747546" stop-color="#FBF5B7"/>
<stop offset="1" stop-color="#AA771C"/>
</linearGradient>
<linearGradient id="paint7_linear_164_345" x1="229.613" y1="178.258" x2="229.613" y2="197.564" gradientUnits="userSpaceOnUse">
<stop stop-color="#BF953F"/>
<stop offset="0.249328" stop-color="#FCF6BA"/>
<stop offset="0.497926" stop-color="#B38728"/>
<stop offset="0.747546" stop-color="#FBF5B7"/>
<stop offset="1" stop-color="#AA771C"/>
</linearGradient>
<linearGradient id="paint8_linear_164_345" x1="229.613" y1="178.258" x2="229.613" y2="197.564" gradientUnits="userSpaceOnUse">
<stop stop-color="#BF953F"/>
<stop offset="0.249328" stop-color="#FCF6BA"/>
<stop offset="0.497926" stop-color="#B38728"/>
<stop offset="0.747546" stop-color="#FBF5B7"/>
<stop offset="1" stop-color="#AA771C"/>
</linearGradient>
<linearGradient id="paint9_linear_164_345" x1="229.613" y1="178.258" x2="229.613" y2="197.564" gradientUnits="userSpaceOnUse">
<stop stop-color="#BF953F"/>
<stop offset="0.249328" stop-color="#FCF6BA"/>
<stop offset="0.497926" stop-color="#B38728"/>
<stop offset="0.747546" stop-color="#FBF5B7"/>
<stop offset="1" stop-color="#AA771C"/>
</linearGradient>
<linearGradient id="paint10_linear_164_345" x1="229.613" y1="178.258" x2="229.613" y2="197.564" gradientUnits="userSpaceOnUse">
<stop stop-color="#BF953F"/>
<stop offset="0.249328" stop-color="#FCF6BA"/>
<stop offset="0.497926" stop-color="#B38728"/>
<stop offset="0.747546" stop-color="#FBF5B7"/>
<stop offset="1" stop-color="#AA771C"/>
</linearGradient>
<linearGradient id="paint11_linear_164_345" x1="229.613" y1="178.258" x2="229.613" y2="197.564" gradientUnits="userSpaceOnUse">
<stop stop-color="#BF953F"/>
<stop offset="0.249328" stop-color="#FCF6BA"/>
<stop offset="0.497926" stop-color="#B38728"/>
<stop offset="0.747546" stop-color="#FBF5B7"/>
<stop offset="1" stop-color="#AA771C"/>
</linearGradient>
<linearGradient id="paint12_linear_164_345" x1="229.613" y1="178.258" x2="229.613" y2="197.564" gradientUnits="userSpaceOnUse">
<stop stop-color="#BF953F"/>
<stop offset="0.249328" stop-color="#FCF6BA"/>
<stop offset="0.497926" stop-color="#B38728"/>
<stop offset="0.747546" stop-color="#FBF5B7"/>
<stop offset="1" stop-color="#AA771C"/>
</linearGradient>
<linearGradient id="paint13_linear_164_345" x1="229.613" y1="178.258" x2="229.613" y2="197.564" gradientUnits="userSpaceOnUse">
<stop stop-color="#BF953F"/>
<stop offset="0.249328" stop-color="#FCF6BA"/>
<stop offset="0.497926" stop-color="#B38728"/>
<stop offset="0.747546" stop-color="#FBF5B7"/>
<stop offset="1" stop-color="#AA771C"/>
</linearGradient>
<linearGradient id="paint14_linear_164_345" x1="229.613" y1="178.258" x2="229.613" y2="197.564" gradientUnits="userSpaceOnUse">
<stop stop-color="#BF953F"/>
<stop offset="0.249328" stop-color="#FCF6BA"/>
<stop offset="0.497926" stop-color="#B38728"/>
<stop offset="0.747546" stop-color="#FBF5B7"/>
<stop offset="1" stop-color="#AA771C"/>
</linearGradient>
<linearGradient id="paint15_linear_164_345" x1="229.613" y1="178.258" x2="229.613" y2="197.564" gradientUnits="userSpaceOnUse">
<stop stop-color="#BF953F"/>
<stop offset="0.249328" stop-color="#FCF6BA"/>
<stop offset="0.497926" stop-color="#B38728"/>
<stop offset="0.747546" stop-color="#FBF5B7"/>
<stop offset="1" stop-color="#AA771C"/>
</linearGradient>
<linearGradient id="paint16_linear_164_345" x1="229.613" y1="178.258" x2="229.613" y2="197.564" gradientUnits="userSpaceOnUse">
<stop stop-color="#BF953F"/>
<stop offset="0.249328" stop-color="#FCF6BA"/>
<stop offset="0.497926" stop-color="#B38728"/>
<stop offset="0.747546" stop-color="#FBF5B7"/>
<stop offset="1" stop-color="#AA771C"/>
</linearGradient>
<linearGradient id="paint17_linear_164_345" x1="229.613" y1="178.258" x2="229.613" y2="197.564" gradientUnits="userSpaceOnUse">
<stop stop-color="#BF953F"/>
<stop offset="0.249328" stop-color="#FCF6BA"/>
<stop offset="0.497926" stop-color="#B38728"/>
<stop offset="0.747546" stop-color="#FBF5B7"/>
<stop offset="1" stop-color="#AA771C"/>
</linearGradient>
<linearGradient id="paint18_linear_164_345" x1="229.613" y1="178.258" x2="229.613" y2="197.564" gradientUnits="userSpaceOnUse">
<stop stop-color="#BF953F"/>
<stop offset="0.249328" stop-color="#FCF6BA"/>
<stop offset="0.497926" stop-color="#B38728"/>
<stop offset="0.747546" stop-color="#FBF5B7"/>
<stop offset="1" stop-color="#AA771C"/>
</linearGradient>
<linearGradient id="paint19_linear_164_345" x1="229.613" y1="178.258" x2="229.613" y2="197.564" gradientUnits="userSpaceOnUse">
<stop stop-color="#BF953F"/>
<stop offset="0.249328" stop-color="#FCF6BA"/>
<stop offset="0.497926" stop-color="#B38728"/>
<stop offset="0.747546" stop-color="#FBF5B7"/>
<stop offset="1" stop-color="#AA771C"/>
</linearGradient>
<linearGradient id="paint20_linear_164_345" x1="88.5" y1="220.37" x2="88.5" y2="233.37" gradientUnits="userSpaceOnUse">
<stop stop-color="#BF953F"/>
<stop offset="0.249328" stop-color="#FCF6BA"/>
<stop offset="0.497926" stop-color="#B38728"/>
<stop offset="0.747546" stop-color="#FBF5B7"/>
<stop offset="1" stop-color="#AA771C"/>
</linearGradient>
<linearGradient id="paint21_linear_164_345" x1="151.472" y1="220.37" x2="151.472" y2="233.37" gradientUnits="userSpaceOnUse">
<stop stop-color="#BF953F"/>
<stop offset="0.249328" stop-color="#FCF6BA"/>
<stop offset="0.497926" stop-color="#B38728"/>
<stop offset="0.747546" stop-color="#FBF5B7"/>
<stop offset="1" stop-color="#AA771C"/>
</linearGradient>
<linearGradient id="paint22_linear_164_345" x1="92.8188" y1="121.184" x2="92.8188" y2="160.888" gradientUnits="userSpaceOnUse">
<stop stop-color="#BF953F"/>
<stop offset="0.249328" stop-color="#FCF6BA"/>
<stop offset="0.497926" stop-color="#B38728"/>
<stop offset="0.747546" stop-color="#FBF5B7"/>
<stop offset="1" stop-color="#AA771C"/>
</linearGradient>
<linearGradient id="paint23_linear_164_345" x1="388.843" y1="57.2782" x2="388.843" y2="87.0559" gradientUnits="userSpaceOnUse">
<stop stop-color="#BF953F"/>
<stop offset="0.249328" stop-color="#FCF6BA"/>
<stop offset="0.497926" stop-color="#B38728"/>
<stop offset="0.747546" stop-color="#FBF5B7"/>
<stop offset="1" stop-color="#AA771C"/>
</linearGradient>
<linearGradient id="paint24_linear_164_345" x1="388.843" y1="57.2782" x2="388.843" y2="87.0559" gradientUnits="userSpaceOnUse">
<stop stop-color="#BF953F"/>
<stop offset="0.249328" stop-color="#FCF6BA"/>
<stop offset="0.497926" stop-color="#B38728"/>
<stop offset="0.747546" stop-color="#FBF5B7"/>
<stop offset="1" stop-color="#AA771C"/>
</linearGradient>
<linearGradient id="paint25_linear_164_345" x1="388.843" y1="57.2782" x2="388.843" y2="87.0559" gradientUnits="userSpaceOnUse">
<stop stop-color="#BF953F"/>
<stop offset="0.249328" stop-color="#FCF6BA"/>
<stop offset="0.497926" stop-color="#B38728"/>
<stop offset="0.747546" stop-color="#FBF5B7"/>
<stop offset="1" stop-color="#AA771C"/>
</linearGradient>
<linearGradient id="paint26_linear_164_345" x1="388.843" y1="57.2782" x2="388.843" y2="87.0559" gradientUnits="userSpaceOnUse">
<stop stop-color="#BF953F"/>
<stop offset="0.249328" stop-color="#FCF6BA"/>
<stop offset="0.497926" stop-color="#B38728"/>
<stop offset="0.747546" stop-color="#FBF5B7"/>
<stop offset="1" stop-color="#AA771C"/>
</linearGradient>
<linearGradient id="paint27_linear_164_345" x1="84.7794" y1="50" x2="84.7794" y2="71" gradientUnits="userSpaceOnUse">
<stop stop-color="#BF953F"/>
<stop offset="0.249328" stop-color="#FCF6BA"/>
<stop offset="0.497926" stop-color="#B38728"/>
<stop offset="0.747546" stop-color="#FBF5B7"/>
<stop offset="1" stop-color="#AA771C"/>
</linearGradient>
<clipPath id="clip0_164_345">
<rect x="16" y="16" width="429" height="268" rx="36.64" fill="white"/>
</clipPath>
</defs>
</svg>
