<svg width="597" height="410" viewBox="0 0 597 410" fill="none" xmlns="http://www.w3.org/2000/svg">
<g filter="url(#filter0_dii_153_431)">
<path d="M61.1926 122.195C42.8608 111.612 42.8608 94.454 61.1926 83.8711L180.942 14.74C195.043 6.59926 217.906 6.59927 232.007 14.74L535.807 190.124C554.139 200.707 554.139 217.865 535.807 228.448L416.058 297.579C401.957 305.72 379.094 305.72 364.993 297.579L61.1926 122.195Z" fill="#F3F5F7"/>
</g>
<g clip-path="url(#clip0_153_431)">
<rect width="180.536" height="390.921" rx="20" transform="matrix(0.866044 -0.499967 0.866044 0.499967 54.9961 95.5688)" fill="black"/>
<path d="M415.741 248.952L416.039 248.78C416.245 248.899 416.341 249.023 416.327 249.151C416.312 249.277 416.204 249.399 416.001 249.516C415.861 249.597 415.707 249.649 415.54 249.671C415.373 249.693 415.204 249.687 415.034 249.654C414.864 249.62 414.704 249.559 414.553 249.472L414.322 249.339C414.171 249.251 414.066 249.159 414.006 249.061C413.949 248.962 413.939 248.865 413.977 248.768C414.015 248.672 414.104 248.583 414.245 248.502C414.447 248.385 414.659 248.322 414.88 248.313C415.101 248.304 415.314 248.359 415.52 248.478L415.223 248.65C415.095 248.576 414.973 248.542 414.856 248.545C414.74 248.548 414.624 248.584 414.505 248.652C414.42 248.702 414.37 248.755 414.355 248.814C414.34 248.872 414.354 248.931 414.399 248.991C414.445 249.051 414.517 249.11 414.616 249.167L414.848 249.301C414.947 249.358 415.049 249.4 415.154 249.427C415.259 249.453 415.362 249.462 415.463 249.453C415.563 249.444 415.656 249.415 415.741 249.366C415.86 249.298 415.921 249.23 415.927 249.163C415.932 249.097 415.87 249.026 415.741 248.952ZM413.985 249.665C414.158 249.765 414.35 249.842 414.56 249.895C414.771 249.947 414.986 249.974 415.205 249.978C415.425 249.98 415.636 249.959 415.84 249.914C416.042 249.869 416.224 249.799 416.386 249.706C416.546 249.614 416.666 249.509 416.745 249.392C416.822 249.274 416.858 249.153 416.853 249.027C416.847 248.9 416.799 248.776 416.709 248.655C416.619 248.532 416.486 248.421 416.313 248.321C416.138 248.22 415.946 248.144 415.737 248.094C415.527 248.042 415.313 248.015 415.095 248.012C414.876 248.009 414.666 248.03 414.464 248.075C414.26 248.12 414.078 248.189 413.918 248.281C413.756 248.375 413.637 248.48 413.559 248.598C413.48 248.715 413.443 248.836 413.447 248.963C413.452 249.089 413.499 249.213 413.589 249.334C413.678 249.454 413.81 249.564 413.985 249.665ZM413.75 249.801C413.541 249.68 413.384 249.547 413.277 249.402C413.171 249.257 413.115 249.109 413.111 248.958C413.106 248.807 413.151 248.661 413.246 248.521C413.34 248.38 413.484 248.254 413.677 248.142C413.87 248.031 414.089 247.948 414.332 247.894C414.575 247.839 414.827 247.813 415.089 247.817C415.35 247.819 415.607 247.851 415.858 247.913C416.109 247.974 416.339 248.065 416.548 248.186C416.756 248.306 416.914 248.439 417.021 248.584C417.127 248.729 417.183 248.877 417.188 249.029C417.195 249.18 417.151 249.326 417.056 249.467C416.963 249.608 416.82 249.733 416.626 249.845C416.433 249.957 416.214 250.04 415.97 250.094C415.727 250.148 415.474 250.174 415.211 250.17C414.948 250.167 414.691 250.135 414.44 250.074C414.189 250.012 413.959 249.921 413.75 249.801ZM420.932 246.841L421.342 247.077L419.398 248.199L419.047 247.997L418.972 246.877C418.959 246.757 418.94 246.657 418.915 246.578C418.89 246.498 418.857 246.432 418.815 246.381C418.773 246.328 418.721 246.284 418.661 246.249C418.573 246.198 418.48 246.163 418.383 246.143C418.284 246.122 418.186 246.119 418.089 246.133C417.993 246.146 417.902 246.177 417.815 246.227C417.719 246.283 417.659 246.343 417.636 246.408C417.612 246.472 417.621 246.536 417.663 246.602C417.707 246.666 417.778 246.727 417.878 246.785L417.356 247.086C417.186 246.988 417.071 246.877 417.011 246.751C416.949 246.624 416.95 246.494 417.013 246.36C417.076 246.227 417.209 246.102 417.411 245.985C417.608 245.871 417.808 245.794 418.01 245.753C418.211 245.711 418.407 245.704 418.598 245.732C418.788 245.76 418.966 245.822 419.132 245.918C419.224 245.971 419.3 246.032 419.359 246.101C419.418 246.17 419.464 246.246 419.497 246.328C419.53 246.41 419.553 246.498 419.568 246.592C419.582 246.687 419.59 246.788 419.591 246.895L419.654 247.578L420.932 246.841ZM421.923 244.8L422.406 245.079C422.627 245.206 422.793 245.328 422.905 245.444C423.017 245.56 423.081 245.671 423.096 245.778C423.111 245.883 423.083 245.983 423.014 246.078C422.943 246.172 422.835 246.26 422.692 246.343C422.578 246.409 422.457 246.462 422.329 246.503C422.201 246.542 422.066 246.567 421.925 246.576C421.785 246.585 421.638 246.577 421.484 246.554C421.331 246.529 421.172 246.487 421.007 246.426C420.842 246.365 420.672 246.283 420.496 246.182L420.013 245.903C419.792 245.775 419.627 245.654 419.516 245.539C419.407 245.423 419.346 245.312 419.331 245.206C419.317 245.101 419.346 245.001 419.418 244.908C419.489 244.814 419.596 244.726 419.739 244.643C419.855 244.576 419.976 244.523 420.102 244.484C420.229 244.443 420.363 244.419 420.502 244.41C420.641 244.399 420.787 244.406 420.94 244.43C421.091 244.454 421.249 244.496 421.413 244.558C421.577 244.618 421.747 244.698 421.923 244.8ZM421.957 245.42L421.33 245.058C421.22 244.995 421.117 244.943 421.022 244.904C420.928 244.863 420.84 244.832 420.758 244.813C420.677 244.793 420.601 244.783 420.53 244.783C420.457 244.782 420.39 244.79 420.327 244.807C420.263 244.824 420.204 244.848 420.149 244.88C420.081 244.919 420.034 244.962 420.007 245.009C419.98 245.056 419.976 245.106 419.997 245.161C420.018 245.215 420.067 245.276 420.143 245.343C420.219 245.408 420.326 245.48 420.463 245.559L421.089 245.921C421.2 245.985 421.302 246.037 421.397 246.078C421.493 246.118 421.582 246.149 421.665 246.169C421.749 246.189 421.827 246.2 421.9 246.202C421.972 246.203 422.04 246.195 422.105 246.179C422.168 246.163 422.227 246.138 422.282 246.106C422.352 246.066 422.399 246.023 422.424 245.977C422.45 245.93 422.452 245.878 422.43 245.823C422.406 245.767 422.356 245.706 422.278 245.64C422.201 245.572 422.094 245.499 421.957 245.42ZM425.545 244.177L425.955 244.414L424.011 245.536L423.66 245.334L423.585 244.214C423.572 244.094 423.553 243.994 423.528 243.915C423.503 243.835 423.47 243.769 423.427 243.718C423.385 243.665 423.334 243.621 423.274 243.586C423.186 243.535 423.093 243.5 422.996 243.48C422.897 243.459 422.799 243.456 422.702 243.47C422.606 243.483 422.515 243.514 422.428 243.564C422.332 243.619 422.272 243.68 422.249 243.745C422.225 243.809 422.234 243.873 422.276 243.938C422.32 244.003 422.391 244.064 422.491 244.122L421.969 244.423C421.799 244.325 421.684 244.214 421.624 244.088C421.562 243.961 421.563 243.831 421.626 243.697C421.689 243.564 421.822 243.439 422.024 243.322C422.221 243.208 422.421 243.13 422.623 243.09C422.824 243.048 423.02 243.041 423.211 243.069C423.401 243.097 423.579 243.159 423.745 243.255C423.837 243.308 423.912 243.369 423.972 243.438C424.031 243.507 424.077 243.583 424.11 243.665C424.142 243.747 424.166 243.835 424.181 243.929C424.195 244.024 424.203 244.125 424.204 244.232L424.267 244.915L425.545 244.177ZM425.221 242.914L425.515 242.745C425.619 242.685 425.687 242.625 425.718 242.566C425.75 242.505 425.75 242.447 425.72 242.392C425.69 242.335 425.633 242.282 425.549 242.234C425.466 242.186 425.379 242.153 425.288 242.136C425.196 242.118 425.103 242.117 425.009 242.134C424.914 242.149 424.819 242.184 424.725 242.238C424.648 242.282 424.593 242.332 424.559 242.386C424.526 242.44 424.519 242.494 424.537 242.549C424.556 242.602 424.604 242.651 424.681 242.696L424.159 242.997C424.004 242.908 423.908 242.806 423.873 242.691C423.838 242.575 423.857 242.457 423.93 242.337C424.004 242.217 424.127 242.107 424.301 242.007C424.49 241.898 424.687 241.821 424.892 241.775C425.097 241.728 425.3 241.717 425.499 241.741C425.7 241.764 425.89 241.828 426.069 241.931C426.155 241.98 426.22 242.041 426.264 242.114C426.309 242.186 426.327 242.263 426.317 242.347C426.308 242.43 426.269 242.516 426.199 242.605C426.13 242.692 426.023 242.777 425.88 242.86L425.503 243.077L425.221 242.914ZM425.624 243.146L425.346 242.986L425.722 242.769C425.884 242.675 426.043 242.605 426.199 242.559C426.356 242.511 426.507 242.485 426.653 242.48C426.797 242.473 426.933 242.486 427.059 242.516C427.186 242.546 427.301 242.59 427.404 242.649C427.538 242.726 427.632 242.81 427.688 242.899C427.741 242.988 427.759 243.08 427.741 243.174C427.724 243.267 427.674 243.36 427.591 243.451C427.507 243.542 427.394 243.629 427.254 243.71C427.132 243.78 426.996 243.839 426.848 243.887C426.699 243.934 426.545 243.964 426.386 243.978C426.226 243.992 426.068 243.985 425.911 243.957C425.754 243.928 425.606 243.874 425.47 243.795L425.992 243.494C426.071 243.539 426.16 243.569 426.26 243.582C426.361 243.595 426.464 243.592 426.568 243.573C426.672 243.553 426.767 243.517 426.854 243.467C426.95 243.412 427.015 243.355 427.049 243.295C427.083 243.235 427.086 243.175 427.059 243.117C427.03 243.058 426.97 243.002 426.879 242.95C426.772 242.887 426.664 242.849 426.556 242.833C426.448 242.818 426.34 242.824 426.233 242.849C426.126 242.874 426.021 242.917 425.917 242.977L425.624 243.146ZM430.451 240.104L431.569 240.75C431.581 240.805 431.573 240.877 431.545 240.966C431.519 241.054 431.457 241.153 431.358 241.263C431.258 241.372 431.103 241.488 430.893 241.609C430.71 241.714 430.513 241.793 430.302 241.846C430.089 241.897 429.869 241.92 429.641 241.915C429.414 241.91 429.185 241.875 428.955 241.81C428.725 241.746 428.5 241.65 428.281 241.524L428.092 241.414C427.872 241.288 427.705 241.159 427.589 241.028C427.475 240.897 427.41 240.768 427.396 240.639C427.383 240.51 427.418 240.386 427.502 240.266C427.588 240.145 427.721 240.033 427.902 239.928C428.146 239.788 428.385 239.695 428.622 239.651C428.86 239.607 429.091 239.601 429.316 239.633C429.539 239.665 429.752 239.727 429.955 239.82L429.426 240.125C429.312 240.076 429.196 240.042 429.077 240.024C428.958 240.005 428.837 240.006 428.715 240.028C428.592 240.049 428.468 240.095 428.342 240.168C428.236 240.23 428.163 240.296 428.123 240.367C428.084 240.439 428.077 240.513 428.102 240.591C428.126 240.67 428.184 240.751 428.273 240.836C428.364 240.92 428.485 241.006 428.638 241.095L428.831 241.206C428.985 241.295 429.137 241.365 429.288 241.415C429.438 241.466 429.583 241.497 429.724 241.51C429.865 241.521 430 241.514 430.13 241.487C430.26 241.459 430.382 241.412 430.495 241.347C430.597 241.288 430.673 241.234 430.723 241.186C430.773 241.135 430.806 241.091 430.822 241.054C430.838 241.016 430.845 240.983 430.844 240.957L430.305 240.646L429.736 240.975L429.34 240.746L430.451 240.104ZM433.13 239.748L432.147 239.18C432.074 239.139 432 239.11 431.922 239.094C431.844 239.078 431.766 239.076 431.685 239.089C431.605 239.102 431.526 239.131 431.447 239.177C431.377 239.217 431.328 239.259 431.299 239.303C431.271 239.346 431.266 239.389 431.281 239.43C431.296 239.47 431.331 239.506 431.386 239.538L430.863 239.839C430.775 239.788 430.713 239.728 430.676 239.658C430.638 239.588 430.627 239.512 430.643 239.432C430.658 239.35 430.703 239.267 430.777 239.184C430.852 239.099 430.957 239.018 431.094 238.939C431.256 238.846 431.427 238.779 431.609 238.738C431.79 238.695 431.971 238.684 432.153 238.706C432.335 238.726 432.509 238.784 432.675 238.88L433.605 239.417C433.712 239.478 433.81 239.527 433.899 239.564C433.989 239.599 434.075 239.624 434.157 239.64L434.191 239.659L433.661 239.966C433.582 239.949 433.494 239.92 433.399 239.88C433.301 239.839 433.212 239.795 433.13 239.748ZM432.358 239.218L432.671 239.394L432.342 239.584C432.26 239.631 432.197 239.678 432.153 239.723C432.107 239.768 432.08 239.811 432.072 239.852C432.063 239.892 432.07 239.93 432.093 239.967C432.116 240.002 432.154 240.036 432.208 240.067C432.26 240.097 432.32 240.118 432.385 240.128C432.452 240.138 432.521 240.137 432.592 240.125C432.663 240.111 432.73 240.086 432.793 240.05C432.885 239.997 432.947 239.94 432.979 239.879C433.009 239.818 433.016 239.76 433 239.707C432.985 239.654 432.954 239.613 432.908 239.583L433.282 239.626C433.318 239.668 433.347 239.717 433.371 239.773C433.395 239.829 433.404 239.889 433.399 239.953C433.393 240.017 433.367 240.082 433.32 240.149C433.272 240.216 433.195 240.28 433.087 240.342C432.949 240.422 432.798 240.477 432.634 240.508C432.469 240.54 432.308 240.546 432.149 240.527C431.99 240.508 431.849 240.463 431.727 240.392C431.614 240.327 431.535 240.257 431.49 240.183C431.446 240.109 431.435 240.03 431.459 239.948C431.481 239.866 431.538 239.78 431.63 239.692C431.722 239.603 431.848 239.512 432.007 239.42L432.358 239.218ZM431.547 237.689L432.07 237.388L434.627 238.864L435.047 239.166L434.575 239.437L431.547 237.689ZM435.382 237.716L435.423 237.74C435.582 237.831 435.71 237.926 435.807 238.023C435.906 238.119 435.969 238.216 435.997 238.312C436.023 238.408 436.011 238.501 435.961 238.592C435.911 238.681 435.817 238.766 435.679 238.846C435.548 238.922 435.408 238.973 435.259 238.999C435.112 239.025 434.959 239.03 434.8 239.014C434.64 238.997 434.476 238.964 434.309 238.913C434.141 238.861 433.971 238.797 433.799 238.721L433.686 238.656C433.552 238.556 433.441 238.457 433.353 238.361C433.265 238.265 433.207 238.17 433.178 238.078C433.149 237.985 433.157 237.896 433.201 237.811C433.246 237.726 433.333 237.646 433.464 237.571C433.603 237.491 433.751 237.436 433.909 237.407C434.067 237.377 434.228 237.37 434.394 237.387C434.56 237.402 434.726 237.438 434.893 237.495C435.06 237.55 435.223 237.624 435.382 237.716ZM434.901 238.041L434.859 238.017C434.769 237.965 434.676 237.92 434.581 237.882C434.485 237.843 434.39 237.815 434.295 237.799C434.201 237.782 434.108 237.78 434.016 237.792C433.924 237.804 433.835 237.835 433.749 237.884C433.668 237.931 433.612 237.979 433.582 238.029C433.553 238.077 433.544 238.126 433.554 238.177C433.566 238.226 433.594 238.276 433.639 238.326C433.685 238.375 433.743 238.423 433.812 238.471L434.12 238.649C434.23 238.702 434.343 238.742 434.459 238.769C434.573 238.796 434.688 238.804 434.802 238.792C434.918 238.78 435.029 238.743 435.137 238.681C435.221 238.632 435.275 238.582 435.299 238.53C435.321 238.478 435.319 238.425 435.291 238.371C435.262 238.317 435.213 238.262 435.145 238.207C435.078 238.152 434.997 238.096 434.901 238.041ZM435.671 236.845L437.369 237.825L436.848 238.125L434.715 236.894L435.208 236.609L435.671 236.845ZM435.871 236.211L436.348 236.496C436.313 236.509 436.277 236.526 436.237 236.546C436.199 236.565 436.164 236.583 436.133 236.601C436.053 236.648 435.993 236.695 435.955 236.743C435.916 236.79 435.896 236.837 435.896 236.884C435.898 236.93 435.917 236.976 435.955 237.023C435.992 237.068 436.046 237.113 436.117 237.157L435.991 237.214C435.855 237.136 435.744 237.055 435.656 236.972C435.568 236.89 435.507 236.808 435.472 236.728C435.438 236.647 435.437 236.571 435.468 236.498C435.5 236.424 435.568 236.356 435.671 236.296C435.7 236.28 435.734 236.263 435.772 236.248C435.81 236.23 435.843 236.218 435.871 236.211ZM436.722 235.735L438.855 236.967L438.333 237.268L436.2 236.037L436.722 235.735ZM435.606 235.735C435.529 235.691 435.491 235.638 435.492 235.578C435.495 235.518 435.541 235.461 435.632 235.409C435.723 235.356 435.82 235.33 435.924 235.329C436.029 235.328 436.12 235.349 436.198 235.394C436.274 235.438 436.311 235.49 436.308 235.551C436.307 235.611 436.261 235.667 436.17 235.719C436.08 235.772 435.982 235.799 435.876 235.8C435.773 235.801 435.683 235.779 435.606 235.735ZM440.349 236.15C440.188 236.243 440.016 236.312 439.835 236.356C439.654 236.4 439.471 236.421 439.287 236.419C439.103 236.416 438.924 236.393 438.751 236.349C438.577 236.303 438.418 236.239 438.274 236.155L438.195 236.11C438.03 236.015 437.905 235.915 437.818 235.811C437.73 235.705 437.681 235.599 437.67 235.493C437.66 235.387 437.689 235.284 437.757 235.183C437.825 235.083 437.933 234.991 438.078 234.907C438.23 234.82 438.389 234.757 438.556 234.72C438.721 234.682 438.889 234.668 439.058 234.676C439.228 234.684 439.397 234.714 439.565 234.766C439.732 234.817 439.893 234.887 440.048 234.976L440.267 235.103L438.595 236.068L438.236 235.861L439.395 235.191L439.356 235.169C439.27 235.122 439.179 235.088 439.082 235.065C438.983 235.042 438.883 235.036 438.782 235.047C438.68 235.058 438.58 235.091 438.485 235.146C438.407 235.191 438.356 235.24 438.333 235.293C438.309 235.344 438.309 235.399 438.333 235.457C438.356 235.513 438.401 235.57 438.467 235.63C438.533 235.689 438.617 235.748 438.719 235.807L438.798 235.853C438.887 235.904 438.982 235.945 439.082 235.976C439.183 236.005 439.286 236.023 439.389 236.028C439.493 236.032 439.594 236.023 439.693 236.003C439.792 235.981 439.884 235.945 439.971 235.895C440.08 235.832 440.158 235.763 440.204 235.688C440.25 235.611 440.263 235.529 440.245 235.443L440.779 235.449C440.8 235.512 440.803 235.584 440.787 235.663C440.773 235.741 440.731 235.822 440.663 235.905C440.593 235.988 440.489 236.069 440.349 236.15ZM439.048 233.359L442.076 235.107L441.554 235.409L438.526 233.661L439.048 233.359ZM443.439 232.844L442.705 233.267L442.319 233.048L442.948 232.685C443.055 232.623 443.13 232.563 443.172 232.503C443.214 232.444 443.225 232.387 443.204 232.333C443.184 232.277 443.133 232.226 443.05 232.178C442.958 232.125 442.866 232.092 442.772 232.079C442.68 232.065 442.584 232.072 442.484 232.099C442.383 232.126 442.276 232.172 442.163 232.237L441.718 232.494L444.16 233.904L443.618 234.217L440.748 232.56L441.735 231.99C441.898 231.896 442.059 231.821 442.218 231.766C442.377 231.709 442.534 231.673 442.687 231.659C442.841 231.644 442.99 231.652 443.133 231.682C443.278 231.711 443.417 231.764 443.551 231.841C443.669 231.909 443.751 231.988 443.795 232.078C443.84 232.166 443.837 232.26 443.785 232.361C443.736 232.461 443.629 232.564 443.466 232.668L443.439 232.844ZM444.694 233.596L443.825 234.098L443.626 233.721L444.268 233.35C444.376 233.288 444.447 233.226 444.481 233.166C444.517 233.104 444.521 233.046 444.493 232.99C444.466 232.934 444.411 232.882 444.33 232.835C444.24 232.783 444.147 232.747 444.05 232.728C443.954 232.707 443.854 232.706 443.752 232.724C443.651 232.742 443.546 232.781 443.439 232.844L442.875 233.169L442.496 232.946L443.214 232.532L443.486 232.545C443.653 232.451 443.82 232.392 443.989 232.369C444.158 232.346 444.318 232.349 444.47 232.378C444.621 232.408 444.755 232.456 444.872 232.524C445.056 232.63 445.17 232.742 445.215 232.861C445.261 232.978 445.239 233.099 445.15 233.224C445.062 233.347 444.91 233.471 444.694 233.596ZM445.004 232.211L444.962 232.187C444.806 232.097 444.684 232.001 444.598 231.899C444.51 231.797 444.46 231.693 444.448 231.587C444.436 231.482 444.465 231.378 444.535 231.275C444.603 231.172 444.716 231.075 444.874 230.984C445.034 230.891 445.204 230.825 445.382 230.786C445.561 230.745 445.742 230.728 445.924 230.735C446.107 230.742 446.287 230.77 446.465 230.821C446.641 230.871 446.807 230.942 446.963 231.032L447.005 231.056C447.16 231.145 447.281 231.241 447.369 231.344C447.456 231.445 447.506 231.549 447.519 231.656C447.531 231.761 447.502 231.865 447.432 231.967C447.363 232.07 447.248 232.167 447.089 232.259C446.932 232.35 446.764 232.416 446.585 232.457C446.406 232.498 446.225 232.515 446.043 232.508C445.859 232.5 445.679 232.471 445.503 232.421C445.325 232.371 445.159 232.3 445.004 232.211ZM445.483 231.887L445.524 231.91C445.617 231.964 445.714 232.009 445.814 232.046C445.914 232.082 446.014 232.107 446.114 232.121C446.213 232.135 446.311 232.134 446.407 232.12C446.503 232.104 446.594 232.071 446.679 232.022C446.764 231.973 446.819 231.922 446.845 231.867C446.87 231.812 446.871 231.755 446.847 231.698C446.825 231.639 446.782 231.581 446.719 231.523C446.656 231.466 446.578 231.41 446.484 231.356L446.443 231.332C446.351 231.279 446.256 231.235 446.157 231.199C446.057 231.163 445.957 231.138 445.855 231.125C445.754 231.111 445.655 231.111 445.558 231.126C445.46 231.14 445.369 231.171 445.284 231.221C445.2 231.269 445.146 231.322 445.122 231.378C445.097 231.433 445.097 231.49 445.122 231.549C445.146 231.606 445.189 231.664 445.252 231.722C445.314 231.778 445.391 231.833 445.483 231.887ZM447.261 230.177L448.939 231.146L448.418 231.446L446.285 230.215L446.774 229.932L447.261 230.177ZM447.712 230.533L447.559 230.622C447.405 230.532 447.285 230.439 447.2 230.342C447.114 230.246 447.063 230.15 447.046 230.055C447.03 229.96 447.049 229.868 447.103 229.781C447.157 229.694 447.247 229.614 447.373 229.541C447.476 229.482 447.583 229.437 447.695 229.406C447.806 229.374 447.923 229.36 448.046 229.362C448.169 229.364 448.298 229.385 448.432 229.426C448.566 229.466 448.707 229.528 448.856 229.614L450.224 230.404L449.699 230.706L448.327 229.914C448.23 229.858 448.139 229.822 448.053 229.806C447.969 229.789 447.888 229.79 447.811 229.807C447.735 229.824 447.658 229.855 447.58 229.899C447.5 229.946 447.446 229.996 447.419 230.05C447.391 230.102 447.385 230.156 447.401 230.212C447.418 230.268 447.453 230.323 447.505 230.377C447.558 230.432 447.627 230.484 447.712 230.533ZM451.405 229.198L450.421 228.631C450.349 228.589 450.274 228.56 450.196 228.544C450.119 228.528 450.04 228.527 449.96 228.54C449.88 228.552 449.8 228.582 449.721 228.627C449.652 228.667 449.602 228.709 449.573 228.753C449.546 228.797 449.54 228.839 449.556 228.88C449.57 228.92 449.605 228.956 449.66 228.988L449.138 229.289C449.05 229.239 448.987 229.178 448.95 229.109C448.912 229.038 448.901 228.962 448.917 228.882C448.933 228.8 448.977 228.717 449.051 228.634C449.126 228.55 449.232 228.468 449.368 228.389C449.53 228.296 449.701 228.229 449.883 228.188C450.064 228.145 450.246 228.135 450.427 228.156C450.61 228.176 450.784 228.235 450.949 228.33L451.88 228.867C451.986 228.929 452.084 228.978 452.174 229.014C452.263 229.049 452.349 229.074 452.432 229.09L452.465 229.11L451.935 229.416C451.856 229.399 451.769 229.371 451.673 229.33C451.576 229.289 451.486 229.245 451.405 229.198ZM450.632 228.668L450.945 228.845L450.616 229.035C450.535 229.082 450.472 229.128 450.427 229.173C450.381 229.218 450.354 229.261 450.346 229.302C450.337 229.342 450.344 229.381 450.368 229.417C450.39 229.453 450.428 229.486 450.482 229.517C450.535 229.547 450.594 229.568 450.66 229.579C450.727 229.588 450.796 229.587 450.867 229.575C450.937 229.561 451.005 229.536 451.068 229.5C451.16 229.447 451.221 229.39 451.253 229.329C451.283 229.268 451.29 229.211 451.275 229.157C451.259 229.104 451.228 229.063 451.182 229.033L451.556 229.077C451.592 229.118 451.622 229.167 451.645 229.223C451.669 229.28 451.678 229.34 451.673 229.403C451.668 229.467 451.641 229.532 451.594 229.599C451.547 229.666 451.469 229.73 451.361 229.793C451.223 229.872 451.072 229.928 450.908 229.959C450.744 229.99 450.582 229.996 450.423 229.977C450.264 229.958 450.123 229.913 450.001 229.843C449.888 229.777 449.809 229.708 449.765 229.633C449.72 229.559 449.709 229.481 449.733 229.399C449.755 229.316 449.813 229.231 449.904 229.143C449.996 229.053 450.122 228.962 450.281 228.871L450.632 228.668ZM451.675 227.606L453.372 228.586L452.852 228.887L450.719 227.655L451.211 227.371L451.675 227.606ZM451.874 226.972L452.351 227.257C452.317 227.271 452.28 227.287 452.241 227.307C452.202 227.326 452.168 227.345 452.136 227.363C452.056 227.409 451.997 227.456 451.959 227.504C451.919 227.551 451.899 227.598 451.899 227.645C451.901 227.691 451.921 227.738 451.959 227.784C451.995 227.829 452.049 227.874 452.12 227.918L451.994 227.975C451.859 227.897 451.747 227.816 451.659 227.734C451.571 227.651 451.51 227.57 451.476 227.489C451.441 227.409 451.44 227.332 451.472 227.259C451.503 227.185 451.571 227.118 451.675 227.058C451.704 227.041 451.737 227.025 451.775 227.009C451.813 226.991 451.846 226.979 451.874 226.972ZM455.265 227.539C455.103 227.632 454.931 227.701 454.75 227.745C454.569 227.789 454.386 227.81 454.202 227.809C454.018 227.806 453.839 227.782 453.666 227.738C453.492 227.693 453.333 227.628 453.189 227.545L453.11 227.499C452.946 227.404 452.82 227.305 452.733 227.2C452.645 227.095 452.596 226.989 452.586 226.883C452.575 226.776 452.604 226.673 452.672 226.573C452.741 226.473 452.848 226.381 452.994 226.296C453.145 226.209 453.304 226.147 453.471 226.11C453.636 226.072 453.804 226.057 453.973 226.065C454.143 226.074 454.312 226.104 454.48 226.155C454.647 226.206 454.808 226.276 454.963 226.366L455.182 226.492L453.51 227.457L453.151 227.25L454.31 226.581L454.271 226.558C454.186 226.512 454.094 226.477 453.997 226.455C453.898 226.431 453.799 226.425 453.697 226.436C453.595 226.447 453.496 226.48 453.4 226.535C453.322 226.58 453.272 226.629 453.248 226.682C453.224 226.734 453.224 226.788 453.248 226.846C453.272 226.902 453.316 226.96 453.382 227.019C453.448 227.078 453.532 227.137 453.634 227.197L453.713 227.242C453.802 227.294 453.897 227.335 453.997 227.365C454.098 227.395 454.201 227.412 454.305 227.417C454.408 227.421 454.51 227.413 454.608 227.392C454.707 227.37 454.799 227.334 454.886 227.284C454.995 227.221 455.073 227.152 455.119 227.077C455.165 227 455.178 226.919 455.16 226.832L455.694 226.838C455.715 226.902 455.718 226.973 455.702 227.052C455.688 227.13 455.646 227.211 455.578 227.294C455.508 227.377 455.404 227.459 455.265 227.539ZM455.316 225.001L455.69 225.218L454.468 225.923L454.094 225.707L455.316 225.001ZM453.896 225.215L454.419 224.914L456.461 226.093C456.524 226.129 456.581 226.152 456.633 226.162C456.684 226.172 456.733 226.17 456.779 226.158C456.825 226.145 456.871 226.125 456.919 226.097C456.953 226.078 456.982 226.058 457.007 226.039C457.032 226.02 457.053 226.004 457.068 225.99L457.461 226.214C457.432 226.248 457.394 226.283 457.348 226.32C457.304 226.357 457.247 226.395 457.179 226.434C457.062 226.502 456.94 226.549 456.812 226.578C456.683 226.605 456.55 226.607 456.412 226.583C456.273 226.559 456.129 226.504 455.98 226.418L453.896 225.215ZM456.672 224.218L457.047 224.435L455.824 225.14L455.45 224.924L456.672 224.218ZM455.253 224.432L455.775 224.131L457.817 225.31C457.881 225.346 457.938 225.369 457.989 225.379C458.04 225.389 458.089 225.387 458.135 225.375C458.181 225.362 458.227 225.342 458.275 225.314C458.309 225.295 458.339 225.275 458.363 225.256C458.388 225.237 458.409 225.221 458.425 225.207L458.817 225.431C458.788 225.465 458.751 225.5 458.705 225.537C458.66 225.574 458.603 225.612 458.535 225.651C458.418 225.719 458.296 225.766 458.168 225.795C458.04 225.822 457.906 225.824 457.768 225.8C457.629 225.776 457.485 225.721 457.336 225.635L455.253 224.432ZM457.571 223.699L459.704 224.931L459.182 225.232L457.049 224.001L457.571 223.699ZM456.455 223.699C456.378 223.655 456.34 223.602 456.341 223.542C456.344 223.482 456.39 223.425 456.481 223.373C456.572 223.32 456.669 223.294 456.773 223.293C456.878 223.292 456.969 223.313 457.047 223.358C457.123 223.402 457.16 223.454 457.157 223.515C457.156 223.575 457.11 223.631 457.019 223.683C456.928 223.736 456.83 223.763 456.725 223.764C456.621 223.765 456.531 223.743 456.455 223.699ZM461.979 223.324C461.9 223.278 461.861 223.224 461.861 223.162C461.861 223.1 461.907 223.042 461.999 222.989C462.091 222.936 462.191 222.91 462.298 222.91C462.406 222.91 462.499 222.932 462.578 222.978C462.656 223.023 462.695 223.076 462.695 223.138C462.693 223.2 462.647 223.257 462.555 223.31C462.463 223.363 462.363 223.39 462.257 223.391C462.149 223.391 462.056 223.369 461.979 223.324ZM461.778 221.271L463.911 222.502L463.388 222.804L461.255 221.572L461.778 221.271ZM460.662 221.271C460.585 221.226 460.546 221.174 460.548 221.114C460.55 221.053 460.597 220.997 460.688 220.944C460.778 220.892 460.876 220.865 460.979 220.864C461.085 220.863 461.176 220.885 461.253 220.929C461.33 220.973 461.366 221.026 461.364 221.086C461.363 221.146 461.317 221.202 461.226 221.255C461.135 221.307 461.037 221.334 460.932 221.336C460.828 221.336 460.738 221.315 460.662 221.271ZM463.241 220.952L464.918 221.921L464.398 222.221L462.265 220.99L462.754 220.707L463.241 220.952ZM463.692 221.308L463.538 221.397C463.384 221.307 463.265 221.213 463.179 221.117C463.094 221.021 463.043 220.925 463.026 220.83C463.01 220.735 463.029 220.643 463.083 220.556C463.137 220.469 463.227 220.389 463.353 220.316C463.455 220.257 463.563 220.212 463.674 220.181C463.786 220.149 463.903 220.135 464.025 220.137C464.149 220.139 464.278 220.16 464.412 220.201C464.546 220.24 464.687 220.303 464.835 220.389L466.203 221.179L465.679 221.481L464.307 220.689C464.21 220.633 464.118 220.597 464.033 220.581C463.949 220.564 463.868 220.565 463.791 220.582C463.714 220.599 463.637 220.63 463.56 220.674C463.48 220.721 463.426 220.771 463.398 220.825C463.371 220.877 463.365 220.931 463.381 220.987C463.398 221.043 463.432 221.098 463.485 221.152C463.538 221.207 463.607 221.259 463.692 221.308ZM467.167 220.194C467.241 220.152 467.292 220.105 467.321 220.055C467.35 220.005 467.355 219.955 467.337 219.905C467.32 219.854 467.278 219.808 467.211 219.766L467.702 219.483C467.844 219.568 467.932 219.666 467.968 219.778C468.003 219.889 467.989 220.002 467.924 220.117C467.86 220.23 467.747 220.333 467.585 220.426C467.421 220.521 467.25 220.588 467.073 220.627C466.895 220.665 466.717 220.68 466.537 220.67C466.358 220.659 466.183 220.628 466.012 220.577C465.843 220.524 465.684 220.455 465.535 220.369L465.472 220.333C465.324 220.247 465.204 220.155 465.113 220.058C465.024 219.959 464.97 219.858 464.952 219.755C464.935 219.651 464.96 219.548 465.027 219.445C465.094 219.343 465.209 219.245 465.372 219.151C465.544 219.051 465.728 218.983 465.926 218.947C466.124 218.91 466.321 218.905 466.517 218.933C466.714 218.961 466.897 219.021 467.065 219.115L466.574 219.399C466.495 219.356 466.41 219.327 466.318 219.31C466.226 219.293 466.133 219.291 466.038 219.303C465.943 219.315 465.855 219.345 465.772 219.393C465.684 219.444 465.629 219.497 465.606 219.552C465.585 219.607 465.59 219.662 465.622 219.718C465.653 219.773 465.702 219.827 465.768 219.88C465.834 219.932 465.909 219.982 465.995 220.031L466.058 220.068C466.144 220.118 466.233 220.162 466.324 220.201C466.416 220.239 466.509 220.267 466.604 220.285C466.698 220.302 466.793 220.304 466.888 220.292C466.983 220.279 467.077 220.247 467.167 220.194Z" fill="#D1D1D1" fill-opacity="0.819608"/>
<path d="M317.228 141.442C317.264 140.63 317.279 138.869 317.042 138.315L305.657 137.99L293.811 137.608L288.669 137.451L283.898 137.403C283.438 137.381 282.41 137.356 281.972 137.437C281.534 137.517 281.128 137.852 280.98 138.01L280.925 139.227C280.898 139.35 280.94 139.736 281.323 140.29C281.707 140.845 283.458 141.106 284.285 141.167L286.397 141.241L308.53 142.044L314.867 142.266C315.356 142.271 316.427 142.271 316.792 142.232C317.158 142.193 317.235 141.689 317.228 141.442Z" fill="url(#paint0_angular_153_431)"/>
<path d="M269.325 161.582L265.192 159.195L263.959 145.572C263.816 142.817 263.476 136.776 263.266 134.656C263.056 132.535 264.622 132.939 265.431 133.406L271.778 137.071L272.898 156.148L273.28 159.7C273.719 162.119 273.58 162.58 273.455 162.508C272.448 163.176 270.282 162.169 269.325 161.582Z" fill="url(#paint1_angular_153_431)"/>
<path d="M266.423 132.833L272.77 136.498L316.016 137.723C316.567 137.764 317.423 137.535 316.432 136.297C316.117 136.011 315.209 135.3 314.092 134.738L313.438 134.361C312.69 133.894 310.992 132.927 310.181 132.792C309.369 132.657 308.859 132.585 308.706 132.566L299.703 132.158L289.696 131.9L279.322 131.638L269.688 131.595L266.755 131.672C266.022 131.7 264.929 131.971 266.423 132.833Z" fill="url(#paint2_angular_153_431)"/>
<path d="M281.073 162.637L275.02 162.683L273.795 146.253L273.862 142.334C274.063 142.265 274.509 142.117 274.68 142.078C275.262 141.914 276.326 141.918 276.786 141.94C277.245 141.962 278.296 142.146 278.827 142.702C279.357 143.258 279.729 145.27 279.849 146.207L281.073 162.637Z" fill="url(#paint3_angular_153_431)"/>
</g>
<defs>
<filter id="filter0_dii_153_431" x="0.272522" y="2.73811" width="596.455" height="407.082" filterUnits="userSpaceOnUse" color-interpolation-filters="sRGB">
<feFlood flood-opacity="0" result="BackgroundImageFix"/>
<feColorMatrix in="SourceAlpha" type="matrix" values="0 0 0 0 0 0 0 0 0 0 0 0 0 0 0 0 0 0 127 0" result="hardAlpha"/>
<feOffset dy="58.9642"/>
<feGaussianBlur stdDeviation="23.5857"/>
<feColorMatrix type="matrix" values="0 0 0 0 0.241667 0 0 0 0 0.2675 0 0 0 0 0.5 0 0 0 0.25 0"/>
<feBlend mode="normal" in2="BackgroundImageFix" result="effect1_dropShadow_153_431"/>
<feBlend mode="normal" in="SourceGraphic" in2="effect1_dropShadow_153_431" result="shape"/>
<feColorMatrix in="SourceAlpha" type="matrix" values="0 0 0 0 0 0 0 0 0 0 0 0 0 0 0 0 0 0 127 0" result="hardAlpha"/>
<feOffset dy="1.17928"/>
<feGaussianBlur stdDeviation="5.89642"/>
<feComposite in2="hardAlpha" operator="arithmetic" k2="-1" k3="1"/>
<feColorMatrix type="matrix" values="0 0 0 0 1 0 0 0 0 1 0 0 0 0 1 0 0 0 1 0"/>
<feBlend mode="normal" in2="shape" result="effect2_innerShadow_153_431"/>
<feColorMatrix in="SourceAlpha" type="matrix" values="0 0 0 0 0 0 0 0 0 0 0 0 0 0 0 0 0 0 127 0" result="hardAlpha"/>
<feOffset dx="-1.17928" dy="-5.89642"/>
<feGaussianBlur stdDeviation="5.89642"/>
<feComposite in2="hardAlpha" operator="arithmetic" k2="-1" k3="1"/>
<feColorMatrix type="matrix" values="0 0 0 0 0.399479 0 0 0 0 0.514406 0 0 0 0 0.7375 0 0 0 0.5 0"/>
<feBlend mode="normal" in2="effect2_innerShadow_153_431" result="effect3_innerShadow_153_431"/>
</filter>
<radialGradient id="paint0_angular_153_431" cx="0" cy="0" r="1" gradientUnits="userSpaceOnUse" gradientTransform="translate(281.916 142.498) rotate(29.9978) scale(19.9074 24.9722)">
<stop stop-color="#BF953F"/>
<stop offset="0.249328" stop-color="#FCF6BA"/>
<stop offset="0.497926" stop-color="#B38728"/>
<stop offset="0.747546" stop-color="#FBF5B7"/>
<stop offset="1" stop-color="#AA771C"/>
</radialGradient>
<radialGradient id="paint1_angular_153_431" cx="0" cy="0" r="1" gradientUnits="userSpaceOnUse" gradientTransform="translate(281.916 142.498) rotate(29.9978) scale(19.9074 24.9722)">
<stop stop-color="#BF953F"/>
<stop offset="0.249328" stop-color="#FCF6BA"/>
<stop offset="0.497926" stop-color="#B38728"/>
<stop offset="0.747546" stop-color="#FBF5B7"/>
<stop offset="1" stop-color="#AA771C"/>
</radialGradient>
<radialGradient id="paint2_angular_153_431" cx="0" cy="0" r="1" gradientUnits="userSpaceOnUse" gradientTransform="translate(281.916 142.498) rotate(29.9978) scale(19.9074 24.9722)">
<stop stop-color="#BF953F"/>
<stop offset="0.249328" stop-color="#FCF6BA"/>
<stop offset="0.497926" stop-color="#B38728"/>
<stop offset="0.747546" stop-color="#FBF5B7"/>
<stop offset="1" stop-color="#AA771C"/>
</radialGradient>
<radialGradient id="paint3_angular_153_431" cx="0" cy="0" r="1" gradientUnits="userSpaceOnUse" gradientTransform="translate(281.916 142.498) rotate(29.9978) scale(19.9074 24.9722)">
<stop stop-color="#BF953F"/>
<stop offset="0.249328" stop-color="#FCF6BA"/>
<stop offset="0.497926" stop-color="#B38728"/>
<stop offset="0.747546" stop-color="#FBF5B7"/>
<stop offset="1" stop-color="#AA771C"/>
</radialGradient>
<clipPath id="clip0_153_431">
<rect width="180.536" height="390.921" rx="20" transform="matrix(0.866044 -0.499967 0.866044 0.499967 54.9961 95.5688)" fill="white"/>
</clipPath>
</defs>
</svg>
