<svg width="165" height="38" viewBox="0 0 165 38" fill="none" xmlns="http://www.w3.org/2000/svg">
<path d="M52.0438 33.2591C52.5657 33.2591 52.9716 33.2011 53.2615 33.0852C53.5708 32.9692 53.8028 32.7952 53.9574 32.5633C54.112 32.312 54.2087 31.993 54.2474 31.6065C54.3053 31.2199 54.3343 30.7656 54.3343 30.2437V11.3395C54.1217 10.9529 53.9284 10.6146 53.7545 10.3247C53.5998 10.0154 53.4645 9.75448 53.3485 9.54186C53.2132 9.29057 53.0876 9.06828 52.9716 8.87499H57.2338C57.3884 9.16493 57.7073 9.75448 58.1906 10.6436C58.6931 11.5328 59.2923 12.6056 59.9882 13.862C60.6841 15.1184 61.4476 16.5005 62.2788 18.0082C63.1099 19.4965 63.9411 20.9946 64.7723 22.5023C65.6034 23.9906 66.3959 25.4307 67.1498 26.8224C67.923 28.2141 68.5995 29.4222 69.1794 30.4467V12.1803C69.1794 11.6584 69.1504 11.2042 69.0924 10.8176C69.0537 10.431 68.9571 10.1217 68.8025 9.88979C68.6478 9.6385 68.4159 9.45487 68.1066 9.3389C67.8166 9.22292 67.4107 9.16493 66.8888 9.16493V8.87499C67.4687 8.89432 67.952 8.91365 68.3385 8.93298C68.7445 8.93298 69.1117 8.93298 69.4403 8.93298C69.7883 8.93298 70.1362 8.93298 70.4841 8.93298C70.8514 8.91365 71.2863 8.89432 71.7889 8.87499V9.16493C71.267 9.16493 70.8514 9.21326 70.5421 9.3099C70.2522 9.40655 70.0299 9.57085 69.8752 9.8028C69.7206 10.0348 69.6143 10.3537 69.5563 10.7596C69.5176 11.1462 69.4983 11.6294 69.4983 12.2093V31.0266C69.7109 31.4132 69.9042 31.7611 70.0782 32.0704C70.2522 32.3796 70.3971 32.6406 70.5131 32.8532C70.6484 33.1045 70.7741 33.3364 70.89 33.5491H66.6569C66.4249 33.1238 66.0383 32.4376 65.4971 31.4905C64.9752 30.524 64.3567 29.4126 63.6415 28.1561C62.9456 26.8804 62.1918 25.508 61.3799 24.039C60.5681 22.5506 59.7563 21.0816 58.9444 19.6318C58.1326 18.1628 57.3497 16.7614 56.5959 15.4277C55.8614 14.0746 55.2138 12.8955 54.6533 11.8904V30.3307C54.6533 30.8913 54.6726 31.3648 54.7113 31.7514C54.7692 32.1187 54.8756 32.4183 55.0302 32.6503C55.1848 32.8629 55.4071 33.0175 55.6971 33.1142C56.0063 33.2108 56.4219 33.2591 56.9438 33.2591V33.5491C56.4412 33.5297 56.0063 33.5201 55.6391 33.5201C55.2911 33.5007 54.9432 33.4911 54.5953 33.4911C54.2667 33.4911 53.8994 33.5007 53.4935 33.5201C53.1069 33.5201 52.6237 33.5297 52.0438 33.5491V33.2591ZM73.8744 33.2591C74.3576 33.2591 74.7539 33.1915 75.0632 33.0562C75.3724 32.9209 75.6044 32.7179 75.759 32.4473C75.9137 32.1767 76.02 31.8384 76.078 31.4325C76.136 31.0072 76.1649 30.5143 76.1649 29.9538V11.9484C76.1649 11.5231 76.1456 11.1462 76.107 10.8176C76.0683 10.4697 75.9813 10.1797 75.846 9.94778C75.7107 9.69649 75.5174 9.5032 75.2661 9.36789C75.0148 9.23258 74.6766 9.16493 74.2513 9.16493V8.87499H93.5325V8.96197L94.5183 14.2969L94.2863 14.3839C93.5711 13.3981 92.8753 12.5766 92.1988 11.9194C91.5222 11.2429 90.778 10.7016 89.9662 10.2957C89.1737 9.88979 88.2652 9.60951 87.2407 9.45487C86.2356 9.28091 85.0565 9.19393 83.7034 9.19393H79.8762V19.3709H81.065C82.3794 19.3709 83.4715 19.3032 84.3413 19.1679C85.2111 19.0326 85.9263 18.82 86.4869 18.5301C87.0668 18.2208 87.521 17.8149 87.8496 17.3123C88.1782 16.7904 88.4585 16.1525 88.6905 15.3987H88.8644V23.633H88.6905C88.3425 22.9179 87.9946 22.309 87.6467 21.8064C87.2987 21.3038 86.8541 20.8979 86.3129 20.5887C85.791 20.2601 85.1145 20.0281 84.2833 19.8928C83.4522 19.7382 82.3794 19.6608 81.065 19.6608H79.8762V33.2301H83.0076C84.322 33.2301 85.5108 33.1528 86.5739 32.9982C87.6563 32.8242 88.6421 32.5343 89.5313 32.1284C90.4398 31.7031 91.2806 31.1329 92.0538 30.4177C92.827 29.7025 93.5808 28.8037 94.3153 27.7212L94.5183 27.7792L93.5325 33.5491H73.8744V33.2591ZM95.1217 8.87499C95.8563 8.91365 96.5038 8.95231 97.0643 8.99097C97.6442 9.0103 98.2144 9.01996 98.775 9.01996C99.3356 9.01996 99.9154 9.0103 100.515 8.99097C101.114 8.95231 101.8 8.91365 102.573 8.87499C103.288 8.83633 103.907 8.9813 104.429 9.3099C104.951 9.6385 105.415 10.0638 105.821 10.5856C106.227 11.1075 106.574 11.6778 106.864 12.2963C107.174 12.9149 107.464 13.4947 107.734 14.036C108.024 14.5579 108.304 15.0024 108.575 15.3697C108.865 15.7176 109.184 15.8916 109.532 15.8916C109.86 15.8916 110.218 15.6983 110.605 15.3117C111.204 14.5385 111.764 13.8233 112.286 13.1661C112.808 12.4896 113.282 11.8711 113.707 11.3105C114.171 10.7113 114.239 10.2377 113.91 9.88979C113.601 9.52253 112.837 9.29057 111.619 9.19393V8.87499C112.199 8.91365 112.712 8.94264 113.156 8.96197C113.62 8.9813 114.045 8.99097 114.432 8.99097C114.915 8.99097 115.35 8.9813 115.737 8.96197C116.143 8.94264 116.568 8.91365 117.012 8.87499V9.10694C116.684 9.22292 116.384 9.34856 116.114 9.48387C115.862 9.59984 115.63 9.74482 115.418 9.91878C115.205 10.0734 114.992 10.2667 114.78 10.4987C114.567 10.7113 114.345 10.9819 114.113 11.3105C113.32 12.3156 112.364 13.5431 111.243 14.9928C110.141 16.4232 108.962 17.9309 107.705 19.5159L115.07 30.3597C115.688 31.2875 116.239 31.9834 116.722 32.4473C117.225 32.8919 117.67 33.1818 118.056 33.3171L118.027 33.5491C117.273 33.4911 116.597 33.4524 115.998 33.4331C115.418 33.4138 114.847 33.4041 114.287 33.4041C113.726 33.4041 113.137 33.4138 112.518 33.4331C111.919 33.4524 111.214 33.4911 110.402 33.5491V33.3171C110.75 33.1818 110.991 33.0078 111.127 32.7952C111.281 32.5633 111.339 32.312 111.301 32.0414C111.281 31.7708 111.194 31.4808 111.04 31.1715C110.885 30.8623 110.692 30.5337 110.46 30.1857C109.783 29.1613 109 28.0015 108.111 26.7064C107.222 25.392 106.294 24.0196 105.328 22.5893C103.975 24.3289 102.689 25.9719 101.471 27.5183C100.273 29.0646 99.2679 30.3597 98.4561 31.4035C98.1275 31.9061 98.0308 32.3217 98.1661 32.6503C98.3208 32.9595 98.8137 33.1818 99.6448 33.3171V33.5491C99.2196 33.5104 98.8523 33.4814 98.5431 33.4621C98.2338 33.4428 97.9438 33.4331 97.6732 33.4331C97.306 33.4331 96.9484 33.4428 96.6004 33.4621C96.2525 33.4814 95.8466 33.5104 95.3827 33.5491V33.3171C95.9432 33.1238 96.3975 32.9209 96.7454 32.7082C97.0933 32.4763 97.4413 32.1573 97.7892 31.7514C98.1951 31.2295 98.6687 30.6207 99.2099 29.9248C99.7511 29.2289 100.341 28.4751 100.979 27.6632C101.616 26.8514 102.283 25.9912 102.979 25.0828C103.675 24.1743 104.39 23.2561 105.125 22.3283C104.487 21.3812 103.839 20.434 103.182 19.4869C102.544 18.5204 101.916 17.5926 101.298 16.7034C100.698 15.7949 100.128 14.9348 99.5868 14.1229C99.0456 13.3111 98.5527 12.5766 98.1081 11.9194C97.9148 11.6488 97.7022 11.3685 97.4703 11.0786C97.2576 10.7886 97.0257 10.518 96.7744 10.2667C96.5231 10.0154 96.2525 9.79314 95.9626 9.59984C95.692 9.38722 95.402 9.22292 95.0927 9.10694L95.1217 8.87499ZM102.776 9.19393C102.1 9.23258 101.742 9.46454 101.703 9.88979C101.665 10.2957 101.848 10.8079 102.254 11.4265C102.583 11.929 103.037 12.6152 103.617 13.4851C104.216 14.3549 104.806 15.2247 105.386 16.0945C106.062 17.0997 106.777 18.1531 107.531 19.2549C107.957 18.7137 108.372 18.1821 108.778 17.6602C109.184 17.1383 109.58 16.6261 109.967 16.1235C109.812 16.2009 109.619 16.2299 109.387 16.2105C109.174 16.1719 108.962 16.0752 108.749 15.9206C108.459 15.708 108.188 15.3987 107.937 14.9928C107.705 14.5675 107.464 14.1133 107.212 13.63C106.961 13.1275 106.69 12.6152 106.4 12.0933C106.13 11.5521 105.821 11.0689 105.473 10.6436C105.125 10.2184 104.728 9.87046 104.284 9.59984C103.859 9.32923 103.356 9.19393 102.776 9.19393ZM119.376 8.87499C120.207 8.93298 120.893 8.9813 121.435 9.01996C121.995 9.03929 122.527 9.04895 123.029 9.04895C123.532 9.04895 124.034 9.03929 124.537 9.01996C125.04 8.9813 125.639 8.94264 126.335 8.90398C126.412 8.90398 126.489 8.90398 126.567 8.90398C126.644 8.90398 126.721 8.89432 126.799 8.87499C127.881 8.817 128.828 8.87499 129.64 9.04895C130.471 9.20359 131.157 9.55152 131.699 10.0927C132.24 10.6146 132.626 11.3685 132.858 12.3543C133.09 13.3208 133.168 14.5772 133.09 16.1235C133.032 17.4766 133.1 18.617 133.293 19.5449C133.487 20.4533 133.757 21.1879 134.105 21.7484C134.472 22.309 134.888 22.7149 135.352 22.9662C135.835 23.1981 136.328 23.3141 136.831 23.3141C137.179 23.3141 137.536 23.2658 137.903 23.1691C138.271 23.0532 138.599 22.8889 138.889 22.6762C139.198 22.4443 139.459 22.1543 139.672 21.8064C139.885 21.4585 140.02 21.0332 140.078 20.5307V11.9484C140.078 11.5231 140.059 11.1462 140.02 10.8176C139.981 10.4697 139.894 10.1797 139.759 9.94778C139.624 9.69649 139.43 9.5032 139.179 9.36789C138.928 9.23258 138.59 9.16493 138.164 9.16493V8.87499C138.764 8.93298 139.508 8.96197 140.397 8.96197C141.054 8.96197 141.692 8.93298 142.311 8.87499V9.16493C141.885 9.16493 141.547 9.23258 141.296 9.36789C141.044 9.5032 140.851 9.69649 140.716 9.94778C140.581 10.1797 140.494 10.4697 140.455 10.8176C140.416 11.1462 140.397 11.5231 140.397 11.9484V25.5177C140.397 26.6968 140.233 27.7116 139.904 28.5621C139.575 29.4126 139.14 30.1374 138.599 30.7366C138.058 31.3165 137.439 31.7901 136.744 32.1573C136.067 32.5246 135.371 32.8146 134.656 33.0272C133.96 33.2205 133.274 33.3558 132.597 33.4331C131.921 33.4911 131.331 33.5297 130.829 33.5491C129.592 33.5877 128.393 33.4621 127.234 33.1721C126.093 32.8822 125.078 32.428 124.189 31.8094C123.319 31.1909 122.614 30.408 122.073 29.4609C121.551 28.4944 121.29 27.3636 121.29 26.0686V11.9484C121.29 11.5231 121.27 11.1462 121.232 10.8176C121.193 10.4697 121.106 10.1797 120.971 9.94778C120.835 9.69649 120.642 9.5032 120.391 9.36789C120.14 9.23258 119.801 9.16493 119.376 9.16493V8.87499ZM125.001 26.0686C125.001 27.093 125.165 28.0402 125.494 28.91C125.842 29.7605 126.315 30.495 126.915 31.1136C127.514 31.7321 128.229 32.225 129.06 32.5923C129.911 32.9402 130.838 33.1142 131.844 33.1142C132.056 33.1142 132.279 33.1045 132.51 33.0852C132.742 33.0658 132.974 33.0368 133.206 32.9982C135.275 32.6503 136.927 31.8964 138.164 30.7366C139.401 29.5769 140.039 27.9339 140.078 25.8076V21.6614C139.788 22.2993 139.343 22.7826 138.744 23.1112C138.164 23.4398 137.536 23.6137 136.86 23.633C136.009 23.633 135.313 23.4108 134.772 22.9662C134.231 22.5023 133.806 21.9127 133.496 21.1975C133.187 20.4823 132.984 19.6802 132.887 18.791C132.791 17.8825 132.762 16.9934 132.8 16.1235C132.878 14.1326 132.723 12.6442 132.336 11.6584C132.105 11.0786 131.805 10.6243 131.438 10.2957C131.07 9.94778 130.645 9.68683 130.162 9.51286C129.679 9.3389 129.147 9.23258 128.567 9.19393C127.987 9.15527 127.388 9.1456 126.77 9.16493C125.996 9.20359 125.504 9.46454 125.291 9.94778C125.098 10.4117 125.001 11.0496 125.001 11.8614V26.0686ZM145.711 26.0396L145.943 26.0686C146.098 27.1124 146.378 28.0788 146.784 28.968C147.19 29.8378 147.712 30.5917 148.349 31.2295C148.987 31.8674 149.732 32.37 150.582 32.7372C151.452 33.0852 152.418 33.2591 153.481 33.2591C154.429 33.2591 155.318 33.1625 156.149 32.9692C156.999 32.7566 157.734 32.4376 158.352 32.0124C158.99 31.5871 159.493 31.0556 159.86 30.4177C160.227 29.7605 160.411 28.9776 160.411 28.0692C160.411 27.2187 160.179 26.5131 159.715 25.9526C159.271 25.3727 158.681 24.8798 157.947 24.4739C157.212 24.068 156.371 23.72 155.424 23.4301C154.477 23.1208 153.501 22.8212 152.496 22.5313C151.51 22.222 150.543 21.8837 149.596 21.5165C148.649 21.1492 147.808 20.695 147.074 20.1537C146.339 19.6125 145.74 18.965 145.276 18.2111C144.831 17.4379 144.609 16.4908 144.609 15.3697C144.609 14.1713 144.889 13.1661 145.45 12.3543C146.03 11.5231 146.774 10.8563 147.683 10.3537C148.61 9.8318 149.654 9.45487 150.814 9.22292C151.974 8.99097 153.153 8.87499 154.351 8.87499C155.936 8.87499 157.396 9.03929 158.729 9.36789C160.063 9.69649 161.416 10.1991 162.789 10.8756L161.339 15.8916L161.049 15.8626C161.01 14.9155 160.807 14.036 160.44 13.2241C160.092 12.393 159.619 11.6874 159.019 11.1075C158.42 10.5083 157.715 10.0444 156.903 9.71582C156.11 9.36789 155.25 9.19393 154.322 9.19393C153.472 9.19393 152.66 9.3099 151.887 9.54186C151.114 9.75448 150.427 10.0734 149.828 10.4987C149.229 10.9239 148.755 11.4555 148.407 12.0933C148.06 12.7312 147.886 13.4561 147.886 14.2679C147.886 15.0604 148.108 15.7273 148.552 16.2685C149.016 16.7904 149.616 17.235 150.35 17.6023C151.104 17.9502 151.954 18.2595 152.902 18.5301C153.868 18.8007 154.844 19.081 155.83 19.3709C156.835 19.6415 157.811 19.9508 158.758 20.2987C159.725 20.6466 160.575 21.0912 161.31 21.6324C162.064 22.1543 162.663 22.8115 163.108 23.6041C163.571 24.3772 163.803 25.334 163.803 26.4745C163.803 27.8082 163.523 28.9293 162.963 29.8378C162.402 30.7463 161.648 31.4808 160.701 32.0414C159.754 32.5826 158.652 32.9692 157.396 33.2011C156.159 33.4331 154.863 33.5491 153.51 33.5491C151.848 33.5491 150.263 33.3558 148.755 32.9692C147.267 32.5826 145.817 31.9544 144.406 31.0846L145.711 26.0396Z" fill="white"/>
<path d="M40.9718 36.7175C41.6858 35.9889 43.2032 34.3727 43.5602 33.7369L38.2048 27.3782L32.6708 20.7215L30.2609 17.8402L27.9402 15.257C27.7319 14.9921 27.244 14.4225 26.9584 14.2635C26.6728 14.1045 26.1848 14.1973 25.9765 14.2635L24.9055 15.3564C24.7865 15.4557 24.477 15.8333 24.1914 16.5486C23.9058 17.264 24.5484 18.4364 24.9055 18.9331L25.8873 20.1254L36.1519 32.644L39.0974 36.2207C39.3354 36.4857 39.865 37.0553 40.0792 37.2143C40.2934 37.3732 40.7635 36.9493 40.9718 36.7175Z" fill="url(#paint0_angular_55_648)"/>
<path d="M0.00265293 29.7902V25.3911L11.0706 12.1771C13.3615 9.56074 18.3718 3.81146 20.0856 1.7449C21.7993 -0.321662 22.2277 0.883833 22.2277 1.7449V8.50097L6.42919 26.6827L3.57295 30.1601C1.7164 32.6241 1.25226 32.9752 1.25226 32.8427C0.181168 32.9222 -0.0270995 30.8408 0.00265293 29.7902Z" fill="url(#paint1_angular_55_648)"/>
<path d="M23.2096 1.7449V8.50097L43.5602 32.644C43.7983 32.9752 44.4171 33.2202 44.9884 31.5511C45.0776 31.1206 45.2383 29.9813 45.1669 28.8685V28.1731C45.1966 27.3451 45.1847 25.5501 44.8991 24.9937C44.6135 24.4373 44.4231 24.0995 44.3636 24.0002L40.2577 18.8338L35.5271 13.27L30.6179 7.50743L25.8873 2.34102L24.3699 0.850713C23.9831 0.486417 23.2096 0.155238 23.2096 1.7449Z" fill="url(#paint2_angular_55_648)"/>
<path d="M4.91181 37.0156L1.87706 33.8362L15.3549 18.0389L18.7467 14.4622C18.9056 14.5056 19.253 14.6061 19.3715 14.6609C19.7999 14.8199 20.3236 15.3895 20.5319 15.6545C20.7401 15.9194 21.1031 16.648 20.8889 17.4428C20.6747 18.2377 19.1335 20.291 18.3897 21.2183L4.91181 37.0156Z" fill="url(#paint3_angular_55_648)"/>
<defs>
<radialGradient id="paint0_angular_55_648" cx="0" cy="0" r="1" gradientUnits="userSpaceOnUse" gradientTransform="translate(22.5923 18.8991) rotate(90) scale(18.35 24.7173)">
<stop stop-color="#BF953F"/>
<stop offset="0.249328" stop-color="#FCF6BA"/>
<stop offset="0.497926" stop-color="#B38728"/>
<stop offset="0.747546" stop-color="#FBF5B7"/>
<stop offset="1" stop-color="#AA771C"/>
</radialGradient>
<radialGradient id="paint1_angular_55_648" cx="0" cy="0" r="1" gradientUnits="userSpaceOnUse" gradientTransform="translate(22.5923 18.8991) rotate(90) scale(18.35 24.7173)">
<stop stop-color="#BF953F"/>
<stop offset="0.249328" stop-color="#FCF6BA"/>
<stop offset="0.497926" stop-color="#B38728"/>
<stop offset="0.747546" stop-color="#FBF5B7"/>
<stop offset="1" stop-color="#AA771C"/>
</radialGradient>
<radialGradient id="paint2_angular_55_648" cx="0" cy="0" r="1" gradientUnits="userSpaceOnUse" gradientTransform="translate(22.5923 18.8991) rotate(90) scale(18.35 24.7173)">
<stop stop-color="#BF953F"/>
<stop offset="0.249328" stop-color="#FCF6BA"/>
<stop offset="0.497926" stop-color="#B38728"/>
<stop offset="0.747546" stop-color="#FBF5B7"/>
<stop offset="1" stop-color="#AA771C"/>
</radialGradient>
<radialGradient id="paint3_angular_55_648" cx="0" cy="0" r="1" gradientUnits="userSpaceOnUse" gradientTransform="translate(22.5923 18.8991) rotate(90) scale(18.35 24.7173)">
<stop stop-color="#BF953F"/>
<stop offset="0.249328" stop-color="#FCF6BA"/>
<stop offset="0.497926" stop-color="#B38728"/>
<stop offset="0.747546" stop-color="#FBF5B7"/>
<stop offset="1" stop-color="#AA771C"/>
</radialGradient>
</defs>
</svg>
